<svg fill="#F8C9D9" xmlns="http://www.w3.org/2000/svg" width="16" height="16" viewBox="0 0 256 256">
<path d="M0 0 C0.63035156 -0.09361816 1.26070313 -0.18723633 1.91015625 -0.28369141 C2.48894531 -0.23003418 3.06773437 -0.17637695 3.6640625 -0.12109375 C4.21610352 0.02602051 4.76814453 0.17313477 5.33691406 0.32470703 C5.88573242 0.54755371 6.43455078 0.77040039 7 1 C7.87350098 1.39034424 7.87350098 1.39034424 8.76464844 1.78857422 C9.66618652 2.24707764 9.66618652 2.24707764 10.5859375 2.71484375 C11.19671143 3.06562988 11.80748535 3.41641602 12.43676758 3.77783203 C13.39619263 4.35186768 13.39619263 4.35186768 14.375 4.9375 C15.41853638 5.54247314 15.41853638 5.54247314 16.4831543 6.15966797 C17.56077026 6.78639404 17.56077026 6.78639404 18.66015625 7.42578125 C19.38477051 7.85455566 20.10938477 8.28333008 20.85595703 8.72509766 C21.56349121 9.14581543 22.27102539 9.5665332 23 10 C23.64694824 10.38333496 24.29389648 10.76666992 24.96044922 11.16162109 C25.59096191 11.53496582 26.22147461 11.90831055 26.87109375 12.29296875 C27.83462769 12.86313721 27.83462769 12.86313721 28.81762695 13.44482422 C29.47593506 13.83428223 30.13424316 14.22374023 30.8125 14.625 C31.83573364 15.23239014 31.83573364 15.23239014 32.87963867 15.85205078 C33.60256104 16.27856934 34.3254834 16.70508789 35.0703125 17.14453125 C36.22708496 17.82056396 36.22708496 17.82056396 37.40722656 18.51025391 C38.69064941 19.24767822 38.69064941 19.24767822 40 20 C40.99999023 20.55993652 41.99998047 21.11987305 43.03027344 21.69677734 C43.56294327 21.9924913 44.0956131 22.28820526 44.64442444 22.59288025 C45.19231125 22.89609695 45.74019806 23.19931366 46.3046875 23.51171875 C46.8612352 23.81948746 47.4177829 24.12725616 47.99119568 24.4443512 C48.55637405 24.75654099 49.12155243 25.06873077 49.70385742 25.39038086 C50.27671478 25.70651337 50.84957214 26.02264587 51.43978882 26.34835815 C52.01653351 26.66652496 52.5932782 26.98469177 53.1875 27.3125 C53.76384186 27.63042511 54.34018372 27.94835022 54.93399048 28.27590942 C55.51047333 28.59421722 56.08695618 28.91252502 56.6809082 29.24047852 C57.25691269 29.55916397 57.83291718 29.87784943 58.42637634 30.20619202 C59.00110184 30.5248674 59.57582733 30.84354279 60.16796875 31.171875 C60.74168716 31.49059067 61.31540558 31.80930634 61.9065094 32.13768005 C62.47538376 32.45511673 63.04425812 32.77255341 63.63037109 33.09960938 C64.19205994 33.41486572 64.75374878 33.73012207 65.3324585 34.05493164 C65.88274719 34.3668042 66.43303589 34.67867676 67 35 C67.53224182 35.30671631 68.06448364 35.61343262 68.612854 35.92944336 C69.13200378 36.23180908 69.65115356 36.5341748 70.18603516 36.84570312 C70.69443436 37.14386429 71.20283356 37.44202545 71.72663879 37.7492218 C72.2254808 38.04338486 72.72432281 38.33754791 73.23828125 38.640625 C74.21321533 39.21772217 75.18814941 39.79481934 76.19262695 40.3894043 C77.11906006 40.94152588 78.04549316 41.49364746 79 42.0625 C79.85231201 42.57401611 80.70462402 43.08553223 81.58276367 43.61254883 C82.40107666 44.10263428 83.21938965 44.59271973 84.0625 45.09765625 C84.86300781 45.57477051 85.66351563 46.05188477 86.48828125 46.54345703 C87.31714844 47.02411621 88.14601562 47.50477539 89 48 C89.94230469 48.51546387 90.88460937 49.03092773 91.85546875 49.56201172 C93.28826172 50.33375732 93.28826172 50.33375732 94.75 51.12109375 C95.61109375 51.57798584 96.4721875 52.03487793 97.359375 52.50561523 C98.23078125 52.99876221 99.1021875 53.49190918 100 54 C101.02943222 54.46849365 102.05886444 54.9369873 103.11949158 55.41967773 C103.64381712 55.77672759 104.16814266 56.13377745 104.70835686 56.501647 C105.34772021 57.24333173 105.34772021 57.24333173 106 58 C106.27309085 59.06912298 106.27309085 59.06912298 106.55169868 60.1598444 C106.6144039 61.01484248 106.67710911 61.86984056 106.74171448 62.75074768 C106.76058968 64.17869156 106.76058968 64.17869156 106.77984619 65.63548279 C106.76298767 66.673022 106.74612915 67.71056122 106.72875977 68.77954102 C106.7344548 69.87745972 106.74014984 70.97537842 106.74601746 72.10656738 C106.74955231 73.26100845 106.75308716 74.41544952 106.75672913 75.60487366 C106.75260738 76.20260027 106.74848562 76.80032688 106.74423897 77.41616642 C106.73824523 78.02409153 106.73225149 78.63201664 106.72607613 79.25836372 C106.71671182 80.18223409 106.71671182 80.18223409 106.70715833 81.1247685 C106.70196014 81.74488395 106.69676196 82.36499941 106.69140625 83.00390625 C106.68978823 83.6222845 106.68817022 84.24066274 106.68650317 84.87777972 C106.6863632 85.49866827 106.68622324 86.11955682 106.68607903 86.75926018 C106.6862318 87.3848764 106.68638457 88.01049262 106.68654197 88.65506691 C106.68677252 89.28556216 106.68700307 89.9160574 106.6872406 90.56565857 C106.68673316 91.52044274 106.68673316 91.52044274 106.68621546 92.49451548 C106.68541796 93.13629172 106.68462046 93.77806795 106.68379879 94.43929195 C106.68261071 95.08575204 106.68142263 95.73221212 106.68019855 96.3982619 C106.67809631 97.04994094 106.67599407 97.70161999 106.67382812 98.37304688 C106.67003305 99.03082788 106.66623797 99.68860888 106.66232789 100.36632264 C106.65767388 101.0285923 106.65301987 101.69086197 106.64822483 102.37320042 C106.64324657 103.03885566 106.63826831 103.70451091 106.63313919 104.39033753 C106.6279557 105.05873073 106.62277221 105.72712394 106.61743164 106.41577148 C106.61225334 107.08597256 106.60707504 107.75617363 106.60173982 108.44668382 C106.59682718 109.1184371 106.59191454 109.79019037 106.58685303 110.4822998 C106.58234383 111.15521057 106.57783463 111.82812134 106.57318878 112.52142334 C106.56966148 113.19497864 106.56613419 113.86853394 106.5625 114.5625 C106.56087608 115.23626678 106.55925217 115.91003357 106.55757904 116.60421753 C106.55696724 117.27756134 106.55635544 117.95090515 106.5557251 118.64465332 C106.55551877 119.65307908 106.55551877 119.65307908 106.55530828 120.68187708 C106.55550626 121.35267551 106.55570423 122.02347395 106.5559082 122.71459961 C106.55614914 123.38359553 106.55639007 124.05259145 106.5566383 124.74185997 C106.5569496 125.74120714 106.5569496 125.74120714 106.55726719 126.76074314 C106.55738367 127.42354286 106.55750015 128.08634259 106.55762017 128.76922715 C106.55729692 129.42739391 106.55697367 130.08556067 106.55664062 130.76367188 C106.55536474 131.41544273 106.55408886 132.06721359 106.55277431 132.73873508 C106.5509808 133.38512789 106.5491873 134.03152071 106.54733944 134.69750118 C106.54428282 135.65995883 106.54428282 135.65995883 106.54116446 136.64186007 C106.53885445 137.27816377 106.53654444 137.91446747 106.53416443 138.5700531 C106.53156504 139.20023391 106.52896565 139.83041472 106.5262875 140.47969192 C106.5223153 141.41764944 106.5223153 141.41764944 106.51826286 142.37455559 C106.51563462 142.99516766 106.51300638 143.61577974 106.51029849 144.25519824 C106.50818905 144.87352188 106.50607961 145.49184553 106.50390625 146.12890625 C106.50320169 146.749521 106.50249712 147.37013575 106.50177121 148.00955701 C106.50118242 148.93440243 106.50118242 148.93440243 106.50058174 149.87793159 C106.49964758 150.79071442 106.49964758 150.79071442 106.49869454 151.7219373 C106.49707593 152.31994204 106.49545733 152.91794678 106.49378967 153.53407288 C106.48472595 154.68711411 106.47566223 155.84015533 106.46632385 157.02813721 C106.4512101 158.67238678 106.4512101 158.67238678 106.43579102 160.34985352 C106.43783035 161.90919868 106.43783035 161.90919868 106.43991089 163.50004578 C106.42711594 164.44918854 106.41432098 165.3983313 106.40113831 166.37623596 C106.39611077 167.20157617 106.39108324 168.02691637 106.38590336 168.87726688 C106.25855525 169.57776881 106.13120714 170.27827074 106 171 C105.54650146 171.55945281 105.09300291 172.11890562 104.62576199 172.69531155 C104.08926053 173.12585874 103.55275908 173.55640593 103 174 C102.20360107 174.49459717 101.40720215 174.98919434 100.58666992 175.4987793 C99.64412354 176.01867432 98.70157715 176.53856934 97.73046875 177.07421875 C97.21800095 177.35889008 96.70553314 177.6435614 96.17753601 177.93685913 C95.64376846 178.23299103 95.11000092 178.52912292 94.56005859 178.83422852 C94.0095282 179.13676544 93.4589978 179.43930237 92.89178467 179.75100708 C92.32937073 180.06004974 91.76695679 180.36909241 91.1875 180.6875 C90.61799622 181.00290741 90.04849243 181.31831482 89.46173096 181.64328003 C88.88993103 181.96072174 88.3181311 182.27816345 87.72900391 182.60522461 C87.16076904 182.9206572 86.59253418 183.23608978 86.00708008 183.56108093 C85.16246216 184.02971306 85.16246216 184.02971306 84.30078125 184.5078125 C83.74124756 184.81745438 83.18171387 185.12709625 82.60522461 185.44612122 C82.06470459 185.74523911 81.52418457 186.04435699 80.96728516 186.35253906 C79.98808105 186.89620117 79.00887695 187.43986328 78 188 C76.92371338 188.60666504 76.92371338 188.60666504 75.82568359 189.22558594 C75.2373877 189.56106445 74.6490918 189.89654297 74.04296875 190.2421875 C73.50446289 190.55099854 72.96595703 190.85980957 72.41113281 191.17797852 C71.90420898 191.46987061 71.39728516 191.7617627 70.875 192.0625 C70.35905273 192.35890381 69.84310547 192.65530762 69.31152344 192.96069336 C68.77430664 193.26885986 68.23708984 193.57702637 67.68359375 193.89453125 C67.11753418 194.2188916 66.55147461 194.54325195 65.96826172 194.87744141 C65.31873535 195.24788574 64.66920898 195.61833008 64 196 C62.77627686 196.69295166 62.77627686 196.69295166 61.52783203 197.39990234 C60.62274902 197.91117676 59.71766602 198.42245117 58.78515625 198.94921875 C57.83600342 199.48506592 56.88685059 200.02091309 55.90893555 200.57299805 C54.92836182 201.12640869 53.94778809 201.67981934 52.9375 202.25 C51.95370361 202.80534424 50.96990723 203.36068848 49.95629883 203.93286133 C48.47359497 204.77046997 48.47359497 204.77046997 46.9609375 205.625 C45.96932617 206.18574219 44.97771484 206.74648437 43.95605469 207.32421875 C42.49280762 208.15373047 42.49280762 208.15373047 41 209 C40.06575195 209.53238281 39.13150391 210.06476563 38.16894531 210.61328125 C37.25983398 211.13277344 36.35072266 211.65226563 35.4140625 212.1875 C34.52203125 212.69804932 33.63 213.20859863 32.7109375 213.73461914 C31.83695313 214.23469482 30.96296875 214.73477051 30.0625 215.25 C29.20398438 215.73911865 28.34546875 216.2282373 27.4609375 216.73217773 C26.20023438 217.45062866 26.20023438 217.45062866 24.9140625 218.18359375 C23.68478027 218.88524658 23.68478027 218.88524658 22.43066406 219.60107422 C21.62854492 220.06271973 20.82642578 220.52436523 20 221 C18.81229004 221.69826904 18.81229004 221.69826904 17.60058594 222.41064453 C16.83262695 222.8642334 16.06466797 223.31782227 15.2734375 223.78515625 C14.53859131 224.21344727 13.80374512 224.64173828 13.04663086 225.08300781 C12.35061768 225.48874023 11.65460449 225.89447266 10.9375 226.3125 C10.2885376 226.70405273 9.6395752 227.09560547 8.97094727 227.49902344 C8.37080811 227.84610352 7.77066895 228.19318359 7.15234375 228.55078125 C6.11207031 229.02902344 5.07179688 229.50726563 4 230 C3.38962891 229.92587891 2.77925781 229.85175781 2.15039062 229.77539062 C1.44076172 229.51951172 0.73113281 229.26363281 0 229 C-0.85779053 228.57098389 -1.71558105 228.14196777 -2.59936523 227.69995117 C-3.57591064 227.15314697 -4.55245605 226.60634277 -5.55859375 226.04296875 C-6.09539764 225.74393646 -6.63220154 225.44490417 -7.18527222 225.1368103 C-7.74650787 224.82361847 -8.30774353 224.51042664 -8.88598633 224.18774414 C-9.46522858 223.8616214 -10.04447083 223.53549866 -10.64126587 223.19949341 C-11.23402313 222.86553558 -11.8267804 222.53157776 -12.4375 222.1875 C-13.03758881 221.85152802 -13.63767761 221.51555603 -14.25595093 221.16940308 C-14.86202179 220.83047028 -15.46809265 220.49153748 -16.0925293 220.14233398 C-16.70168686 219.80119064 -17.31084442 219.4600473 -17.9384613 219.10856628 C-18.5491597 218.76594254 -19.15985809 218.42331879 -19.7890625 218.0703125 C-20.40197647 217.72523148 -21.01489044 217.38015045 -21.64637756 217.02461243 C-22.5547361 216.51211189 -22.5547361 216.51211189 -23.48144531 215.98925781 C-24.07429321 215.65430298 -24.66714111 215.31934814 -25.2779541 214.97424316 C-25.84622925 214.65274292 -26.41450439 214.33124268 -27 214 C-27.52444702 213.70299194 -28.04889404 213.40598389 -28.5892334 213.09997559 C-29.08669067 212.81787231 -29.58414795 212.53576904 -30.09667969 212.24511719 C-31.04188477 211.70790039 -31.98708984 211.17068359 -32.9609375 210.6171875 C-33.86142822 210.10389893 -34.76191895 209.59061035 -35.68969727 209.06176758 C-36.98798462 208.31963013 -36.98798462 208.31963013 -38.3125 207.5625 C-39.17222412 207.06967529 -40.03194824 206.57685059 -40.91772461 206.0690918 C-41.7453833 205.59383057 -42.57304199 205.11856934 -43.42578125 204.62890625 C-44.21033691 204.17789551 -44.99489258 203.72688477 -45.80322266 203.26220703 C-46.52815918 202.84567871 -47.2530957 202.42915039 -48 202 C-48.63083496 201.63890137 -49.26166992 201.27780273 -49.91162109 200.90576172 C-50.49121582 200.57463379 -51.07081055 200.24350586 -51.66796875 199.90234375 C-52.22548828 199.58402588 -52.78300781 199.26570801 -53.35742188 198.93774414 C-53.89947266 198.62828857 -54.44152344 198.31883301 -55 198 C-55.53560547 197.69376709 -56.07121094 197.38753418 -56.62304688 197.07202148 C-57.17412109 196.75692627 -57.72519531 196.44183105 -58.29296875 196.1171875 C-58.87095215 195.78686523 -59.44893555 195.45654297 -60.04443359 195.11621094 C-60.68977051 194.74786133 -61.33510742 194.37951172 -62 194 C-62.77811035 193.55688477 -63.5562207 193.11376953 -64.35791016 192.65722656 C-65.20530762 192.17479492 -66.05270508 191.69236328 -66.92578125 191.1953125 C-67.81458984 190.68871094 -68.70339844 190.18210938 -69.61914062 189.66015625 C-70.50794922 189.15355469 -71.39675781 188.64695313 -72.3125 188.125 C-73.5200293 187.43857422 -73.5200293 187.43857422 -74.75195312 186.73828125 C-75.98268555 186.03638672 -75.98268555 186.03638672 -77.23828125 185.3203125 C-78.06005356 184.81748749 -78.88182587 184.31466248 -79.72850037 183.79660034 C-80.23278753 183.50190228 -80.7370747 183.20720421 -81.2566433 182.9035759 C-81.83195101 182.60539585 -82.40725872 182.30721581 -83 182 C-84.00368339 181.60806395 -84.00368339 181.60806395 -85.0276432 181.20820999 C-85.74845762 180.93881985 -86.46927204 180.6694297 -87.21192932 180.39187622 C-88.321375 179.93257029 -88.321375 179.93257029 -89.45323372 179.46398544 C-90.5834863 178.93678091 -90.5834863 178.93678091 -91.73657227 178.39892578 C-92.50371992 177.98759525 -93.27086758 177.57626472 -94.06126213 177.15246964 C-94.79502131 176.67099346 -95.52878048 176.18951729 -96.28477478 175.69345093 C-96.95944227 175.1368214 -97.63410976 174.58019188 -98.32922173 174.00669479 C-98.88057856 173.34448551 -99.43193539 172.68227623 -100 172 C-100.32323809 171.1837981 -100.64647617 170.36759621 -100.97950935 169.52666092 C-101.17069281 168.60541805 -101.36187626 167.68417519 -101.55885315 166.73501587 C-101.6740628 165.73823256 -101.78927244 164.74144924 -101.90797329 163.71446037 C-101.98953969 162.1208855 -101.98953969 162.1208855 -102.07275391 160.49511719 C-102.10095498 159.38674562 -102.12915606 158.27837406 -102.15821171 157.13641548 C-102.15777583 155.98254278 -102.15733995 154.82867008 -102.15689087 153.63983154 C-102.14491753 153.04607267 -102.1329442 152.45231379 -102.12060803 151.84056222 C-102.10473183 151.2377161 -102.08885562 150.63486998 -102.07249832 150.0137558 C-102.05520062 149.40324843 -102.03790292 148.79274107 -102.02008104 148.16373348 C-102.00571992 147.54767018 -101.9913588 146.93160688 -101.9765625 146.296875 C-101.97230239 145.67849542 -101.96804229 145.06011583 -101.96365309 144.42299747 C-101.96355631 143.80032458 -101.96345954 143.17765169 -101.96335983 142.53610992 C-101.96407844 141.90820911 -101.96479705 141.28030829 -101.96553743 140.63338017 C-101.96646666 140.00036386 -101.96739588 139.36734755 -101.96835327 138.71514893 C-101.96767023 138.07661067 -101.96698718 137.43807241 -101.96628344 136.78018451 C-101.96429458 136.13674633 -101.96230571 135.49330816 -101.96025658 134.83037186 C-101.95715564 134.18253188 -101.95405469 133.5346919 -101.95085979 132.8672204 C-101.94516199 132.21494392 -101.9394642 131.56266744 -101.93359375 130.890625 C-101.92308778 130.23373483 -101.91258181 129.57684466 -101.90175748 128.90004873 C-101.88881674 128.23947045 -101.87587599 127.57889216 -101.86254311 126.89829636 C-101.84869155 126.23471894 -101.83483999 125.57114152 -101.82056868 124.8874557 C-101.80614332 124.22141173 -101.79171796 123.55536775 -101.77685547 122.86914062 C-101.76244931 122.20132104 -101.74804314 121.53350146 -101.73320043 120.84544492 C-101.71956948 120.17606357 -101.70593854 119.50668223 -101.69189453 118.8170166 C-101.67943695 118.14642715 -101.66697937 117.47583771 -101.65414429 116.78492737 C-101.64452667 116.11340134 -101.63490906 115.44187531 -101.625 114.75 C-101.62088104 114.07762802 -101.61676208 113.40525604 -101.61251831 112.71250916 C-101.61131989 112.04018753 -101.61012146 111.36786591 -101.60888672 110.6751709 C-101.60905049 110.00366729 -101.60921426 109.33216368 -101.60938299 108.64031148 C-101.61050828 107.97010244 -101.61163357 107.2998934 -101.61279297 106.609375 C-101.61403817 105.94092017 -101.61528337 105.27246534 -101.6165663 104.5837543 C-101.61769592 103.91787209 -101.61882554 103.25198987 -101.6199894 102.56592941 C-101.62083007 101.90323091 -101.62167075 101.24053241 -101.6225369 100.55775213 C-101.62206066 99.89931893 -101.62158442 99.24088573 -101.62109375 98.5625 C-101.61778321 97.90985625 -101.61447267 97.2572125 -101.61106181 96.58479166 C-101.60621186 95.93722076 -101.6013619 95.28964986 -101.59636497 94.6224556 C-101.59079319 93.97956864 -101.5852214 93.33668169 -101.57948077 92.67431331 C-101.56991211 91.7178204 -101.56991211 91.7178204 -101.56015015 90.74200439 C-101.55290401 90.11024583 -101.54565787 89.47848727 -101.53819215 88.82758451 C-101.53081926 88.20092853 -101.52344638 87.57427256 -101.51585007 86.92862701 C-101.50856494 86.30706002 -101.50127982 85.68549303 -101.49377394 85.04509068 C-101.48809416 84.4269295 -101.48241439 83.80876833 -101.4765625 83.171875 C-101.47518296 82.55381454 -101.47380342 81.93575407 -101.47238207 81.2989645 C-101.47178703 80.37930322 -101.47178703 80.37930322 -101.47117996 79.44106293 C-101.470116 78.83611984 -101.46905203 78.23117675 -101.46795583 77.60790205 C-101.4618986 76.71515979 -101.4618986 76.71515979 -101.45571899 75.80438232 C-101.43014923 74.65146698 -101.40457947 73.49855164 -101.37823486 72.31069946 C-101.34961365 71.21397919 -101.32099243 70.11725891 -101.29150391 68.98730469 C-101.29715363 67.9586026 -101.30280334 66.92990051 -101.30862427 65.87002563 C-101.27168457 64.91701569 -101.23474487 63.96400574 -101.19668579 62.9821167 C-101.08800202 62.10999605 -100.97931826 61.2378754 -100.86734104 60.33932686 C-100.5811185 59.567349 -100.29489595 58.79537113 -100 58 C-99.34441825 57.35692335 -98.6888365 56.7138467 -98.01338863 56.05128288 C-97.2173702 55.51378977 -96.42135176 54.97629665 -95.60121155 54.42251587 C-94.81132371 53.98505854 -94.02143587 53.5476012 -93.20761204 53.09688759 C-92.47910007 52.73491468 -91.75058809 52.37294178 -91 52 C-90.03940674 51.42330566 -89.07881348 50.84661133 -88.08911133 50.25244141 C-87.2617749 49.79015137 -86.43443848 49.32786133 -85.58203125 48.8515625 C-84.17642944 48.06217285 -84.17642944 48.06217285 -82.74243164 47.25683594 C-81.7755542 46.71833008 -80.80867676 46.17982422 -79.8125 45.625 C-79.30766083 45.34209106 -78.80282166 45.05918213 -78.28268433 44.7677002 C-77.77230621 44.48116577 -77.2619281 44.19463135 -76.73608398 43.89941406 C-76.22822861 43.61432983 -75.72037323 43.32924561 -75.1971283 43.03552246 C-74.69379471 42.75309692 -74.19046112 42.47067139 -73.671875 42.1796875 C-72.69283203 41.63151367 -71.71378906 41.08333984 -70.70507812 40.51855469 C-69.81240234 40.01743164 -68.91972656 39.51630859 -68 39 C-66.92782227 38.39140137 -66.92782227 38.39140137 -65.83398438 37.77050781 C-65.21330078 37.41569336 -64.59261719 37.06087891 -63.953125 36.6953125 C-63.37828369 36.3657959 -62.80344238 36.0362793 -62.21118164 35.69677734 C-61.6671167 35.38434082 -61.12305176 35.0719043 -60.5625 34.75 C-60.0152124 34.43627441 -59.4679248 34.12254883 -58.90405273 33.79931641 C-58.09109741 33.33404541 -58.09109741 33.33404541 -57.26171875 32.859375 C-56.72595215 32.55322266 -56.19018555 32.24707031 -55.63818359 31.93164062 C-55.09758301 31.62419922 -54.55698242 31.31675781 -54 31 C-53.44521973 30.68740234 -52.89043945 30.37480469 -52.31884766 30.05273438 C-51.74569824 29.73111328 -51.17254883 29.40949219 -50.58203125 29.078125 C-49.98205322 28.74176025 -49.3820752 28.40539551 -48.76391602 28.05883789 C-48.14057373 27.70942139 -47.51723145 27.36000488 -46.875 27 C-46.24198975 26.64478271 -45.60897949 26.28956543 -44.95678711 25.92358398 C-44.27495361 25.54016846 -43.59312012 25.15675293 -42.890625 24.76171875 C-42.14361328 24.34067871 -41.39660156 23.91963867 -40.62695312 23.48583984 C-39.76005859 22.9955127 -38.89316406 22.50518555 -38 22 C-37.47849365 21.70401917 -36.9569873 21.40803833 -36.41967773 21.10308838 C-35.57675171 20.62401031 -35.57675171 20.62401031 -34.71679688 20.13525391 C-33.83778214 19.63519333 -33.83778214 19.63519333 -32.94100952 19.12503052 C-32.33657013 18.78084076 -31.73213074 18.436651 -31.109375 18.08203125 C-30.1907518 17.55837479 -30.1907518 17.55837479 -29.25357056 17.0241394 C-28.32585342 16.49495407 -28.32585342 16.49495407 -27.37939453 15.95507812 C-26.44622406 15.4224939 -26.44622406 15.4224939 -25.49420166 14.87915039 C-24.87736511 14.52715576 -24.26052856 14.17516113 -23.625 13.8125 C-22.7251236 13.29973511 -22.7251236 13.29973511 -21.80706787 12.77661133 C-20.92392914 12.27327271 -20.92392914 12.27327271 -20.02294922 11.75976562 C-19.44340485 11.42854706 -18.86386047 11.09732849 -18.26675415 10.756073 C-17.69661591 10.43051422 -17.12647766 10.10495544 -16.5390625 9.76953125 C-15.9757724 9.45065948 -15.4124823 9.13178772 -14.8321228 8.80325317 C-14.28198517 8.49000092 -13.73184753 8.17674866 -13.16503906 7.85400391 C-12.6315686 7.54690491 -12.09809814 7.23980591 -11.54846191 6.92340088 C-11.03746948 6.61867859 -10.52647705 6.3139563 -10 6 C-9.06639648 5.38688965 -8.13279297 4.7737793 -7.17089844 4.14208984 C-6.31786133 3.58344238 -5.46482422 3.02479492 -4.5859375 2.44921875 C-3.39677734 1.73693115 -3.39677734 1.73693115 -2.18359375 1.01025391 C-1.46300781 0.67687012 -0.74242188 0.34348633 0 0 Z M2 11 C1.02317261 11.48859497 1.02317261 11.48859497 0.02661133 11.98706055 C-0.7801001 12.44894775 -1.58681152 12.91083496 -2.41796875 13.38671875 C-3.33022217 13.90596924 -4.24247559 14.42521973 -5.18237305 14.96020508 C-6.17406494 15.5302124 -7.16575684 16.10021973 -8.1875 16.6875 C-8.69930817 16.979664 -9.21111633 17.271828 -9.73843384 17.57284546 C-10.25892303 17.86938019 -10.77941223 18.16591492 -11.31567383 18.47143555 C-11.84316727 18.77206406 -12.37066071 19.07269257 -12.91413879 19.38243103 C-13.44778549 19.68677567 -13.98143219 19.9911203 -14.53125 20.3046875 C-15.07251022 20.6141481 -15.61377045 20.9236087 -16.1714325 21.2424469 C-16.71169571 21.55141403 -17.25195892 21.86038116 -17.80859375 22.17871094 C-18.61055176 22.63691223 -18.61055176 22.63691223 -19.42871094 23.10437012 C-19.94723633 23.39992798 -20.46576172 23.69548584 -21 24 C-21.95261719 24.53915039 -22.90523438 25.07830078 -23.88671875 25.63378906 C-24.80066406 26.1490918 -25.71460937 26.66439453 -26.65625 27.1953125 C-27.56777832 27.70900391 -28.47930664 28.22269531 -29.41845703 28.75195312 C-30.33224121 29.26693359 -31.24602539 29.78191406 -32.1875 30.3125 C-33.11804199 30.83779297 -34.04858398 31.36308594 -35.00732422 31.90429688 C-35.9613916 32.44376953 -36.91545898 32.98324219 -37.8984375 33.5390625 C-38.87780273 34.09368164 -39.85716797 34.64830078 -40.86621094 35.21972656 C-41.37341675 35.50755005 -41.88062256 35.79537354 -42.40319824 36.09191895 C-42.93014282 36.39158569 -43.4570874 36.69125244 -44 37 C-44.55917114 37.31900269 -45.11834229 37.63800537 -45.69445801 37.9666748 C-46.27256226 38.29703735 -46.8506665 38.6273999 -47.44628906 38.96777344 C-48.03462021 39.30430435 -48.62295135 39.64083527 -49.22911072 39.98756409 C-49.82639481 40.32940231 -50.42367889 40.67124054 -51.0390625 41.0234375 C-51.64315445 41.36910263 -52.2472464 41.71476776 -52.86964417 42.07090759 C-53.47445114 42.41706619 -54.07925812 42.76322479 -54.70239258 43.11987305 C-55.30516022 43.46496918 -55.90792786 43.81006531 -56.52896118 44.1656189 C-57.11752899 44.50283966 -57.7060968 44.84006042 -58.3125 45.1875 C-58.86666595 45.50562653 -59.42083191 45.82375305 -59.99179077 46.15151978 C-60.53292511 46.46221405 -61.07405945 46.77290833 -61.6315918 47.09301758 C-62.39979169 47.53082644 -62.39979169 47.53082644 -63.18351078 47.97747993 C-63.75846004 48.30846624 -64.33340929 48.63945255 -64.92578125 48.98046875 C-65.43487817 49.28727192 -65.94397509 49.59407509 -66.46849918 49.91017532 C-67.00306453 50.22697628 -67.53762987 50.54377724 -68.08839417 50.87017822 C-68.70538838 51.22410047 -69.3223826 51.57802271 -69.95807362 51.94266987 C-70.63190932 52.29158881 -71.30574503 52.64050776 -72 53 C-73.09799565 53.44046425 -73.09799565 53.44046425 -74.21817303 53.88982677 C-74.98457009 54.17976167 -75.75096716 54.46969656 -76.54058838 54.76841736 C-77.31848441 55.08612532 -78.09638044 55.40383327 -78.89784908 55.73116875 C-79.68598271 56.08663843 -80.47411634 56.44210812 -81.28613281 56.80834961 C-82.09320207 57.22091066 -82.90027132 57.63347172 -83.73179722 58.05853462 C-84.50502292 58.53164511 -85.27824862 59.00475559 -86.0749054 59.49220276 C-86.7857258 60.02746645 -87.49654621 60.56273014 -88.22890663 61.11421394 C-88.81336744 61.73652334 -89.39782825 62.35883274 -90 63 C-90.35223318 63.74774626 -90.70446636 64.49549252 -91.06737328 65.26589775 C-91.28455828 66.10018869 -91.50174328 66.93447964 -91.72550964 67.79405212 C-91.8643948 68.69147912 -92.00327995 69.58890612 -92.14637375 70.51352787 C-92.22238438 71.46603145 -92.298395 72.41853502 -92.37670898 73.39990234 C-92.42504002 74.39161407 -92.47337105 75.38332579 -92.52316666 76.40508938 C-92.54125759 77.4360275 -92.55934853 78.46696562 -92.57798767 79.52914429 C-92.56710554 80.59720684 -92.55622341 81.66526939 -92.54501152 82.76569748 C-92.52886866 83.86137669 -92.51272579 84.95705589 -92.49609375 86.0859375 C-92.5057976 87.19814289 -92.51550144 88.31034828 -92.52549934 89.45625687 C-92.54013159 90.58763454 -92.55476383 91.71901222 -92.56983948 92.88467407 C-92.57954049 94.03505472 -92.5892415 95.18543537 -92.59923649 96.37067604 C-92.60203904 96.95206754 -92.6048416 97.53345904 -92.60772908 98.13246846 C-92.6076277 98.71781637 -92.60752632 99.30316428 -92.60742188 99.90625 C-92.60195874 100.49566085 -92.59649561 101.08507169 -92.59086692 101.69234347 C-92.58279962 102.28496454 -92.57473232 102.87758562 -92.56642056 103.4881649 C-92.55757003 104.08333204 -92.54871951 104.67849917 -92.53960079 105.29170167 C-92.53031915 105.88895575 -92.52103751 106.48620982 -92.51147461 107.1015625 C-92.50231618 107.70035835 -92.49315775 108.2991542 -92.48372179 108.91609538 C-92.47590085 109.51602694 -92.46807991 110.11595851 -92.46002197 110.73406982 C-92.45413811 111.33473015 -92.44825424 111.93539047 -92.44219208 112.55425262 C-92.44064369 113.15509926 -92.43909531 113.75594589 -92.4375 114.375 C-92.4441996 114.97542366 -92.4508992 115.57584732 -92.45780182 116.19446564 C-92.46880669 116.79425987 -92.47981155 117.39405411 -92.4911499 118.01202393 C-92.50402103 118.61089436 -92.51689217 119.2097648 -92.53015333 119.82678282 C-92.54429209 120.42438394 -92.55843084 121.02198507 -92.57299805 121.63769531 C-92.58722225 122.23374396 -92.60144645 122.8297926 -92.61610168 123.44390333 C-92.62972293 124.03791806 -92.64334418 124.6319328 -92.6573782 125.24394798 C-92.66998302 125.83550894 -92.68258785 126.42706991 -92.69557464 127.03655696 C-92.7051561 127.62519629 -92.71473757 128.21383562 -92.72460938 128.8203125 C-92.72982863 129.69805891 -92.72982863 129.69805891 -92.73515332 130.59353757 C-92.73533235 131.17506361 -92.73551138 131.75658965 -92.73569584 132.35573769 C-92.73147838 133.5068321 -92.72726091 134.65792652 -92.72291565 135.84390259 C-92.7131476 136.97653156 -92.70337955 138.10916054 -92.69331551 139.2761116 C-92.69010733 140.38897915 -92.68689915 141.50184669 -92.68359375 142.6484375 C-92.72661527 144.28850832 -92.72661527 144.28850832 -92.77050591 145.96171188 C-92.79374491 147.02802464 -92.81698391 148.09433739 -92.84092712 149.19296265 C-92.83030715 150.22541705 -92.81968718 151.25787146 -92.80874538 152.32161236 C-92.76285306 153.31811212 -92.71696074 154.31461187 -92.66967773 155.34130859 C-92.55269201 156.78131713 -92.55269201 156.78131713 -92.43334293 158.25041676 C-92.28107463 159.16246718 -92.12880632 160.07451761 -91.97192383 161.01420593 C-91.72695663 161.87210913 -91.48198944 162.73001232 -91.229599 163.61391258 C-90.82383133 164.40132143 -90.41806366 165.18873028 -90 166 C-89.31673141 166.69022058 -88.63346283 167.38044117 -87.92948914 168.09157753 C-87.09609512 168.70945829 -86.26270111 169.32733906 -85.40405273 169.96394348 C-84.4983532 170.52561281 -83.59265368 171.08728214 -82.65950871 171.66597176 C-81.71346995 172.1708959 -80.7674312 172.67582005 -79.79272461 173.19604492 C-78.40105025 173.86809621 -78.40105025 173.86809621 -76.98126125 174.55372429 C-75.61387105 175.1628828 -75.61387105 175.1628828 -74.21885681 175.78434753 C-73.32846112 176.15606425 -72.43806543 176.52778097 -71.52068806 176.91076183 C-70.688861 177.27021043 -69.85703394 177.62965902 -69 178 C-67.90982842 178.57602069 -67.90982842 178.57602069 -66.79763317 179.16367817 C-66.15358689 179.53565925 -65.50954062 179.90764032 -64.84597778 180.29089355 C-64.29748735 180.6170591 -63.74899693 180.94322464 -63.18388557 181.27927399 C-62.4161044 181.74238102 -62.4161044 181.74238102 -61.6328125 182.21484375 C-60.77468208 182.70843793 -60.77468208 182.70843793 -59.8992157 183.21200371 C-59.39356583 183.49951563 -58.88791595 183.78702755 -58.36694336 184.08325195 C-57.8380954 184.3857486 -57.30924744 184.68824524 -56.76437378 184.99990845 C-56.22338043 185.30931366 -55.68238708 185.61871887 -55.125 185.9375 C-54.54525421 186.26906097 -53.96550842 186.60062195 -53.36819458 186.94223022 C-52.47546341 187.45265366 -52.47546341 187.45265366 -51.56469727 187.97338867 C-50.96759445 188.31462265 -50.37049164 188.65585663 -49.7552948 189.00743103 C-49.1592897 189.34786942 -48.56328461 189.6883078 -47.94921875 190.0390625 C-47.06844414 190.54192528 -47.06844414 190.54192528 -46.1698761 191.0549469 C-45.59094101 191.38518356 -45.01200592 191.71542023 -44.41552734 192.05566406 C-43.84477478 192.38087036 -43.27402222 192.70607666 -42.68597412 193.0411377 C-42.12960266 193.35756226 -41.5732312 193.67398682 -41 194 C-40.46683167 194.30224487 -39.93366333 194.60448975 -39.38433838 194.91589355 C-38.86643738 195.20887329 -38.34853638 195.50185303 -37.81494141 195.80371094 C-36.30746338 196.65497559 -36.30746338 196.65497559 -34.76953125 197.5234375 C-33.79346924 198.07443115 -32.81740723 198.6254248 -31.81176758 199.19311523 C-30.38900513 199.99471069 -30.38900513 199.99471069 -28.9375 200.8125 C-28.01026123 201.33207275 -27.08302246 201.85164551 -26.12768555 202.38696289 C-25.21929932 202.89735107 -24.31091309 203.40773926 -23.375 203.93359375 C-22.48554687 204.43616699 -21.59609375 204.93874023 -20.6796875 205.45654297 C-19.79539062 205.96588379 -18.91109375 206.47522461 -18 207 C-16.64648438 207.81235107 -16.64648438 207.81235107 -15.265625 208.64111328 C-14.37359375 209.18364746 -13.4815625 209.72618164 -12.5625 210.28515625 C-11.69761963 210.80553467 -10.83273926 211.32591309 -9.94165039 211.86206055 C-8.70209595 212.61096558 -8.70209595 212.61096558 -7.4375 213.375 C-6.28592407 214.09973511 -6.28592407 214.09973511 -5.11108398 214.83911133 C-4.39251221 215.27118896 -3.67394043 215.7032666 -2.93359375 216.1484375 C-2.25498291 216.5101001 -1.57637207 216.8717627 -0.87719727 217.24438477 C-0.25772217 217.49373779 0.36175293 217.74309082 1 218 C2.51980469 218.02513672 2.51980469 218.02513672 4.0703125 218.05078125 C5.03710938 217.70402344 6.00390625 217.35726562 7 217 C7.81827271 216.5978125 7.81827271 216.5978125 8.65307617 216.1875 C9.23806885 215.86394531 9.82306152 215.54039062 10.42578125 215.20703125 C11.3525769 214.64411377 11.3525769 214.64411377 12.2980957 214.06982422 C12.96284912 213.65490723 13.62760254 213.23999023 14.3125 212.8125 C15.40340942 212.15145264 15.40340942 212.15145264 16.51635742 211.47705078 C17.29470947 211.00895996 18.07306152 210.54086914 18.875 210.05859375 C19.69742188 209.56343262 20.51984375 209.06827148 21.3671875 208.55810547 C22.23601562 208.04393066 23.10484375 207.52975586 24 207 C24.9178125 206.47680176 25.835625 205.95360352 26.78125 205.41455078 C27.7403125 204.87685059 28.699375 204.33915039 29.6875 203.78515625 C30.68273682 203.23021484 31.67797363 202.67527344 32.70336914 202.10351562 C33.2130423 201.82016357 33.72271545 201.53681152 34.24783325 201.24487305 C34.76417328 200.95781494 35.28051331 200.67075684 35.8125 200.375 C36.59438187 199.93933716 36.59438187 199.93933716 37.39205933 199.49487305 C37.91937653 199.2007251 38.44669373 198.90657715 38.98999023 198.60351562 C39.52406998 198.30536957 40.05814972 198.00722351 40.6084137 197.70004272 C41.14884811 197.39813019 41.68928253 197.09621765 42.24609375 196.78515625 C42.79236923 196.47994049 43.33864471 196.17472473 43.901474 195.86026001 C44.4546077 195.55075409 45.00774139 195.24124817 45.57763672 194.92236328 C46.1377948 194.608255 46.69795288 194.29414673 47.27508545 193.97052002 C47.84430725 193.65024841 48.41352905 193.32997681 49 193 C49.87316864 192.50605743 49.87316864 192.50605743 50.76397705 192.00213623 C51.35378357 191.66740295 51.94359009 191.33266968 52.55126953 190.98779297 C53.14475693 190.65028015 53.73824432 190.31276733 54.34971619 189.96502686 C55.24588402 189.45446747 55.24588402 189.45446747 56.16015625 188.93359375 C56.762798 188.58983704 57.36543976 188.24608032 57.98634338 187.89190674 C58.58728317 187.54875427 59.18822296 187.20560181 59.80737305 186.85205078 C60.40383636 186.51111389 61.00029968 186.170177 61.61483765 185.81890869 C62.19569122 185.48679382 62.7765448 185.15467896 63.375 184.8125 C63.92080719 184.50068787 64.46661438 184.18887573 65.02896118 183.86761475 C65.82830582 183.41083344 65.82830582 183.41083344 66.64379883 182.94482422 C67.14932187 182.65737083 67.65484491 182.36991745 68.17568684 182.07375336 C69.02844841 181.58285091 69.02844841 181.58285091 69.8984375 181.08203125 C70.40227998 180.77734295 70.90612246 180.47265465 71.42523289 180.15873337 C71.95816424 179.84038151 72.4910956 179.52202965 73.04017639 179.19403076 C73.6599961 178.83417273 74.27981581 178.47431469 74.91841793 178.10355186 C75.60534001 177.73937975 76.2922621 177.37520763 77 177 C78.14705965 176.51068465 78.14705965 176.51068465 79.31729221 176.01148415 C80.12617862 175.68014158 80.93506502 175.34879902 81.76846313 175.00741577 C82.59243591 174.6447955 83.41640869 174.28217524 84.26535034 173.90856647 C85.10155914 173.50609794 85.93776794 173.1036294 86.79931641 172.68896484 C87.65352173 172.22991603 88.50772705 171.77086721 89.38781738 171.29790783 C90.61373093 170.52197261 90.61373093 170.52197261 91.8644104 169.73036194 C92.61495319 169.15431276 93.36549599 168.57826359 94.1387825 167.98475838 C94.75298428 167.32978811 95.36718605 166.67481785 96 166 C96.36322735 165.23498106 96.7264547 164.46996212 97.10068893 163.68176079 C97.31821445 162.83907206 97.53573997 161.99638332 97.75985718 161.12815857 C97.95985101 159.77710242 97.95985101 159.77710242 98.16388512 158.39875221 C98.2625862 156.97124169 98.2625862 156.97124169 98.36328125 155.51489258 C98.39956949 154.52571524 98.43585773 153.5365379 98.47324562 152.51738548 C98.47748228 151.4910985 98.48171894 150.46481152 98.48608398 149.40742493 C98.4597287 148.34617212 98.43337341 147.28491932 98.40621948 146.19150734 C98.37529205 145.10350523 98.34436462 144.01550312 98.3125 142.89453125 C98.31130157 141.78928289 98.31010315 140.68403454 98.30886841 139.54529381 C98.31401459 138.42108339 98.31916077 137.29687298 98.32446289 136.13859558 C98.32468948 134.99594836 98.32491608 133.85330114 98.32514954 132.67602825 C98.32229163 131.81007961 98.32229163 131.81007961 98.31937599 130.92663705 C98.31210519 130.05512945 98.31210519 130.05512945 98.3046875 129.16601562 C98.29439703 128.58137531 98.28410656 127.99673499 98.27350426 127.3943783 C98.26048586 126.80672359 98.24746746 126.21906888 98.23405457 125.61360645 C98.22006465 125.02343701 98.20607473 124.43326757 98.19166088 123.82521421 C98.1770749 123.23296432 98.16248892 122.64071443 98.14746094 122.03051758 C98.12565372 121.13980624 98.12565372 121.13980624 98.10340595 120.23110074 C98.0898667 119.6359697 98.07632746 119.04083866 98.06237793 118.42767334 C98.05032822 117.83154488 98.0382785 117.23541641 98.02586365 116.62122345 C98.01306114 115.72590534 98.01306114 115.72590534 98 114.8125 C97.99823257 114.2149868 97.99646515 113.6174736 97.99464417 113.00185394 C97.99645187 112.40442635 97.99825958 111.80699875 98.00012207 111.19146729 C98.00356093 110.59474455 98.0069998 109.99802181 98.01054287 109.38321656 C98.01512036 108.78761691 98.01969786 108.19201726 98.02441406 107.57836914 C98.02911492 106.98431111 98.03381578 106.39025308 98.0386591 105.7781933 C98.04310756 105.18629526 98.04755602 104.59439722 98.05213928 103.98456287 C98.0580543 103.10069556 98.0580543 103.10069556 98.06408882 102.19897234 C98.06614264 101.61317475 98.06819645 101.02737716 98.0703125 100.42382812 C98.06840345 99.8425476 98.06649441 99.26126708 98.06452751 98.66237199 C98.06046961 98.08527471 98.05641171 97.50817742 98.05223083 96.91359234 C98.03544029 95.20122749 98.03544029 95.20122749 98.01831055 93.45426941 C98.00343597 92.33193594 97.9885614 91.20960247 97.97323608 90.0532589 C97.96144318 88.94900377 97.94965027 87.84474865 97.9375 86.70703125 C97.94335114 85.61558115 97.94920227 84.52413105 97.95523071 83.3996067 C97.95769302 81.80379045 97.95769302 81.80379045 97.96020508 80.17573547 C97.94100038 79.15169963 97.92179567 78.12766378 97.90200901 77.07259655 C97.86086947 76.09062455 97.81972994 75.10865255 97.77734375 74.09692383 C97.71573783 73.15671292 97.65413191 72.21650202 97.59065914 71.24779987 C97.43108903 69.92989098 97.43108903 69.92989098 97.26829529 68.58535767 C97.10638639 67.77813389 96.9444775 66.97091011 96.77766228 66.13922501 C96.52103373 65.43328075 96.26440517 64.7273365 96 64 C95.58168978 63.44535946 95.16337955 62.89071892 94.73239326 62.31927109 C93.97124372 61.63836096 93.97124372 61.63836096 93.19471741 60.94369507 C92.64092659 60.55793902 92.08713577 60.17218298 91.51656342 59.77473736 C90.64996975 59.29202484 90.64996975 59.29202484 89.76586914 58.79956055 C89.20624229 58.53351674 88.64661545 58.26747293 88.07003021 57.9933672 C87.51240746 57.76241195 86.9547847 57.5314567 86.38026428 57.29350281 C85.54171481 56.98298965 85.54171481 56.98298965 84.68622494 56.6662035 C84.12977071 56.44635634 83.57331648 56.22650919 83 56 C82.4411313 55.70817431 81.88226259 55.41634863 81.30645847 55.11567974 C80.76870761 54.80779931 80.23095675 54.49991888 79.6769104 54.18270874 C78.73036591 53.62741486 77.78382141 53.07212097 76.80859375 52.5 C76.23172318 52.18018661 75.6548526 51.86037323 75.0605011 51.53086853 C74.60523544 51.28212479 74.14996979 51.03338104 73.6809082 50.77709961 C73.15340973 50.48817841 72.62591125 50.1992572 72.08242798 49.90158081 C71.53960175 49.60405914 70.99677551 49.30653748 70.4375 49 C69.86784515 48.68596222 69.29819031 48.37192444 68.71127319 48.04837036 C68.12616974 47.7250473 67.54106628 47.40172424 66.93823242 47.06860352 C66.34457382 46.74020981 65.75091522 46.4118161 65.13926697 46.07347107 C64.53901199 45.74113968 63.93875702 45.40880829 63.3203125 45.06640625 C62.71743912 44.73274551 62.11456573 44.39908478 61.49342346 44.05531311 C60.88876755 43.72011154 60.28411163 43.38490997 59.66113281 43.03955078 C59.05547485 42.70288391 58.44981689 42.36621704 57.82580566 42.01934814 C56.92203186 41.51477081 56.92203186 41.51477081 56 41 C55.40650757 40.66619324 54.81301514 40.33238647 54.20153809 39.98846436 C53.61263794 39.65566467 53.02373779 39.32286499 52.41699219 38.97998047 C51.83037308 38.64743256 51.24375397 38.31488464 50.63935852 37.97225952 C50.05454208 37.63981232 49.46972565 37.30736511 48.8671875 36.96484375 C48.28249191 36.63183258 47.69779633 36.29882141 47.09538269 35.95571899 C46.51210709 35.62292938 45.92883148 35.29013977 45.32788086 34.94726562 C44.74666473 34.61509033 44.16544861 34.28291504 43.56661987 33.94067383 C42.98776031 33.60962646 42.40890076 33.2785791 41.8125 32.9375 C41.23678253 32.60854736 40.66106506 32.27959473 40.06790161 31.94067383 C39.49450043 31.61284912 38.92109924 31.28502441 38.33032227 30.94726562 C37.75847702 30.61981354 37.18663177 30.29236145 36.59745789 29.95498657 C36.02775772 29.62823944 35.45805756 29.30149231 34.87109375 28.96484375 C34.30473709 28.63946625 33.73838043 28.31408875 33.15486145 27.97885132 C32.30645943 27.49021103 32.30645943 27.49021103 31.44091797 26.99169922 C30.87524109 26.6649823 30.30956421 26.33826538 29.72674561 26.00164795 C29.15691956 25.67110413 28.58709351 25.3405603 28 25 C27.41857239 24.66043274 26.83714478 24.32086548 26.23809814 23.9710083 C25.36251251 23.4577298 25.36251251 23.4577298 24.46923828 22.93408203 C23.8889537 22.59317032 23.30866913 22.25225861 22.71080017 21.90101624 C22.13721268 21.56371994 21.56362518 21.22642365 20.97265625 20.87890625 C20.41135513 20.54930405 19.85005402 20.21970184 19.27174377 19.88011169 C18.72147018 19.55688431 18.17119659 19.23365692 17.60424805 18.90063477 C17.06569183 18.58409943 16.52713562 18.26756409 15.97225952 17.94143677 C15.18161606 17.47542557 15.18161606 17.47542557 14.375 17 C13.8566861 16.69214569 13.33837219 16.38429138 12.80435181 16.06710815 C12.30277557 15.76902252 11.80119934 15.47093689 11.28442383 15.16381836 C10.35267334 14.6147583 9.42092285 14.06569824 8.4609375 13.5 C7.64415527 13.0153125 6.82737305 12.530625 5.98583984 12.03125 C5.3305127 11.6909375 4.67518555 11.350625 4 11 C3.34 11 2.68 11 2 11 Z " transform="translate(125,13)" style="fill: #CDC4EF;"/>
<path d="M0 0 C1.15113281 -0.07863281 2.30226562 -0.15726562 3.48828125 -0.23828125 C4.10340576 -0.25624756 4.71853027 -0.27421387 5.35229492 -0.29272461 C5.9991626 -0.29925049 6.64603027 -0.30577637 7.3125 -0.3125 C8.00255127 -0.3132251 8.69260254 -0.3139502 9.40356445 -0.31469727 C10.11859131 -0.30108154 10.83361816 -0.28746582 11.5703125 -0.2734375 C12.66327637 -0.22461426 12.66327637 -0.22461426 13.77832031 -0.17480469 C14.51147461 -0.11711914 15.24462891 -0.05943359 16 0 C16.7228418 0.0937793 17.44568359 0.18755859 18.19042969 0.28417969 C18.90875977 0.40438477 19.62708984 0.52458984 20.3671875 0.6484375 C21.08205322 0.78950928 21.79691895 0.93058105 22.53344727 1.07592773 C23.24428467 1.23649658 23.95512207 1.39706543 24.6875 1.5625 C25.39769287 1.73918213 26.10788574 1.91586426 26.83959961 2.09790039 C27.53835205 2.2911792 28.23710449 2.48445801 28.95703125 2.68359375 C29.63846191 2.8935498 30.31989258 3.10350586 31.02197266 3.31982422 C31.67472168 3.54428223 32.3274707 3.76874023 33 4 C33.60505371 4.23605957 34.21010742 4.47211914 34.83349609 4.71533203 C35.40793457 4.96524902 35.98237305 5.21516602 36.57421875 5.47265625 C37.12811279 5.73780029 37.68200684 6.00294434 38.25268555 6.27612305 C38.78804932 6.55625244 39.32341309 6.83638184 39.875 7.125 C40.39682861 7.41995361 40.91865723 7.71490723 41.45629883 8.01879883 C41.96572021 8.32970459 42.4751416 8.64061035 43 8.9609375 C43.49757813 9.28803711 43.99515625 9.61513672 44.5078125 9.95214844 C45.00023437 10.29793945 45.49265625 10.64373047 46 11 C46.49757813 11.36899414 46.99515625 11.73798828 47.5078125 12.11816406 C48.00023437 12.50456055 48.49265625 12.89095703 49 13.2890625 C49.48090088 13.68907471 49.96180176 14.08908691 50.45727539 14.5012207 C50.92512451 14.91331787 51.39297363 15.32541504 51.875 15.75 C52.55260376 16.38264771 52.55260376 16.38264771 53.24389648 17.02807617 C53.89467163 17.67353394 53.89467163 17.67353394 54.55859375 18.33203125 C55.18096924 18.98872803 55.18096924 18.98872803 55.81591797 19.65869141 C56.20666504 20.10132324 56.59741211 20.54395508 57 21 C58.03833984 22.33611328 58.03833984 22.33611328 59.09765625 23.69921875 C59.70480469 24.60285156 60.31195313 25.50648437 60.9375 26.4375 C61.47503906 27.34628906 62.01257813 28.25507812 62.56640625 29.19140625 C63.27603516 30.58166016 63.27603516 30.58166016 64 32 C64.42152344 32.97839844 64.84304687 33.95679688 65.27734375 34.96484375 C65.82068359 36.40537109 65.82068359 36.40537109 66.375 37.875 C66.67148438 38.73867187 66.96796875 39.60234375 67.2734375 40.4921875 C67.51320313 41.31976563 67.75296875 42.14734375 68 43 C68.19207031 43.79535156 68.38414062 44.59070313 68.58203125 45.41015625 C68.71996094 46.26480469 68.85789062 47.11945313 69 48 C69.07863281 49.03253906 69.15726562 50.06507812 69.23828125 51.12890625 C69.26277344 52.26199219 69.28726563 53.39507812 69.3125 54.5625 C69.3139502 55.1723877 69.31540039 55.78227539 69.31689453 56.41064453 C69.30384277 57.03181152 69.29079102 57.65297852 69.27734375 58.29296875 C69.24495605 58.91349121 69.21256836 59.53401367 69.17919922 60.17333984 C69.12006348 60.7761377 69.06092773 61.37893555 69 62 C68.77441406 63.08925781 68.54882812 64.17851562 68.31640625 65.30078125 C68.00574219 66.31527344 67.69507813 67.32976562 67.375 68.375 C67.01019531 69.34179688 66.64539063 70.30859375 66.26953125 71.3046875 C65.85058594 72.19414062 65.43164062 73.08359375 65 74 C64.29423828 75.17949219 64.29423828 75.17949219 63.57421875 76.3828125 C63.07535156 77.08148438 62.57648438 77.78015625 62.0625 78.5 C61.54816406 79.12261719 61.03382813 79.74523437 60.50390625 80.38671875 C60.00761719 80.91910156 59.51132813 81.45148438 59 82 C57.7625 83.1446875 57.7625 83.1446875 56.5 84.3125 C55.675 84.869375 54.85 85.42625 54 86 C53.01 86.556875 52.02 87.11375 51 87.6875 C50.01 88.120625 49.02 88.55375 48 89 C47.195625 89.226875 46.39125 89.45375 45.5625 89.6875 C44.716875 89.790625 43.87125 89.89375 43 90 C41.9275 90.0825 40.855 90.165 39.75 90.25 C39.15960938 90.2396875 38.56921875 90.229375 37.9609375 90.21875 C37.31382812 90.1465625 36.66671875 90.074375 36 90 C35.24976563 89.8246875 34.49953125 89.649375 33.7265625 89.46875 C32.95054687 89.2315625 32.17453125 88.994375 31.375 88.75 C30.62089844 88.47800781 29.86679688 88.20601563 29.08984375 87.92578125 C28.40019531 87.62027344 27.71054688 87.31476563 27 87 C26.44441406 86.66355469 25.88882813 86.32710938 25.31640625 85.98046875 C24.86136719 85.63628906 24.40632813 85.29210937 23.9375 84.9375 C23.298125 84.298125 22.65875 83.65875 22 83 C22 82.34 22 81.68 22 81 C21.41992188 81.34546875 20.83984375 81.6909375 20.2421875 82.046875 C19.46101563 82.60890625 18.67984375 83.1709375 17.875 83.75 C17.04871094 84.31460938 16.22242188 84.87921875 15.37109375 85.4609375 C14.58863281 85.96882813 13.80617188 86.47671875 13 87 C11.989375 87.45375 10.97875 87.9075 9.9375 88.375 C8.4834375 88.684375 8.4834375 88.684375 7 89 C6.39671875 89.07089844 5.7934375 89.14179688 5.171875 89.21484375 C4.51703125 89.24707031 3.8621875 89.27929688 3.1875 89.3125 C2.51074219 89.28929687 1.83398438 89.26609375 1.13671875 89.2421875 C0.43160156 89.16226563 -0.27351563 89.08234375 -1 89 C-1.73605469 88.85820312 -2.47210938 88.71640625 -3.23046875 88.5703125 C-3.97941406 88.36148438 -4.72835937 88.15265625 -5.5 87.9375 C-6.24636719 87.66164063 -6.99273437 87.38578125 -7.76171875 87.1015625 C-8.50035156 86.73804688 -9.23898438 86.37453125 -10 86 C-10.72832031 85.51273437 -11.45664063 85.02546875 -12.20703125 84.5234375 C-13.24923828 83.67652344 -13.24923828 83.67652344 -14.3125 82.8125 C-15.28316406 81.89791016 -15.28316406 81.89791016 -16.2734375 80.96484375 C-16.84320313 80.31644531 -17.41296875 79.66804688 -18 79 C-18.44601563 78.32066406 -18.89203125 77.64132813 -19.3515625 76.94140625 C-19.70992187 76.25949219 -20.06828125 75.57757813 -20.4375 74.875 C-20.73011719 74.19953125 -21.02273437 73.5240625 -21.32421875 72.828125 C-21.54722656 72.22484375 -21.77023438 71.6215625 -22 71 C-22.37125 69.824375 -22.37125 69.824375 -22.75 68.625 C-22.8325 67.75875 -22.915 66.8925 -23 66 C-23.0515625 65.28199219 -23.103125 64.56398438 -23.15625 63.82421875 C-23.1871875 62.99535156 -23.218125 62.16648438 -23.25 61.3125 C-23.2396875 60.44753906 -23.229375 59.58257812 -23.21875 58.69140625 C-23.1465625 57.80324219 -23.074375 56.91507813 -23 56 C-22.73703125 54.68322266 -22.73703125 54.68322266 -22.46875 53.33984375 C-22.2315625 52.48519531 -21.994375 51.63054687 -21.75 50.75 C-21.47027344 49.92371094 -21.19054687 49.09742188 -20.90234375 48.24609375 C-20.60457031 47.50488281 -20.30679688 46.76367188 -20 46 C-19.73316406 45.43410156 -19.46632812 44.86820313 -19.19140625 44.28515625 C-18.90136719 43.79917969 -18.61132812 43.31320313 -18.3125 42.8125 C-17.97347656 42.35875 -17.63445312 41.905 -17.28515625 41.4375 C-16.86105469 40.963125 -16.43695313 40.48875 -16 40 C-15.42121094 39.401875 -14.84242187 38.80375 -14.24609375 38.1875 C-13.58738281 37.56875 -12.92867187 36.95 -12.25 36.3125 C-11.55132812 35.72984375 -10.85265625 35.1471875 -10.1328125 34.546875 C-9.42898437 34.03640625 -8.72515625 33.5259375 -8 33 C-7.35804687 32.63390625 -6.71609375 32.2678125 -6.0546875 31.890625 C-5.09949219 31.48070312 -5.09949219 31.48070312 -4.125 31.0625 C-3.46757813 30.85496094 -2.81015625 30.64742187 -2.1328125 30.43359375 C-1.42898437 30.29050781 -0.72515625 30.14742187 0 30 C0.80695313 29.90847656 1.61390625 29.81695312 2.4453125 29.72265625 C3.70988281 29.67431641 3.70988281 29.67431641 5 29.625 C5.83660156 29.65207031 6.67320313 29.67914063 7.53515625 29.70703125 C8.75525391 29.85205078 8.75525391 29.85205078 10 30 C10.76183594 30.18949219 11.52367187 30.37898438 12.30859375 30.57421875 C13.01113281 30.81785156 13.71367187 31.06148437 14.4375 31.3125 C15.05496094 31.55613281 15.67242187 31.79976562 16.30859375 32.05078125 C16.86675781 32.36402344 17.42492187 32.67726562 18 33 C18.54785156 33.61230469 19.09570312 34.22460938 19.66015625 34.85546875 C20.10230469 35.23316406 20.54445313 35.61085937 21 36 C21.0928125 35.40832031 21.185625 34.81664062 21.28125 34.20703125 C21.5184375 33.47871094 21.755625 32.75039062 22 32 C22.9590625 31.85949219 23.918125 31.71898438 24.90625 31.57421875 C25.48503906 31.58259766 26.06382812 31.59097656 26.66015625 31.59960938 C27.26730469 31.62861328 27.87445313 31.65761719 28.5 31.6875 C29.41072266 31.70200195 29.41072266 31.70200195 30.33984375 31.71679688 C30.91863281 31.73162109 31.49742187 31.74644531 32.09375 31.76171875 C33.53234375 31.87966797 33.53234375 31.87966797 35 32 C35.33 32.33 35.66 32.66 36 33 C35.97486328 34.05574219 35.97486328 34.05574219 35.94921875 35.1328125 C35.81966797 36.61394531 35.81966797 36.61394531 35.6875 38.125 C35.64262451 38.67542969 35.59774902 39.22585937 35.55151367 39.79296875 C35.50099854 40.40011719 35.4504834 41.00726563 35.3984375 41.6328125 C35.30900879 42.64263184 35.30900879 42.64263184 35.21777344 43.67285156 C35.1459082 44.44081055 35.07404297 45.20876953 35 46 C34.90750977 46.92006836 34.81501953 47.84013672 34.71972656 48.78808594 C34.61885742 49.78356445 34.51798828 50.77904297 34.4140625 51.8046875 C34.31520752 52.8241748 34.21635254 53.84366211 34.11450195 54.89404297 C34.01484131 55.91900879 33.91518066 56.94397461 33.8125 58 C33.70446045 59.00305176 33.5964209 60.00610352 33.48510742 61.03955078 C33.39334229 61.99587402 33.30157715 62.95219727 33.20703125 63.9375 C33.1191333 64.79214844 33.03123535 65.64679688 32.94067383 66.52734375 C32.96025146 67.34332031 32.9798291 68.15929687 33 69 C33.30510498 69.90878906 33.61020996 70.81757813 33.92456055 71.75390625 C34.27945557 72.49511719 34.63435059 73.23632812 35 74 C35.33 74.33 35.66 74.66 36 75 C36.55171875 75.06703125 37.1034375 75.1340625 37.671875 75.203125 C38.35765625 75.21859375 39.0434375 75.2340625 39.75 75.25 C40.471875 75.23324219 41.19375 75.21648437 41.9375 75.19921875 C42.618125 75.13347656 43.29875 75.06773437 44 75 C44.9075 74.690625 45.815 74.38125 46.75 74.0625 C47.4925 73.381875 48.235 72.70125 49 72 C49.3815625 71.38898438 49.763125 70.77796875 50.15625 70.1484375 C50.5171875 69.41882813 50.878125 68.68921875 51.25 67.9375 C51.56582031 67.13699219 51.88164062 66.33648437 52.20703125 65.51171875 C52.46871094 64.68285156 52.73039062 63.85398438 53 63 C53.18949219 62.22269531 53.37898438 61.44539063 53.57421875 60.64453125 C53.69410156 59.85433594 53.81398438 59.06414062 53.9375 58.25 C54.01484375 57.00476563 54.01484375 57.00476563 54.09375 55.734375 C54.0628125 54.83203125 54.031875 53.9296875 54 53 C53.79890625 51.42992188 53.79890625 51.42992188 53.59375 49.828125 C53.3771875 48.72984375 53.160625 47.6315625 52.9375 46.5 C52.65003906 45.40300781 52.36257812 44.30601563 52.06640625 43.17578125 C51.53853516 41.60376953 51.53853516 41.60376953 51 40 C50.59652344 39.08605469 50.19304687 38.17210937 49.77734375 37.23046875 C49.31457031 36.39128906 48.85179687 35.55210938 48.375 34.6875 C47.85035156 33.8934375 47.32570313 33.099375 46.78515625 32.28125 C46.19605469 31.5284375 45.60695313 30.775625 45 30 C44.33871094 29.2678125 43.67742187 28.535625 42.99609375 27.78125 C42.27550781 27.0903125 41.55492187 26.399375 40.8125 25.6875 C40.04550781 25.04941406 39.27851563 24.41132812 38.48828125 23.75390625 C37.25658203 22.88572266 37.25658203 22.88572266 36 22 C35.10667969 21.49339844 34.21335937 20.98679687 33.29296875 20.46484375 C32.37128906 20.02269531 31.44960937 19.58054687 30.5 19.125 C29.56671875 18.74214844 28.6334375 18.35929687 27.671875 17.96484375 C26.79015625 17.64644531 25.9084375 17.32804687 25 17 C24.28328125 16.75378906 23.5665625 16.50757812 22.828125 16.25390625 C22.14234375 16.06699219 21.4565625 15.88007812 20.75 15.6875 C20.03070313 15.5534375 19.31140625 15.419375 18.5703125 15.28125 C17.72210938 15.1884375 16.87390625 15.095625 16 15 C15.44795898 14.96003906 14.89591797 14.92007813 14.32714844 14.87890625 C13.72161133 14.84667969 13.11607422 14.81445312 12.4921875 14.78125 C11.5475061 14.7493457 11.5475061 14.7493457 10.58374023 14.71679688 C9.61416382 14.70229492 9.61416382 14.70229492 8.625 14.6875 C7.97668213 14.69072266 7.32836426 14.69394531 6.66040039 14.69726562 C6.0183667 14.71466797 5.37633301 14.73207031 4.71484375 14.75 C4.08433105 14.78222656 3.45381836 14.81445312 2.80419922 14.84765625 C1.91112061 14.92306641 1.91112061 14.92306641 1 15 C-0.00933594 15.165 -1.01867187 15.33 -2.05859375 15.5 C-2.96738281 15.726875 -3.87617187 15.95375 -4.8125 16.1875 C-6.11380859 16.60128906 -6.11380859 16.60128906 -7.44140625 17.0234375 C-8.28574219 17.34570312 -9.13007812 17.66796875 -10 18 C-10.87527344 18.36351563 -11.75054687 18.72703125 -12.65234375 19.1015625 C-13.50957031 19.50117187 -14.36679688 19.90078125 -15.25 20.3125 C-16.06597656 20.74949219 -16.88195312 21.18648437 -17.72265625 21.63671875 C-18.47417969 22.08660156 -19.22570312 22.53648438 -20 23 C-20.95712891 23.62841797 -20.95712891 23.62841797 -21.93359375 24.26953125 C-22.51238281 24.71683594 -23.09117188 25.16414063 -23.6875 25.625 C-24.2340625 26.13160156 -24.780625 26.63820313 -25.34375 27.16015625 C-25.8903125 27.76730469 -26.436875 28.37445313 -27 29 C-27.6084375 29.78246094 -28.216875 30.56492187 -28.84375 31.37109375 C-29.4521875 32.25925781 -30.060625 33.14742187 -30.6875 34.0625 C-31.25984375 35.01640625 -31.8321875 35.9703125 -32.421875 36.953125 C-32.94265625 37.95859375 -33.4634375 38.9640625 -34 40 C-34.43828125 41.02609375 -34.8765625 42.0521875 -35.328125 43.109375 C-35.69421875 44.16640625 -36.0603125 45.2234375 -36.4375 46.3125 C-36.7365625 47.39789063 -37.035625 48.48328125 -37.34375 49.6015625 C-37.5603125 50.72304687 -37.776875 51.84453125 -38 53 C-38.06832031 53.58749023 -38.13664062 54.17498047 -38.20703125 54.78027344 C-38.25214844 55.37614258 -38.29726562 55.97201172 -38.34375 56.5859375 C-38.36888672 57.18124268 -38.39402344 57.77654785 -38.41992188 58.38989258 C-38.42572266 58.98310303 -38.43152344 59.57631348 -38.4375 60.1875 C-38.42525391 60.77748779 -38.41300781 61.36747559 -38.40039062 61.9753418 C-38.37138672 62.55195557 -38.34238281 63.12856934 -38.3125 63.72265625 C-38.209375 64.80417969 -38.10625 65.88570313 -38 67 C-37.855625 67.88558594 -37.71125 68.77117187 -37.5625 69.68359375 C-37.35625 70.48925781 -37.15 71.29492188 -36.9375 72.125 C-36.66035156 72.90746094 -36.38320312 73.68992187 -36.09765625 74.49609375 C-35.73542969 75.32238281 -35.37320313 76.14867187 -35 77 C-34.52433594 78.00160156 -34.04867187 79.00320312 -33.55859375 80.03515625 C-33.1550769 80.81499878 -33.1550769 80.81499878 -32.7434082 81.6105957 C-32.4568335 82.13097412 -32.17025879 82.65135254 -31.875 83.1875 C-31.57360107 83.69821045 -31.27220215 84.2089209 -30.96166992 84.73510742 C-30.64689697 85.22986572 -30.33212402 85.72462402 -30.0078125 86.234375 C-29.34523438 87.14703125 -28.68265625 88.0596875 -28 89 C-27.31679687 89.70640625 -26.63359375 90.4128125 -25.9296875 91.140625 C-25.21039063 91.73359375 -24.49109375 92.3265625 -23.75 92.9375 C-22.99203125 93.46601563 -22.2340625 93.99453125 -21.453125 94.5390625 C-20.64359375 95.02117187 -19.8340625 95.50328125 -19 96 C-18.10796875 96.48210937 -17.2159375 96.96421875 -16.296875 97.4609375 C-15.37390625 97.90695313 -14.4509375 98.35296875 -13.5 98.8125 C-12.56929687 99.204375 -11.63859375 99.59625 -10.6796875 100 C-9.35324219 100.495 -9.35324219 100.495 -8 101 C-6.89011719 101.37125 -6.89011719 101.37125 -5.7578125 101.75 C-4.70207031 102.0284375 -4.70207031 102.0284375 -3.625 102.3125 C-2.89410156 102.44527344 -2.16320312 102.57804687 -1.41015625 102.71484375 C-0.21712891 102.85599609 -0.21712891 102.85599609 1 103 C2.39412109 103.12568359 2.39412109 103.12568359 3.81640625 103.25390625 C4.84636719 103.29386719 5.87632813 103.33382812 6.9375 103.375 C8.030625 103.375 9.12375 103.375 10.25 103.375 C10.84167969 103.33890625 11.43335938 103.3028125 12.04296875 103.265625 C12.68878906 103.17796875 13.33460938 103.0903125 14 103 C14.74121094 102.814375 15.48242188 102.62875 16.24609375 102.4375 C17.03113281 102.210625 17.81617188 101.98375 18.625 101.75 C19.8169397 101.40606201 19.8169397 101.40606201 21.03295898 101.05517578 C21.82645752 100.83071777 22.61995605 100.60625977 23.4375 100.375 C24.60164429 100.05958252 24.60164429 100.05958252 25.78930664 99.73779297 C26.53043701 99.57424316 27.27156738 99.41069336 28.03515625 99.2421875 C28.73012207 99.14131836 29.42508789 99.04044922 30.14111328 98.93652344 C30.7545459 98.9574707 31.36797852 98.97841797 32 99 C32.86496094 99.60070312 33.72992188 100.20140625 34.62109375 100.8203125 C35.19988281 101.70460938 35.77867187 102.58890625 36.375 103.5 C36.81585938 104.4178125 37.25671875 105.335625 37.7109375 106.28125 C37.80632812 107.1784375 37.90171875 108.075625 38 109 C37.50242187 109.72832031 37.00484375 110.45664063 36.4921875 111.20703125 C35.66976562 111.79871094 34.84734375 112.39039063 34 113 C33.04609375 113.40605469 32.0921875 113.81210938 31.109375 114.23046875 C30.00078125 114.54628906 28.8921875 114.86210937 27.75 115.1875 C27.13938721 115.35258057 26.52877441 115.51766113 25.8996582 115.68774414 C25.26374756 115.84750732 24.62783691 116.00727051 23.97265625 116.171875 C23.3192627 116.31689453 22.66586914 116.46191406 21.99267578 116.61132812 C21.33509277 116.73958984 20.67750977 116.86785156 20 117 C19.3591748 117.10505859 18.71834961 117.21011719 18.05810547 117.31835938 C17.4188916 117.40408203 16.77967773 117.48980469 16.12109375 117.578125 C15.47519287 117.64604248 14.82929199 117.71395996 14.16381836 117.78393555 C13.5116333 117.83461182 12.85944824 117.88528809 12.1875 117.9375 C11.52693604 117.97335205 10.86637207 118.0092041 10.18579102 118.04614258 C9.18116821 118.07164185 9.18116821 118.07164185 8.15625 118.09765625 C7.13917969 118.09209717 7.13917969 118.09209717 6.1015625 118.08642578 C5.40804687 118.05790527 4.71453125 118.02938477 4 118 C3.278125 117.93925293 2.55625 117.87850586 1.8125 117.81591797 C0.71421875 117.68854248 0.71421875 117.68854248 -0.40625 117.55859375 C-1.13610107 117.45450195 -1.86595215 117.35041016 -2.61791992 117.24316406 C-3.70423706 117.06092285 -3.70423706 117.06092285 -4.8125 116.875 C-5.52704346 116.73932617 -6.24158691 116.60365234 -6.9777832 116.46386719 C-7.67218506 116.3146582 -8.36658691 116.16544922 -9.08203125 116.01171875 C-9.75057129 115.84978027 -10.41911133 115.6878418 -11.10791016 115.52099609 C-11.7322998 115.34906738 -12.35668945 115.17713867 -13 115 C-14.05574219 114.63519531 -15.11148438 114.27039063 -16.19921875 113.89453125 C-17.12347656 113.49621094 -18.04773438 113.09789062 -19 112.6875 C-20.28197266 112.03394531 -20.28197266 112.03394531 -21.58984375 111.3671875 C-22.38519531 110.91601562 -23.18054688 110.46484375 -24 110 C-24.76441406 109.56945312 -25.52882813 109.13890625 -26.31640625 108.6953125 C-27.05761719 108.23898438 -27.79882812 107.78265625 -28.5625 107.3125 C-29.64144531 106.55453125 -29.64144531 106.55453125 -30.7421875 105.78125 C-31.48726562 105.1934375 -32.23234375 104.605625 -33 104 C-33.84820312 103.2678125 -34.69640625 102.535625 -35.5703125 101.78125 C-36.0031958 101.38204346 -36.4360791 100.98283691 -36.88208008 100.5715332 C-37.31286865 100.15605225 -37.74365723 99.74057129 -38.1875 99.3125 C-38.60990967 98.88606201 -39.03231934 98.45962402 -39.4675293 98.02026367 C-39.87656494 97.58431885 -40.28560059 97.14837402 -40.70703125 96.69921875 C-41.09971191 96.25497559 -41.49239258 95.81073242 -41.89697266 95.35302734 C-42.26097168 94.90652832 -42.6249707 94.4600293 -43 94 C-43.60199219 93.11957031 -44.20398438 92.23914063 -44.82421875 91.33203125 C-45.33597656 90.43871094 -45.84773438 89.54539062 -46.375 88.625 C-46.83003906 87.71492188 -47.28507812 86.80484375 -47.75390625 85.8671875 C-48.16511719 84.92101562 -48.57632813 83.97484375 -49 83 C-49.40089844 81.97132813 -49.80179687 80.94265625 -50.21484375 79.8828125 C-50.57707031 78.84898437 -50.93929687 77.81515625 -51.3125 76.75 C-51.62316406 75.74839844 -51.93382813 74.74679688 -52.25390625 73.71484375 C-52.50011719 72.81894531 -52.74632813 71.92304688 -53 71 C-53.15339844 70.34128906 -53.30679688 69.68257813 -53.46484375 69.00390625 C-53.55894531 68.44574219 -53.65304688 67.88757813 -53.75 67.3125 C-53.8325 66.219375 -53.915 65.12625 -54 64 C-54.0515625 63.36320312 -54.103125 62.72640625 -54.15625 62.0703125 C-54.1871875 61.36648437 -54.218125 60.66265625 -54.25 59.9375 C-54.22679688 58.7928125 -54.22679688 58.7928125 -54.203125 57.625 C-54.13609375 56.75875 -54.0690625 55.8925 -54 55 C-53.87109375 53.96875 -53.7421875 52.9375 -53.609375 51.875 C-53.30773437 50.1734375 -53.30773437 50.1734375 -53 48.4375 C-52.87061035 47.84710938 -52.7412207 47.25671875 -52.60791016 46.6484375 C-52.45628418 46.04257813 -52.3046582 45.43671875 -52.1484375 44.8125 C-51.97280273 44.19117188 -51.79716797 43.56984375 -51.61621094 42.9296875 C-51.41286133 42.29289062 -51.20951172 41.65609375 -51 41 C-50.76313477 40.34515625 -50.52626953 39.6903125 -50.28222656 39.015625 C-50.01635742 38.35046875 -49.75048828 37.6853125 -49.4765625 37 C-49.18362305 36.33033203 -48.89068359 35.66066406 -48.58886719 34.97070312 C-48.27079102 34.29974609 -47.95271484 33.62878906 -47.625 32.9375 C-47.28629883 32.26912109 -46.94759766 31.60074219 -46.59863281 30.91210938 C-46.05094238 29.91920898 -46.05094238 29.91920898 -45.4921875 28.90625 C-45.09870117 28.25398438 -44.70521484 27.60171875 -44.29980469 26.9296875 C-43.87086914 26.29289062 -43.44193359 25.65609375 -43 25 C-42.52208008 24.38640625 -42.04416016 23.7728125 -41.55175781 23.140625 C-41.04225586 22.54765625 -40.53275391 21.9546875 -40.0078125 21.34375 C-39.47841064 20.77140625 -38.94900879 20.1990625 -38.40356445 19.609375 C-37.85788818 19.05765625 -37.31221191 18.5059375 -36.75 17.9375 C-35.91505005 17.13699219 -35.91505005 17.13699219 -35.06323242 16.3203125 C-34.50224854 15.81242187 -33.94126465 15.30453125 -33.36328125 14.78125 C-32.52144287 14.06388672 -32.52144287 14.06388672 -31.66259766 13.33203125 C-31.11394043 12.89246094 -30.5652832 12.45289062 -30 12 C-29.48356934 11.61457031 -28.96713867 11.22914062 -28.43505859 10.83203125 C-27.93441895 10.48527344 -27.4337793 10.13851562 -26.91796875 9.78125 C-26.42345215 9.46373779 -25.92893555 9.14622559 -25.41943359 8.8190918 C-24.93039551 8.5281665 -24.44135742 8.23724121 -23.9375 7.9375 C-22.96425781 7.41800781 -21.99101563 6.89851563 -20.98828125 6.36328125 C-20.00214844 5.91339844 -19.01601562 5.46351562 -18 5 C-16.94167969 4.58105469 -15.88335937 4.16210938 -14.79296875 3.73046875 C-13.74753906 3.36566406 -12.70210937 3.00085938 -11.625 2.625 C-10.68914062 2.32851562 -9.75328125 2.03203125 -8.7890625 1.7265625 C-7.86867187 1.48679687 -6.94828125 1.24703125 -6 1 C-4.56720703 0.71189453 -4.56720703 0.71189453 -3.10546875 0.41796875 C-2.08066406 0.28003906 -1.05585937 0.14210938 0 0 Z M1 44 C0.03707031 44.40025391 0.03707031 44.40025391 -0.9453125 44.80859375 C-1.45835938 45.18113281 -1.97140625 45.55367187 -2.5 45.9375 C-2.94472656 46.39640625 -3.38945313 46.8553125 -3.84765625 47.328125 C-4.41806641 48.15570313 -4.41806641 48.15570313 -5 49 C-5.34933594 49.65484375 -5.69867188 50.3096875 -6.05859375 50.984375 C-6.34863281 51.71140625 -6.63867188 52.4384375 -6.9375 53.1875 C-7.26041016 54.34765625 -7.26041016 54.34765625 -7.58984375 55.53125 C-7.72519531 56.3459375 -7.86054687 57.160625 -8 58 C-8.04253906 58.8559375 -8.08507812 59.711875 -8.12890625 60.59375 C-8.08636719 61.4496875 -8.04382813 62.305625 -8 63.1875 C-7.88398437 64.01507813 -7.76796875 64.84265625 -7.6484375 65.6953125 C-7.43445313 66.45585937 -7.22046875 67.21640625 -7 68 C-6.64164063 68.63679688 -6.28328125 69.27359375 -5.9140625 69.9296875 C-5.48867187 70.46851563 -5.06328125 71.00734375 -4.625 71.5625 C-4.20476562 72.01753906 -3.78453125 72.47257812 -3.3515625 72.94140625 C-2.90554687 73.29074219 -2.45953125 73.64007813 -2 74 C-1.01 74.33 -0.02 74.66 1 75 C1.66515625 75.10183594 2.3303125 75.20367187 3.015625 75.30859375 C3.75296875 75.35113281 4.4903125 75.39367187 5.25 75.4375 C6.04019531 75.4271875 6.83039063 75.416875 7.64453125 75.40625 C8.42183594 75.2721875 9.19914062 75.138125 10 75 C10.68449219 74.6390625 11.36898437 74.278125 12.07421875 73.90625 C12.68910156 73.4215625 13.30398437 72.936875 13.9375 72.4375 C14.494375 71.88578125 15.05125 71.3340625 15.625 70.765625 C16.07875 70.18296875 16.5325 69.6003125 17 69 C17.28875 68.45859375 17.5775 67.9171875 17.875 67.359375 C18.060625 66.80765625 18.24625 66.2559375 18.4375 65.6875 C18.55351562 65.10484375 18.66953125 64.5221875 18.7890625 63.921875 C18.85867187 63.28765625 18.92828125 62.6534375 19 62 C19.06960937 61.26265625 19.13921875 60.5253125 19.2109375 59.765625 C19.24445313 58.99734375 19.27796875 58.2290625 19.3125 57.4375 C19.28349609 56.30248047 19.28349609 56.30248047 19.25390625 55.14453125 C19.12822266 54.08298828 19.12822266 54.08298828 19 53 C18.73509766 52.10861328 18.73509766 52.10861328 18.46484375 51.19921875 C18.22894531 50.67972656 17.99304688 50.16023438 17.75 49.625 C17.1725 48.75875 16.595 47.8925 16 47 C15.41476563 46.46117187 14.82953125 45.92234375 14.2265625 45.3671875 C13.49179688 44.91601562 12.75703125 44.46484375 12 44 C11.14664063 43.8453125 10.29328125 43.690625 9.4140625 43.53125 C8.49367188 43.5209375 7.57328125 43.510625 6.625 43.5 C5.65820312 43.53222656 4.69140625 43.56445312 3.6953125 43.59765625 C2.36113281 43.79681641 2.36113281 43.79681641 1 44 Z " transform="translate(120,70)" style="fill: #C7BBEC;"/>
</svg>
