<svg fill="#FCE4C0" xmlns="http://www.w3.org/2000/svg" width="16" height="16" viewBox="0 0 256 256">
<path d="M0 0 C0.80638916 0.44657959 1.61277832 0.89315918 2.44360352 1.35327148 C3.34884766 1.85068848 4.2540918 2.34810547 5.18676758 2.8605957 C6.1390625 3.39313965 7.09135742 3.92568359 8.07250977 4.47436523 C9.05445313 5.01722168 10.03639648 5.56007813 11.0480957 6.11938477 C13.91527094 7.70833656 16.77646042 9.30745591 19.63500977 10.91186523 C20.37187012 11.3251709 21.10873047 11.73847656 21.86791992 12.16430664 C27.56927013 15.37246191 33.22570607 18.64909638 38.82250977 22.03686523 C42.04648381 23.98691156 45.3016817 25.84546468 48.61547852 27.63842773 C55.01460799 31.11466968 61.39027349 34.63209202 67.76000977 38.16186523 C69.40356445 39.0687207 69.40356445 39.0687207 71.08032227 39.99389648 C73.30487266 41.2271831 75.51388873 42.48897862 77.70507812 43.78060913 C80.40232326 45.31972269 83.06885125 46.48884162 85.98046875 47.56265259 C90.88914914 49.56553933 95.23412239 51.74143606 98.63500977 55.91186523 C101.85416119 64.1838113 100.92808435 73.70848809 100.75219727 82.41967773 C100.75349188 85.03181814 100.76042599 87.64396128 100.7727356 90.256073 C100.78532233 95.71963542 100.72941182 101.17921299 100.6315918 106.6418457 C100.51958832 112.94121266 100.51451733 119.23378566 100.56697166 125.5337764 C100.61531797 131.61842379 100.58937666 137.70022839 100.5303688 143.78475571 C100.51167539 146.36262223 100.5110846 148.94068722 100.52910995 151.5185585 C100.60615259 171.04595865 100.60615259 171.04595865 97.37546539 175.74315643 C93.95244815 178.98331424 90.07799551 180.41357474 85.63500977 181.91186523 C83.45576631 182.99099749 81.28686295 184.09160033 79.13500977 185.22436523 C77.72735352 185.89918945 77.72735352 185.89918945 76.29125977 186.58764648 C72.7804638 188.33788153 69.49557123 190.36784788 66.18188477 192.46264648 C57.9114388 197.67210337 49.4138932 202.43858484 40.87475586 207.19189453 C32.38807215 211.91893338 23.94048896 216.71045385 15.51000977 221.53686523 C14.91332489 221.87838623 14.31664001 222.21990723 13.70187378 222.57177734 C11.98935351 223.55210374 10.27702242 224.53276059 8.56469727 225.51342773 C7.52667969 226.10414063 6.48866211 226.69485352 5.41918945 227.3034668 C3.73812 228.27460723 2.06807462 229.2657308 0.42114258 230.29370117 C-3.89775638 232.97210588 -3.89775638 232.97210588 -6.22070312 232.67260742 C-8.83941752 231.74354969 -11.17419289 230.53937623 -13.61889648 229.21655273 C-14.63918945 228.66483398 -15.65948242 228.11311523 -16.71069336 227.54467773 C-17.77223633 226.96459961 -18.8337793 226.38452148 -19.92749023 225.78686523 C-20.96196289 225.22999023 -21.99643555 224.67311523 -23.06225586 224.09936523 C-29.09414541 220.82091806 -34.90758195 217.32939652 -40.66967773 213.60009766 C-44.21515099 211.37935965 -47.86939165 209.40571121 -51.5559082 207.4309082 C-56.57321159 204.71774449 -61.49319418 201.83486529 -66.42749023 198.97436523 C-68.11958103 197.99547279 -69.81167356 197.01658333 -71.50386047 196.03785706 C-72.67005015 195.36326065 -73.83613639 194.68848538 -75.00212097 194.01353455 C-79.24199482 191.55952092 -83.4861254 189.11298307 -87.73217773 186.66967773 C-88.92872197 185.98081343 -90.12525533 185.29193024 -91.32177734 184.60302734 C-93.60596771 183.28790189 -95.89072137 181.97377213 -98.17578125 180.66015625 C-99.7215686 179.76961548 -99.7215686 179.76961548 -101.29858398 178.86108398 C-102.20664795 178.33861084 -103.11471191 177.8161377 -104.05029297 177.27783203 C-105.85625224 176.21208558 -107.62020152 175.07505771 -109.36499023 173.91186523 C-109.76206684 171.83967972 -109.76206684 171.83967972 -109.79304504 169.23199463 C-109.81162064 168.24504608 -109.83019623 167.25809753 -109.84933472 166.24124146 C-109.85425934 165.15447113 -109.85918396 164.06770081 -109.86425781 162.94799805 C-109.88075882 161.80642242 -109.89725983 160.6648468 -109.91426086 159.48867798 C-109.96333177 155.69741007 -109.98852076 151.90651222 -110.00952148 148.11499023 C-110.01925177 146.82247093 -110.02898205 145.52995163 -110.03900719 144.19826508 C-110.08464424 138.06332665 -110.11897548 131.92856167 -110.13502294 125.79347539 C-110.15374743 118.71441869 -110.21511015 111.63743273 -110.31352502 104.55904508 C-110.39584224 98.42616118 -110.42306055 92.29413657 -110.43057823 86.16072845 C-110.44151439 83.553105 -110.46923864 80.94549637 -110.51398659 78.33823395 C-110.57239329 74.68829699 -110.56780685 71.04354455 -110.54785156 67.39331055 C-110.57909119 66.31463715 -110.61033081 65.23596375 -110.64251709 64.12460327 C-110.58725048 61.07359685 -110.44728054 58.76824403 -109.36499023 55.91186523 C-106.32786993 53.17732258 -103.08442549 51.54832037 -99.36499023 49.91186523 C-98.38353027 49.36079102 -97.40207031 48.8097168 -96.39086914 48.24194336 C-95.59084473 47.81333008 -94.79082031 47.3847168 -93.96655273 46.94311523 C-88.19148151 43.82364499 -82.46352308 40.62473759 -76.73999023 37.41186523 C-74.55250687 36.18527307 -72.36500634 34.95871151 -70.17749023 33.73217773 C-69.06116211 33.10601562 -67.94483398 32.47985352 -66.79467773 31.8347168 C-63.33989688 29.89779667 -59.88390924 27.96304791 -56.42749023 26.02905273 C-55.30681152 25.40192383 -54.18613281 24.77479492 -53.03149414 24.12866211 C-50.88803773 22.92926772 -48.7444878 21.73004042 -46.60083008 20.53100586 C-41.50879374 17.68074125 -36.42631355 14.81630501 -31.36499023 11.91186523 C-30.24350586 11.27893555 -29.12202148 10.64600586 -27.96655273 9.99389648 C-25.3203933 8.4846548 -22.72524742 6.90731722 -20.13842773 5.29858398 C-19.41655273 4.85579102 -18.69467773 4.41299805 -17.95092773 3.95678711 C-16.46254846 3.04298535 -14.98083038 2.11825431 -13.50561523 1.18334961 C-12.78631836 0.74700195 -12.06702148 0.3106543 -11.32592773 -0.13891602 C-10.68445801 -0.53763916 -10.04298828 -0.9363623 -9.38208008 -1.34716797 C-5.89315571 -2.62880504 -3.2662612 -1.50281059 0 0 Z M-11.72827148 11.77124023 C-12.83203125 12.38628418 -13.93579102 13.00132813 -15.07299805 13.63500977 C-16.27458685 14.31046568 -17.47608201 14.98608818 -18.67749023 15.66186523 C-19.91139773 16.35206053 -21.14544852 17.04199972 -22.37963867 17.73168945 C-31.34999989 22.75138029 -40.28289065 27.83600593 -49.19702148 32.95483398 C-52.78945223 35.01561355 -56.39169646 37.05782397 -60.00170898 39.08764648 C-60.96947266 39.63211426 -61.93723633 40.17658203 -62.93432617 40.73754883 C-64.72944742 41.74634951 -66.52552025 42.75346086 -68.32299805 43.75805664 C-70.09819889 44.75631547 -71.85772459 45.78284069 -73.60255432 46.83328247 C-76.55726873 48.54761359 -79.59630973 49.89457219 -82.73100281 51.24859619 C-93.31381353 55.93920238 -93.31381353 55.93920238 -100.60199547 64.45561409 C-102.4607797 71.73270836 -101.89218503 79.15568446 -101.51342773 86.58764648 C-101.47233216 88.96788576 -101.44104546 91.3483127 -101.4190979 93.72880554 C-101.33555079 99.95975382 -101.11997667 106.17920191 -100.87561035 112.40563965 C-100.64948855 118.7726679 -100.54985979 125.14157859 -100.43920898 131.51147461 C-100.20409111 143.98329354 -99.82927319 156.4466193 -99.36499023 168.91186523 C-98.67050781 169.29930908 -97.97602539 169.68675293 -97.26049805 170.0859375 C-94.04466841 171.88089983 -90.82982672 173.6776248 -87.61499023 175.47436523 C-86.5231543 176.08344727 -85.43131836 176.6925293 -84.30639648 177.32006836 C-76.94421989 181.43678841 -69.63697654 185.63802082 -62.36499023 189.91186523 C-53.11216261 195.33935758 -43.79777782 200.64163214 -34.4128418 205.83764648 C-29.47041106 208.5804842 -24.57090776 211.36438908 -19.74389648 214.30639648 C-18.43932495 215.09397339 -18.43932495 215.09397339 -17.10839844 215.89746094 C-15.49196603 216.87922244 -13.8843177 217.87565413 -12.28759766 218.88916016 C-11.21989136 219.53461792 -11.21989136 219.53461792 -10.13061523 220.19311523 C-9.2145752 220.76642578 -9.2145752 220.76642578 -8.2800293 221.35131836 C-4.74210257 222.38689712 -1.98924398 220.23636664 1.11669922 218.62182617 C1.98512451 218.13488281 2.8535498 217.64793945 3.74829102 217.14624023 C5.23039062 216.31672852 5.23039062 216.31672852 6.74243164 215.47045898 C7.80010742 214.87362305 8.8577832 214.27678711 9.94750977 213.66186523 C11.05545898 213.03924805 12.1634082 212.41663086 13.30493164 211.77514648 C21.78477014 206.99411445 30.19756994 202.10288897 38.59326172 197.17578125 C48.71434789 191.24976628 58.94956979 185.53361868 69.19750977 179.83073425 C73.14378633 177.62785779 77.08327826 175.41311718 81.02172852 173.19628906 C81.75693726 172.78259315 82.492146 172.36889725 83.24963379 171.9426651 C85.04482062 170.93250778 86.83992385 169.92220187 88.63500977 168.91186523 C89.02953274 155.13455659 89.33126104 141.35859798 89.51581669 127.57678413 C89.60441676 121.17635259 89.7244758 114.77979376 89.91748047 108.3815918 C90.10271463 102.20204831 90.20393468 96.02621824 90.2479229 89.8441124 C90.27924927 87.49052303 90.34043651 85.13712937 90.43242073 82.78512955 C91.37418634 70.69830319 91.37418634 70.69830319 86.98826981 59.96455765 C82.96397851 56.6775633 78.54184721 54.60405811 73.71793938 52.74860382 C70.70685791 51.53901515 68.03292973 49.95007965 65.24438477 48.29467773 C63.2921843 47.20707908 61.33905507 46.12114586 59.38500977 45.03686523 C51.61056223 40.70356661 43.85464193 36.34210115 36.13500977 31.91186523 C27.09165661 26.72275332 18.00125355 21.62017626 8.89477539 16.54272461 C7.89124023 15.98262695 6.88770508 15.4225293 5.85375977 14.84545898 C4.96624023 14.35102295 4.0787207 13.85658691 3.16430664 13.34716797 C1.39887353 12.3453358 -0.34342729 11.30211076 -2.06616211 10.22851562 C-6.12185816 7.90562174 -7.86037655 9.60792164 -11.72827148 11.77124023 Z " transform="translate(132.364990234375,14.088134765625)" style="fill: #C7BEE9;"/>
<path d="M0 0 C1.13462252 0.00081715 1.13462252 0.00081715 2.29216671 0.00165081 C3.59410976 -0.00464092 3.59410976 -0.00464092 4.9223547 -0.01105976 C5.87671917 -0.00544025 6.83108364 0.00017925 7.81436825 0.00596905 C8.81767178 0.0040707 9.8209753 0.00217236 10.85468197 0.00021648 C14.18303813 -0.00349921 17.51117785 0.00722353 20.83951473 0.01842022 C23.14354584 0.01961159 25.44757744 0.02006527 27.75160885 0.01980877 C32.58457121 0.02137496 37.41745964 0.02967558 42.2504034 0.04307842 C48.46062396 0.06007794 54.67076324 0.06389258 60.88100433 0.06313324 C65.63946471 0.06340451 70.39790715 0.06887864 75.15636158 0.07613468 C77.44701597 0.07932767 79.7376724 0.08129022 82.0283289 0.08202839 C85.22266929 0.08418476 88.41692162 0.09291343 91.61124325 0.1036253 C93.0458263 0.10294552 93.0458263 0.10294552 94.50939083 0.10225201 C95.37453304 0.10651699 96.23967525 0.11078197 97.1310339 0.1151762 C98.26509088 0.11768997 98.26509088 0.11768997 99.42205811 0.12025452 C101.14810848 0.24888897 101.14810848 0.24888897 102.14810848 1.24888897 C102.24670979 2.65237632 102.27889785 4.06069374 102.28092098 5.46763897 C102.28221004 6.31713116 102.28349911 7.16662334 102.28482723 8.04185772 C102.28096004 8.93517803 102.27709286 9.82849834 102.27310848 10.74888897 C102.27697567 11.64220928 102.28084286 12.53552959 102.28482723 13.45592022 C102.28353817 14.30541241 102.28224911 15.15490459 102.28092098 16.03013897 C102.27979305 16.8145335 102.27866512 17.59892803 102.27750301 18.40709209 C102.14810848 20.24888897 102.14810848 20.24888897 101.14810848 21.24888897 C99.79703528 21.34635208 98.44092476 21.37520476 97.0863409 21.37587261 C96.21133938 21.37869244 95.33633785 21.38151226 94.43482113 21.38441753 C92.9838554 21.38138119 92.9838554 21.38138119 91.50357723 21.3782835 C90.49066616 21.38003582 89.47775509 21.38178814 88.43414974 21.38359356 C85.06795217 21.38801419 81.70180664 21.38507334 78.33560848 21.38170147 C76.00772752 21.38237445 73.67984663 21.38334442 71.3519659 21.38460064 C66.46597279 21.3860779 61.57999792 21.38392215 56.69400692 21.37926006 C50.41538192 21.37356277 44.13679966 21.37684162 37.85817623 21.38283253 C33.04910615 21.38643738 28.24004629 21.3852999 23.43097591 21.38270473 C21.11520031 21.38203526 18.79942379 21.38286461 16.48364925 21.38518429 C13.25328757 21.38770958 10.02299615 21.38387196 6.79263973 21.3782835 C5.82532925 21.38030773 4.85801876 21.38233196 3.86139584 21.38441753 C2.98639431 21.38159771 2.11139278 21.37877789 1.20987606 21.37587261 C0.44516491 21.37549559 -0.31954624 21.37511856 -1.10743046 21.37473011 C-2.85189152 21.24888897 -2.85189152 21.24888897 -3.85189152 20.24888897 C-3.97856916 17.25870736 -4.0370999 14.30194789 -4.03939152 11.31138897 C-4.05163761 10.47414288 -4.06388371 9.63689678 -4.07650089 8.77427959 C-4.07843449 7.97312725 -4.08036808 7.17197491 -4.08236027 6.34654522 C-4.08646915 5.60928204 -4.09057804 4.87201885 -4.09481144 4.11241436 C-3.74276817 1.41176483 -2.70065821 0.36296081 0 0 Z " transform="translate(77.85189151763916,121.75111103057861)" style="fill: #C7BDEB;"/>
<path d="M0 0 C1.31250229 -0.00422974 1.31250229 -0.00422974 2.65151978 -0.00854492 C4.1024855 -0.00550858 4.1024855 -0.00550858 5.58276367 -0.00241089 C6.59567474 -0.00416321 7.60858582 -0.00591553 8.65219116 -0.00772095 C12.01838874 -0.01214158 15.38453426 -0.00920073 18.75073242 -0.00582886 C21.07861338 -0.00650184 23.40649428 -0.00747181 25.734375 -0.00872803 C30.62036811 -0.01020529 35.50634299 -0.00804954 40.39233398 -0.00338745 C46.67095898 0.00230985 52.94954124 -0.00096901 59.22816467 -0.00695992 C64.03723475 -0.01056477 68.84629461 -0.00942729 73.65536499 -0.00683212 C75.97114059 -0.00616264 78.28691711 -0.006992 80.60269165 -0.00931168 C83.83305334 -0.01183696 87.06334475 -0.00799935 90.29370117 -0.00241089 C91.26101166 -0.00443512 92.22832214 -0.00645935 93.22494507 -0.00854492 C94.09994659 -0.0057251 94.97494812 -0.00290527 95.87646484 0 C96.64117599 0.00037703 97.40588715 0.00075405 98.19377136 0.0011425 C99.93823242 0.12698364 99.93823242 0.12698364 100.93823242 1.12698364 C101.03683373 2.530471 101.06902179 3.93878841 101.07104492 5.34573364 C101.07233398 6.19522583 101.07362305 7.04471802 101.07495117 7.91995239 C101.07108398 8.81327271 101.0672168 9.70659302 101.06323242 10.62698364 C101.06709961 11.52030396 101.0709668 12.41362427 101.07495117 13.33401489 C101.07366211 14.18350708 101.07237305 15.03299927 101.07104492 15.90823364 C101.06991699 16.69262817 101.06878906 17.47702271 101.06762695 18.28518677 C100.93823242 20.12698364 100.93823242 20.12698364 99.93823242 21.12698364 C98.60217109 21.22655404 97.260921 21.25772667 95.92115784 21.26069641 C95.05601562 21.2649614 94.19087341 21.26922638 93.29951477 21.27362061 C92.34312607 21.27316742 91.38673737 21.27271423 90.40136719 21.27224731 C88.89904037 21.27728523 88.89904037 21.27728523 87.36636353 21.28242493 C84.03744282 21.29196662 80.70857223 21.29387963 77.37963867 21.29495239 C75.07657347 21.29816268 72.77350848 21.30152657 70.47044373 21.30503845 C65.6357272 21.31103775 60.80102858 21.31287753 55.96630859 21.31228638 C49.75725201 21.3121847 43.54830962 21.32583954 37.33928013 21.34305859 C32.58077971 21.35415205 27.82230712 21.35620641 23.06379509 21.35567665 C20.77396183 21.35686068 18.48412794 21.36130595 16.19430733 21.36900902 C12.99761984 21.37875572 9.80118331 21.37595201 6.60449219 21.36990356 C5.65012772 21.37552307 4.69576324 21.38114258 3.71247864 21.38693237 C2.8445166 21.38273788 1.97655457 21.3785434 1.08229065 21.3742218 C0.32587564 21.37476657 -0.43053938 21.37531134 -1.20987606 21.37587261 C-3.06176758 21.12698364 -3.06176758 21.12698364 -5.06176758 19.12698364 C-5.3046875 17.26345825 -5.3046875 17.26345825 -5.29223633 15.02932739 C-5.29030273 14.22817505 -5.28836914 13.42702271 -5.28637695 12.60159302 C-5.27413086 11.76434692 -5.26188477 10.92710083 -5.24926758 10.06448364 C-5.24862305 9.22337036 -5.24797852 8.38225708 -5.24731445 7.51565552 C-5.19282786 0.00256022 -5.19282786 0.00256022 0 0 Z " transform="translate(79.061767578125,84.87301635742188)" style="fill: #C6BBEA;"/>
<path d="M0 0 C1.31250229 -0.00422974 1.31250229 -0.00422974 2.65151978 -0.00854492 C4.1024855 -0.00550858 4.1024855 -0.00550858 5.58276367 -0.00241089 C6.59567474 -0.00416321 7.60858582 -0.00591553 8.65219116 -0.00772095 C12.01838874 -0.01214158 15.38453426 -0.00920073 18.75073242 -0.00582886 C21.07861338 -0.00650184 23.40649428 -0.00747181 25.734375 -0.00872803 C30.62036811 -0.01020529 35.50634299 -0.00804954 40.39233398 -0.00338745 C46.67095898 0.00230985 52.94954124 -0.00096901 59.22816467 -0.00695992 C64.03723475 -0.01056477 68.84629461 -0.00942729 73.65536499 -0.00683212 C75.97114059 -0.00616264 78.28691711 -0.006992 80.60269165 -0.00931168 C83.83305334 -0.01183696 87.06334475 -0.00799935 90.29370117 -0.00241089 C91.26101166 -0.00443512 92.22832214 -0.00645935 93.22494507 -0.00854492 C94.09994659 -0.0057251 94.97494812 -0.00290527 95.87646484 0 C96.64117599 0.00037703 97.40588715 0.00075405 98.19377136 0.0011425 C99.93823242 0.12698364 99.93823242 0.12698364 100.93823242 1.12698364 C101.02474853 2.54268487 101.04528146 3.96257865 101.03588867 5.38088989 C101.03105469 6.66189575 101.03105469 6.66189575 101.02612305 7.96878052 C101.01355469 9.31552856 101.01355469 9.31552856 101.00073242 10.68948364 C100.9962207 11.59118286 100.99170898 12.49288208 100.98706055 13.42190552 C100.97523467 15.65699678 100.95875462 17.89195801 100.93823242 20.12698364 C98.65129326 21.27045322 97.38032788 21.25500047 94.83886719 21.26069641 C93.5517131 21.26709389 93.5517131 21.26709389 92.23855591 21.27362061 C91.29511322 21.27316742 90.35167053 21.27271423 89.37963867 21.27224731 C88.38769501 21.27560593 87.39575134 21.27896454 86.37374878 21.28242493 C83.08273072 21.29195279 79.79176343 21.29387885 76.50073242 21.29495239 C74.22151671 21.2981633 71.94230121 21.30152724 69.66308594 21.30503845 C64.88142417 21.31103404 60.0997805 21.31287787 55.31811523 21.31228638 C49.1774681 21.31218464 43.03693629 21.3258469 36.89631653 21.34305859 C32.1884304 21.35415122 27.48057242 21.35620644 22.77267456 21.35567665 C20.50796104 21.35686052 18.24324687 21.36130491 15.97854614 21.36900902 C12.81788944 21.37875535 9.65748656 21.37595232 6.49682617 21.36990356 C5.08166214 21.37833282 5.08166214 21.37833282 3.63790894 21.38693237 C2.77980621 21.38273788 1.92170349 21.3785434 1.03759766 21.3742218 C0.2898558 21.37476657 -0.45788605 21.37531134 -1.22828674 21.37587261 C-3.06176758 21.12698364 -3.06176758 21.12698364 -5.06176758 19.12698364 C-5.3046875 17.26345825 -5.3046875 17.26345825 -5.29223633 15.02932739 C-5.29030273 14.22817505 -5.28836914 13.42702271 -5.28637695 12.60159302 C-5.27413086 11.76434692 -5.26188477 10.92710083 -5.24926758 10.06448364 C-5.24862305 9.22337036 -5.24797852 8.38225708 -5.24731445 7.51565552 C-5.19282786 0.00256022 -5.19282786 0.00256022 0 0 Z " transform="translate(79.061767578125,159.87301635742188)" style="fill: #C7BDEB;"/>
</svg>
