<svg fill="#DCE2E5" xmlns="http://www.w3.org/2000/svg" width="16" height="16" viewBox="0 0 256 256">
<path d="M0 0 C2.85900492 1.29491335 5.61342609 2.76024128 8.375 4.25 C9.20370605 4.69110107 10.03241211 5.13220215 10.88623047 5.58666992 C18.33466316 9.57922349 25.6693427 13.76743459 33.00708008 17.95874023 C41.32010576 22.67929937 49.77501499 27.09342861 58.27563477 31.46484375 C64.86997514 34.86408467 71.31804073 38.4155541 77.72265625 42.16015625 C82.22759712 44.68915166 86.84420924 46.97126189 91.49829102 49.2121582 C92.12791748 49.51855225 92.75754395 49.82494629 93.40625 50.140625 C93.95603516 50.40391602 94.50582031 50.66720703 95.07226562 50.93847656 C95.70841797 51.2887793 96.34457031 51.63908203 97 52 C98.01276505 52.46054779 99.02553009 52.92109558 100.06898499 53.39559937 C103.30925697 56.27479527 103.44999162 56.66349383 103.78208923 60.7305603 C103.82694752 62.73056379 103.83836995 64.7314789 103.82397461 66.73193359 C103.8469738 68.37158333 103.8469738 68.37158333 103.87043762 70.0443573 C103.91218637 73.66288336 103.90925192 77.27969904 103.90234375 80.8984375 C103.91400206 83.41184122 103.92700554 85.92523904 103.94129944 88.43862915 C103.96369908 93.70955987 103.9632184 98.98004712 103.94702148 104.25097656 C103.92890812 110.33656787 103.96581278 116.42007726 104.02973169 122.50531328 C104.08903007 128.36703668 104.09809228 134.22794651 104.08752632 140.08992386 C104.08906693 142.5802461 104.10479916 145.07060138 104.13496208 147.56074142 C104.1719859 151.04521643 104.1517427 154.52487937 104.11694336 158.00927734 C104.15134018 159.55244377 104.15134018 159.55244377 104.18643188 161.12678528 C104.03535982 167.97050509 104.03535982 167.97050509 101.0507679 170.93819046 C98.75820263 172.4915822 96.48230372 173.77738205 94 175 C92.77704696 175.68436574 91.55436662 176.36921916 90.33203125 177.0546875 C88.58986328 177.95574219 88.58986328 177.95574219 86.8125 178.875 C81.74679588 181.5203734 76.754337 184.25497012 71.8125 187.125 C67.75108364 189.47705471 63.66273232 191.70321607 59.4375 193.75 C51.72929181 197.52122014 44.35920403 201.89330021 36.92578125 206.171875 C30.43643996 209.90650248 23.86666945 213.4747299 17.2578125 216.9921875 C16.26370361 217.52150879 16.26370361 217.52150879 15.24951172 218.06152344 C13.96282351 218.74587189 12.67544267 219.4289205 11.38720703 220.11035156 C10.79020996 220.42713867 10.19321289 220.74392578 9.578125 221.0703125 C8.98580078 221.38129883 8.39347656 221.69228516 7.78320312 222.01269531 C6.56425171 222.68759119 5.3700545 223.408678 4.20117188 224.16699219 C1.36522648 225.98031622 -0.56095814 226.99826237 -3.9609375 227.01171875 C-7.83518653 225.72196233 -11.12854012 223.89887191 -14.625 221.8125 C-16.04687362 220.98733319 -17.47006285 220.16442938 -18.89453125 219.34375 C-19.59143066 218.9415625 -20.28833008 218.539375 -21.00634766 218.125 C-24.55039082 216.12512847 -28.19943535 214.34943011 -31.86328125 212.58203125 C-35.61308756 210.69078398 -39.2865768 208.67575228 -42.96899414 206.65698242 C-46.01500868 204.99179509 -49.07005258 203.34459643 -52.12890625 201.703125 C-83.95289517 184.62426729 -83.95289517 184.62426729 -99.5 175.46875 C-101.71772749 174.1658351 -103.94768735 172.88941037 -106.1875 171.625 C-109 170 -109 170 -110 169 C-110.10857471 167.55690048 -110.14848113 166.10856518 -110.16062927 164.66143799 C-110.1706749 163.72490387 -110.18072052 162.78836975 -110.19107056 161.82345581 C-110.19690155 160.7876236 -110.20273254 159.75179138 -110.20874023 158.68457031 C-110.21852402 157.60005585 -110.2283078 156.51554138 -110.23838806 155.39816284 C-110.2684232 151.79149621 -110.28975007 148.18486686 -110.30859375 144.578125 C-110.31516558 143.34963585 -110.3217374 142.1211467 -110.32850838 140.8554306 C-110.35776842 135.02431964 -110.38168431 129.19322442 -110.3989405 123.36206555 C-110.41928907 116.62997107 -110.46313985 109.89854814 -110.52644199 103.16672444 C-110.57939323 97.33775764 -110.59948775 91.5090166 -110.60820198 85.67983246 C-110.616781 83.19984047 -110.63565864 80.71986227 -110.6649456 78.24002838 C-110.70371456 74.77044301 -110.70491274 71.30275711 -110.69702148 67.83300781 C-110.71702209 66.80527252 -110.73702271 65.77753723 -110.75762939 64.71865845 C-110.68819463 57.92920088 -110.68819463 57.92920088 -108.72899055 55.28388214 C-105.33184238 52.36685377 -101.27340303 50.46439248 -97.25 48.5625 C-78.33102778 39.40991863 -60.01275005 28.98391723 -41.68847656 18.703125 C-33.41346653 14.06229463 -25.15810515 9.46064654 -16.6171875 5.3203125 C-13.31199757 3.65291818 -10.16638817 1.75801336 -7.03515625 -0.21484375 C-4.18542281 -1.31426107 -2.92010786 -0.94316601 0 0 Z M-11.6796875 13.1640625 C-12.64035881 13.67900269 -12.64035881 13.67900269 -13.62043762 14.2043457 C-15.71304895 15.33084921 -17.79382039 16.47753496 -19.875 17.625 C-21.33121148 18.41431161 -22.78800427 19.20255165 -24.24536133 19.98974609 C-33.35831265 24.92883093 -42.38773817 30.01232142 -51.37939453 35.16870117 C-60.41246682 40.31425446 -69.63855819 45.07032643 -78.89331055 49.80126953 C-80.04742432 50.39149902 -81.20153809 50.98172852 -82.390625 51.58984375 C-83.40157227 52.10409912 -84.41251953 52.61835449 -85.45410156 53.14819336 C-90.35142464 55.67379141 -95.16936383 58.34987722 -100 61 C-100.23170911 74.32553299 -100.40938689 87.65058686 -100.51812172 100.97772408 C-100.57031047 107.16621171 -100.6410911 113.35332125 -100.75439453 119.54101562 C-100.86306014 125.51281129 -100.9228435 131.48328184 -100.94877243 137.45598984 C-100.96724898 139.73435206 -101.00333193 142.01264173 -101.05730057 144.29043961 C-101.93616996 156.10723319 -101.93616996 156.10723319 -97.92103577 166.64254761 C-95.29531323 168.25286429 -92.95384538 169.16237324 -90 170 C-88.92903076 170.59538574 -87.85806152 171.19077148 -86.75463867 171.80419922 C-85.8185376 172.29936035 -84.88243652 172.79452148 -83.91796875 173.3046875 C-82.29568359 174.16707031 -82.29568359 174.16707031 -80.640625 175.046875 C-79.50109375 175.65015625 -78.3615625 176.2534375 -77.1875 176.875 C-67.2427532 182.16356672 -57.35028677 187.53764127 -47.5 193 C-37.47774449 198.55541075 -27.41725875 204.03351386 -17.3125 209.4375 C-16.70019531 209.76500244 -16.08789062 210.09250488 -15.45703125 210.42993164 C-9.25804182 213.77175864 -9.25804182 213.77175864 -3 217 C-0.37079035 215.83937229 -0.37079035 215.83937229 2.625 214.08984375 C3.19499222 213.77143524 3.76498444 213.45302673 4.35224915 213.12496948 C5.58912878 212.43294814 6.82398037 211.73729254 8.05703735 211.03848267 C10.68409711 209.54985536 13.32074705 208.07862579 15.95710754 206.60655212 C17.31386377 205.8488424 18.67013112 205.0902567 20.02592468 204.33082581 C26.41719687 200.7538248 32.85668475 197.27178294 39.3125 193.8125 C41.44143372 192.66932199 43.57034013 191.52609312 45.69921875 190.3828125 C46.73868652 189.8249707 47.7781543 189.26712891 48.84912109 188.69238281 C61.08580609 182.11988162 73.32255714 175.54507152 85.4375 168.75 C86.10023926 168.3789917 86.76297852 168.0079834 87.44580078 167.62573242 C90.40077273 166.06025878 90.40077273 166.06025878 93 164 C93.09527037 162.65927183 93.1218877 161.31357497 93.12025452 159.96946716 C93.12162918 159.10143463 93.12300385 158.2334021 93.12442017 157.33906555 C93.12082489 156.37953476 93.11722961 155.42000397 93.11352539 154.43139648 C93.11374443 152.92425079 93.11374443 152.92425079 93.1139679 151.38665771 C93.1132683 148.04811483 93.10547374 144.70962695 93.09765625 141.37109375 C93.09579224 139.06323782 93.09436826 136.75538149 93.09336853 134.44752502 C93.08954204 128.35982174 93.07971065 122.27214214 93.06866455 116.18444824 C93.05845323 109.97778646 93.05387151 103.77112087 93.04882812 97.56445312 C93.0380885 85.37629165 93.02101052 73.18814779 93 61 C92.03982719 60.50087601 92.03982719 60.50087601 91.06025696 59.9916687 C88.09823576 58.45119031 85.13700624 56.90919583 82.17578125 55.3671875 C81.16938599 54.84406982 80.16299072 54.32095215 79.12609863 53.78198242 C72.44101859 50.29913493 65.79828315 46.74680717 59.1875 43.125 C58.18227295 42.57473145 57.1770459 42.02446289 56.14135742 41.45751953 C55.34576416 41.02036621 54.5501709 40.58321289 53.73046875 40.1328125 C46.41651579 36.12534132 39.0681032 32.18206518 31.71875 28.23999023 C26.34022572 25.35144894 20.97529013 22.44229591 15.63671875 19.48046875 C14.63318359 18.92552734 13.62964844 18.37058594 12.59570312 17.79882812 C10.7071224 16.75243518 8.82151432 15.70065233 6.93945312 14.64257812 C6.09705078 14.17658203 5.25464844 13.71058594 4.38671875 13.23046875 C3.65670654 12.82207764 2.92669434 12.41368652 2.17456055 11.99291992 C-3.43075043 9.43349478 -6.42687102 10.23026859 -11.6796875 13.1640625 Z " transform="translate(130,17)" style="fill: #CCC3EC;"/>
<path d="M0 0 C3.36448454 1.48006803 5.74003645 3.39133205 8.4375 5.875 C9.31019531 6.67421875 10.18289062 7.4734375 11.08203125 8.296875 C12.04496094 9.18890625 13.00789063 10.0809375 14 11 C15.08712413 12.00533319 16.17436758 13.01053737 17.26171875 14.015625 C18.95059439 15.57678296 20.63923266 17.13818497 22.32641602 18.70117188 C25.14021383 21.30324083 27.97011546 23.87427331 30.875 26.375 C34.95650436 29.93527328 38.99210008 33.54471669 43 37.1875 C43.68433105 37.7944873 44.36866211 38.40147461 45.07373047 39.02685547 C45.70939941 39.60967285 46.34506836 40.19249023 47 40.79296875 C47.5775 41.3139917 48.155 41.83501465 48.75 42.37182617 C50 44 50 44 50 48 C48.6015625 49.60546875 48.6015625 49.60546875 46.625 51.1875 C45.51705078 52.10402344 45.51705078 52.10402344 44.38671875 53.0390625 C43.59910156 53.68617188 42.81148437 54.33328125 42 55 C36.10663848 60.181204 30.35626089 65.51611531 24.625 70.875 C23.98699463 71.47030518 23.34898926 72.06561035 22.69165039 72.67895508 C19.63332327 75.53336788 16.58204759 78.39440963 13.546875 81.2734375 C12.48977865 82.26583309 11.43249751 83.2580319 10.375 84.25 C9.45460937 85.12140625 8.53421875 85.9928125 7.5859375 86.890625 C5.09045862 88.926212 3.04262228 90.01142236 0 91 C-1.29854721 89.92492371 -2.58858361 88.83956264 -3.875 87.75 C-4.59429687 87.14671875 -5.31359375 86.5434375 -6.0546875 85.921875 C-7.97052118 84.02912366 -8.96449045 82.46342273 -10 80 C-9.21302734 79.30390625 -9.21302734 79.30390625 -8.41015625 78.59375 C-2.68429011 73.48715391 2.92343588 68.26873091 8.5 63 C14.591257 57.24498789 20.7226301 51.55246478 27 46 C23.39783605 41.58734916 19.72758713 37.7610445 15.39453125 34.07421875 C12.40993373 31.48886593 9.51856536 28.81134169 6.625 26.125 C1.12962898 21.03049981 -4.41306824 15.99418731 -10 11 C-8.55218207 7.55571735 -6.72305391 5.63869038 -3.875 3.25 C-3.15054688 2.63640625 -2.42609375 2.0228125 -1.6796875 1.390625 C-0.84824219 0.70226562 -0.84824219 0.70226562 0 0 Z " transform="translate(150,87)" style="fill: #C9BFEC;"/>
<path d="M0 0 C5.32697239 1.45281065 8.36402802 5.08111378 12 9 C10.66420352 11.97636205 9.20765397 14.03951858 6.875 16.3125 C6.33617187 16.84488281 5.79734375 17.37726563 5.2421875 17.92578125 C3.29344873 19.72853437 1.31301887 21.4748174 -0.69140625 23.21484375 C-5.17036834 27.11709543 -9.49790652 31.16770149 -13.8125 35.25 C-14.56208984 35.95640625 -15.31167969 36.6628125 -16.08398438 37.390625 C-19.09055061 40.22792075 -22.089818 43.06345867 -25 46 C-24.30777344 46.63164062 -23.61554688 47.26328125 -22.90234375 47.9140625 C-17.02730898 53.2833671 -11.18521464 58.68558726 -5.375 64.125 C0.3549209 69.48774956 6.1355843 74.78411968 12 80 C10.55218207 83.44428265 8.72305391 85.36130962 5.875 87.75 C5.15054688 88.36359375 4.42609375 88.9771875 3.6796875 89.609375 C2.84824219 90.29773438 2.84824219 90.29773438 2 91 C-2.57782964 89.57303689 -5.03107885 87.25538036 -8.3125 83.8125 C-12.02195235 79.94058989 -15.83018794 76.3594047 -19.88745117 72.85424805 C-24.25770574 69.01834334 -28.43109472 64.96715584 -32.64453125 60.9609375 C-33.34964844 60.29320312 -34.05476563 59.62546875 -34.78125 58.9375 C-35.4721875 58.28007812 -36.163125 57.62265625 -36.875 56.9453125 C-39.65314398 54.4020851 -42.579795 52.05487437 -45.54882812 49.73828125 C-47 48 -47 48 -47.31835938 45.41357422 C-46.87657547 42.06428305 -45.59246378 41.2484325 -43 39.125 C-42.08863281 38.35027344 -41.17726563 37.57554688 -40.23828125 36.77734375 C-39.72475098 36.34276855 -39.2112207 35.90819336 -38.68212891 35.46044922 C-35.42714142 32.6344209 -32.3194898 29.64823248 -29.1875 26.6875 C-27.80647685 25.38880457 -26.42496658 24.09062694 -25.04296875 22.79296875 C-24.02662354 21.83849854 -24.02662354 21.83849854 -22.98974609 20.86474609 C-15.43719864 13.78666542 -7.85684446 6.74122002 0 0 Z " transform="translate(100,87)" style="fill: #C8BEEB;"/>
</svg>
