<svg fill="#C7E3F9" xmlns="http://www.w3.org/2000/svg" width="16" height="16" viewBox="0 0 256 256">
<path d="M0 0 C15.38704133 6.78209313 30.10453477 15.655346 44.63671875 24.0859375 C53.29235015 29.01190659 62.09958211 33.66413561 70.88607788 38.35101318 C79.5224613 42.96057621 88.15380722 47.57700046 96.6875 52.375 C97.33356201 52.73762939 97.97962402 53.10025879 98.64526367 53.47387695 C102.86646061 55.86646061 102.86646061 55.86646061 104 57 C104.11302726 58.4809784 104.15735858 59.96726261 104.17408752 61.45245361 C104.19349144 62.89511848 104.19349144 62.89511848 104.21328735 64.3669281 C104.22226044 65.43081253 104.23123352 66.49469696 104.24047852 67.59082031 C104.25347488 68.70459549 104.26647125 69.81837067 104.27986145 70.96589661 C104.39164899 81.24536093 104.45240972 91.52551592 104.49662876 101.80548477 C104.52986976 109.40615707 104.58941258 117.00563733 104.68413979 124.60579801 C104.75622855 130.59177469 104.78458494 136.57719369 104.79795647 142.56362152 C104.81023554 145.11064694 104.83633946 147.65764398 104.87640572 150.20438385 C104.92966323 153.76776991 104.93289421 157.32790399 104.92407227 160.89160156 C104.95126343 161.94738907 104.97845459 163.00317657 105.00646973 164.09095764 C104.91712744 171.07791524 104.91712744 171.07791524 102.29388237 173.71533966 C100.24227921 175.01794143 98.22213828 176.02277124 96 177 C94.69447005 177.73580151 93.39509819 178.48276668 92.10546875 179.24609375 C90.8007228 179.97878153 89.49470728 180.70921262 88.1875 181.4375 C87.49462891 181.82510498 86.80175781 182.21270996 86.08789062 182.61206055 C71.31763991 190.86129348 71.31763991 190.86129348 65.17578125 193.89453125 C61.10079721 195.92247327 57.14104394 198.12133371 53.1875 200.375 C48.60177983 202.97308019 44.01138201 205.55541936 39.375 208.0625 C35.87195357 209.95801989 32.40964147 211.9115864 28.96362305 213.90893555 C22.44576009 217.68347254 15.84005497 221.15155037 9.0703125 224.453125 C6.59276793 225.70135356 4.27811911 227.02064766 1.9375 228.5 C-1.55025345 230.28098049 -2.33506474 230.06200967 -6 229 C-7.96564364 228.08969136 -9.89878391 227.10766287 -11.8046875 226.078125 C-13.49803223 225.16812744 -13.49803223 225.16812744 -15.22558594 224.23974609 C-16.44221153 223.57678036 -17.65867905 222.91352449 -18.875 222.25 C-20.13817488 221.56690287 -21.40152344 220.88412681 -22.66503906 220.20166016 C-31.34809824 215.49916529 -39.96021795 210.67562687 -48.53881836 205.78515625 C-56.45911386 201.27707441 -64.4612666 196.93092132 -72.48413086 192.60864258 C-78.93588934 189.1292995 -85.34970842 185.59217421 -91.7265625 181.97753906 C-96.47155667 179.28820209 -101.25257954 176.6722375 -106.05859375 174.09375 C-108 173 -108 173 -109 172 C-109.11735193 170.52142349 -109.16622492 169.03734846 -109.18754578 167.55427551 C-109.20337204 166.59394409 -109.2191983 165.63361267 -109.23550415 164.6441803 C-109.24761932 163.58186691 -109.2597345 162.51955353 -109.2722168 161.42504883 C-109.28842575 160.31287994 -109.3046347 159.20071106 -109.32133484 158.05484009 C-109.46160552 147.78588642 -109.54111361 137.51605014 -109.60025311 127.2463274 C-109.64481442 119.65436301 -109.72191309 112.06420673 -109.84183758 104.47305089 C-109.9331332 98.49240819 -109.96969134 92.51261742 -109.98771095 86.53125572 C-110.00367842 83.98778356 -110.03698326 81.44435949 -110.08786583 78.90134621 C-110.15571302 75.34002981 -110.16086724 71.78375598 -110.15112305 68.22192383 C-110.18550476 67.1697316 -110.21988647 66.11753937 -110.25531006 65.03346252 C-110.20860985 62.03802412 -110.07417014 59.80017097 -109 57 C-105.96024346 54.28040945 -102.70960759 52.64134584 -99 51 C-98.00613281 50.45214844 -97.01226562 49.90429688 -95.98828125 49.33984375 C-95.10527344 48.87707031 -94.22226563 48.41429687 -93.3125 47.9375 C-85.96193751 44.02186148 -78.72532413 39.91095425 -71.4855957 35.79467773 C-61.58744531 30.17400013 -51.5965773 24.75528961 -41.5 19.5 C-28.59501635 12.77091576 -28.59501635 12.77091576 -15.9296875 5.60546875 C-14.84844604 4.97632568 -14.84844604 4.97632568 -13.74536133 4.33447266 C-12.31713386 3.50223185 -10.8947756 2.65981516 -9.47924805 1.80615234 C-3.98591264 -1.3808105 -3.98591264 -1.3808105 0 0 Z M-8.63671875 12.38671875 C-9.59416992 12.9060498 -10.55162109 13.42538086 -11.53808594 13.96044922 C-12.57739258 14.53037598 -13.61669922 15.10030273 -14.6875 15.6875 C-15.76676758 16.27547363 -16.84603516 16.86344727 -17.95800781 17.46923828 C-26.04125836 21.88781491 -34.05786746 26.41791826 -42.0625 30.97680664 C-50.78117864 35.92098948 -59.6046701 40.660112 -68.45605469 45.36083984 C-78.69807753 50.80563725 -88.83154153 56.40734784 -99 62 C-99 96.65 -99 131.3 -99 167 C-83.28080627 175.67265861 -67.57228286 184.31849228 -51.77734375 192.84375 C-45.87208801 196.05188894 -40.02819514 199.36368978 -34.1875 202.6875 C-30.46203281 204.79827966 -26.73291999 206.90242922 -23 209 C-22.08653809 209.51353027 -21.17307617 210.02706055 -20.23193359 210.55615234 C-17.62186371 212.01275031 -15.00101403 213.44739074 -12.375 214.875 C-11.59922607 215.31030029 -10.82345215 215.74560059 -10.02416992 216.1940918 C-9.30205322 216.58121338 -8.57993652 216.96833496 -7.8359375 217.3671875 C-7.21251465 217.70862793 -6.5890918 218.05006836 -5.94677734 218.40185547 C-2.39646778 219.49268296 0.31621464 218.3148791 3.58935547 216.80761719 C4.50604004 216.30907227 5.42272461 215.81052734 6.3671875 215.296875 C7.40520508 214.73564941 8.44322266 214.17442383 9.51269531 213.59619141 C10.62225586 212.98694824 11.73181641 212.37770508 12.875 211.75 C14.04764766 211.11209247 15.22050244 210.47456556 16.39355469 209.83740234 C24.65447799 205.3382553 32.84160995 200.71202429 41.01098633 196.04907227 C50.33181095 190.75545828 59.79101204 185.72928494 69.27246094 180.73095703 C70.18260201 180.24966591 70.18260201 180.24966591 71.11112976 179.75865173 C72.74693584 178.89397729 74.38426642 178.03218858 76.02172852 177.1706543 C82.06582269 173.87283035 88.02192578 170.41604241 94 167 C94 132.35 94 97.7 94 62 C84.76 57.05 75.52 52.1 66 47 C54.75 40.625 54.75 40.625 49.2109375 37.46875 C38.45171538 31.40621185 27.49368191 25.69829398 16.56542969 19.94790649 C13.43762813 18.29967873 10.3205198 16.63508941 7.21972656 14.93652344 C6.62036285 14.60917206 6.02099915 14.28182068 5.4034729 13.94454956 C3.76660958 13.04833408 2.13247792 12.14713459 0.49853516 11.24560547 C-3.48849415 9.25793462 -4.88064174 10.34232594 -8.63671875 12.38671875 Z " transform="translate(133,12)" style="fill: #CDC5ED;"/>
<path d="M0 0 C2.94484819 2.18219297 3.92476202 4.1215254 5.27807617 7.48608398 C6.85827643 10.40522551 7.58468251 11.62807729 10.76504517 12.70706177 C13.93234292 13.01569017 16.99411635 13.04300185 20.17578125 12.97265625 C21.89646065 12.98684853 21.89646065 12.98684853 23.65190125 13.00132751 C27.31091303 13.0219038 30.96623682 12.98049906 34.625 12.9375 C37.1074303 12.94057452 39.58985912 12.94768806 42.07226562 12.95898438 C48.15310394 12.97782992 54.23208046 12.94581097 60.3125 12.875 C60.44897949 12.09326416 60.58545898 11.31152832 60.72607422 10.50610352 C61.86364018 5.40221161 66.04775388 1.52294416 70.19140625 -1.4921875 C76.05028133 -4.95942675 81.60346404 -5.88959318 88.3125 -5.125 C95.88238342 -2.91343139 102.14286056 1.30559317 106.25 8.0625 C108.04171411 14.49159181 108.50577809 20.93909484 105.8125 27.1875 C102.06470062 33.60478455 95.68755192 37.43899101 88.66796875 39.46875 C81.27330087 40.7441156 74.50075073 39.00510484 68.3125 34.875 C64.87409687 31.89505062 62.3930144 28.92652805 60.3125 24.875 C60.3125 24.215 60.3125 23.555 60.3125 22.875 C53.3825 22.875 46.4525 22.875 39.3125 22.875 C39.8075 43.17 39.8075 43.17 40.3125 63.875 C42.9525 65.195 45.5925 66.515 48.3125 67.875 C54.28975853 73.03717782 57.95836684 78.27126897 58.5625 86.125 C58.09695918 93.10811224 56.30862642 97.3076832 51.1875 102.1875 C45.75794075 106.67393776 40.75299984 108.50637502 33.8125 109.25 C25.3727199 108.34573785 18.82982638 105.49827694 13.3125 98.875 C10.07236551 93.48961164 8.53672384 88.28714306 9.640625 82.0390625 C11.96183138 74.56261868 16.89076972 69.52803817 23.5 65.5625 C25.3125 64.875 25.3125 64.875 28.3125 64.875 C28.3125 51.015 28.3125 37.155 28.3125 22.875 C21.3825 22.875 14.4525 22.875 7.3125 22.875 C6.9825 24.195 6.6525 25.515 6.3125 26.875 C3.05794104 32.99357084 -1.33173717 36.10820464 -7.6328125 38.6640625 C-13.97072875 40.588531 -20.28517256 40.35082762 -26.37109375 37.7109375 C-32.88004545 34.0937786 -37.27776684 30.10419949 -39.6875 22.875 C-40.39295621 15.71635422 -40.05571573 9.76821412 -35.6875 3.875 C-25.97922714 -7.19142502 -11.97244954 -7.48925956 0 0 Z " transform="translate(96.6875,88.125)" style="fill: #CAC0ED;"/>
</svg>
