<svg fill="#383A3E" xmlns="http://www.w3.org/2000/svg" width="13" height="13" viewBox="0 0 256 256">
<path d="M0 0 C2.80544303 1.24851841 5.42027637 2.75206605 8.0625 4.3125 C9.65561512 5.22506757 11.24939587 6.13647384 12.84375 7.046875 C14.09865234 7.76907227 14.09865234 7.76907227 15.37890625 8.50585938 C19.90619371 11.08661564 24.48474074 13.57271557 29.0625 16.0625 C29.98772461 16.56700684 30.91294922 17.07151367 31.86621094 17.59130859 C38.36586808 21.12940074 44.89402869 24.61046884 51.44165039 28.05883789 C55.50468335 30.20035896 59.53180412 32.39312593 63.53515625 34.64453125 C66.97852537 36.53811142 70.45976576 38.3579977 73.9375 40.1875 C85.41692257 46.23449005 96.73532071 52.56304041 108 59 C108 99.26 108 139.52 108 181 C100.74 184.96 93.48 188.92 86 193 C81.18387317 195.79967102 81.18387317 195.79967102 76.3828125 198.625 C73.6769264 200.18642936 70.9125133 201.55876415 68.1015625 202.91796875 C65.45982925 204.27811765 62.9284671 205.79322076 60.375 207.3125 C54.86385155 210.56782572 49.21158246 213.4137803 43.46875 216.234375 C39.10775417 218.45416117 34.91151935 220.90150242 30.71875 223.421875 C28.95873396 224.4434935 27.16838141 225.41519691 25.34765625 226.32421875 C19.45945002 229.27175723 13.72870094 232.51917325 7.96679688 235.70507812 C7.01740234 236.22650391 6.06800781 236.74792969 5.08984375 237.28515625 C4.23253662 237.75832275 3.37522949 238.23148926 2.49194336 238.71899414 C0.00867692 239.99553955 -2.33527802 241.15774974 -5 242 C-7.55098578 241.08701561 -9.60091073 240.17282569 -11.9375 238.875 C-12.53240234 238.565625 -13.12730469 238.25625 -13.74023438 237.9375 C-16.61758456 236.41549182 -19.31012795 234.79150724 -22.015625 232.97265625 C-25.1831285 230.87895302 -28.39868885 229.2215126 -31.8125 227.5625 C-37.31700875 224.88177314 -42.66013537 221.99400268 -48 219 C-49.62149516 218.10383716 -51.24390721 217.20933149 -52.8671875 216.31640625 C-53.68380859 215.86716797 -54.50042969 215.41792969 -55.34179688 214.95507812 C-56.17775391 214.49552734 -57.01371094 214.03597656 -57.875 213.5625 C-58.75994141 213.07587891 -59.64488281 212.58925781 -60.55664062 212.08789062 C-65.68846692 209.26708544 -70.82531713 206.45584004 -75.96875 203.65625 C-81.20151331 200.79711128 -86.42349865 197.918347 -91.6472168 195.04272461 C-96.96089194 192.11847072 -102.28003784 189.20486915 -107.61328125 186.31640625 C-110.76199912 184.57971571 -113.8778819 182.78406749 -117 181 C-117 140.74 -117 100.48 -117 59 C-109.74 55.04 -102.48 51.08 -95 47 C-90.20571536 44.22327636 -90.20571536 44.22327636 -85.4375 41.40234375 C-83.77170869 40.44397984 -82.07488817 39.53812733 -80.35546875 38.6796875 C-75.6080548 36.30321719 -70.96812168 33.73813591 -66.3125 31.1875 C-63.49414062 29.64648438 -63.49414062 29.64648438 -60.67578125 28.10546875 C-59.74048584 27.59338867 -58.80519043 27.08130859 -57.84155273 26.55371094 C-54.99821686 24.99902501 -52.15150855 23.45063643 -49.3046875 21.90234375 C-44.12202032 19.07665182 -38.98108437 16.18200923 -33.85351562 13.2578125 C-29.93041912 11.03615865 -25.96143813 8.96934909 -21.91723633 6.97753906 C-17.92501805 4.94203136 -14.09844049 2.57985757 -10.24609375 0.29296875 C-6.17941324 -1.32685225 -4.21455714 -1.13363359 0 0 Z M-10.0234375 12.09765625 C-10.86511475 12.56163818 -11.70679199 13.02562012 -12.57397461 13.50366211 C-13.49831299 14.01807861 -14.42265137 14.53249512 -15.375 15.0625 C-17.38349809 16.17038922 -19.39264396 17.27710466 -21.40234375 18.3828125 C-22.47339355 18.97223633 -23.54444336 19.56166016 -24.64794922 20.16894531 C-29.79765159 22.98196555 -34.97950744 25.73400951 -40.15945435 28.49081421 C-50.43681875 33.96279679 -60.62310259 39.57271603 -70.73413086 45.34716797 C-78.09910606 49.53582265 -85.56125738 53.51281068 -93.08959961 57.39941406 C-94.29821655 58.02348145 -94.29821655 58.02348145 -95.53125 58.66015625 C-96.22798828 59.01730713 -96.92472656 59.37445801 -97.64257812 59.74243164 C-100.79927228 61.42637236 -103.89363348 63.22493342 -107 65 C-107 101.3 -107 137.6 -107 175 C-96.48669384 180.84072564 -85.98723043 186.66157742 -75.375 192.3125 C-72.95784778 193.60325879 -70.54140421 194.89534153 -68.125 196.1875 C-67.52650238 196.50741409 -66.92800476 196.82732819 -66.31137085 197.15693665 C-53.26057326 204.1356745 -40.24232207 211.1743861 -27.3125 218.375 C-26.22714966 218.97658936 -26.22714966 218.97658936 -25.11987305 219.59033203 C-21.79076982 221.43671248 -18.47412152 223.29941176 -15.1796875 225.20703125 C-14.01570671 225.86733156 -12.85164922 226.52749668 -11.6875 227.1875 C-10.70136719 227.75855469 -9.71523437 228.32960937 -8.69921875 228.91796875 C-5.46011762 230.21642174 -4.32021365 229.9170635 -1 229 C0.81950365 228.16212938 2.60744783 227.25392097 4.3671875 226.296875 C5.40576904 225.73532715 6.44435059 225.1737793 7.5144043 224.59521484 C8.62340088 223.98629395 9.73239746 223.37737305 10.875 222.75 C12.03104736 222.12174316 13.18709473 221.49348633 14.37817383 220.84619141 C22.81721339 216.25089184 31.1774683 211.519523 39.52294922 206.75683594 C46.10686086 203.01827277 52.77023565 199.46825008 59.5 196 C67.65103099 191.79738797 75.70109353 187.44562957 83.6875 182.9375 C84.66203125 182.38900391 85.6365625 181.84050781 86.640625 181.27539062 C92.59274127 178.03015006 92.59274127 178.03015006 98 174 C98.59767888 171.93650649 98.59767888 171.93650649 98.50793457 169.60401917 C98.51921387 168.70536133 98.53049316 167.80670349 98.54211426 166.8808136 C98.53401733 165.89735458 98.52592041 164.91389557 98.51757812 163.90063477 C98.5245874 162.86298981 98.53159668 161.82534485 98.53881836 160.7562561 C98.55645905 157.31770256 98.5447527 153.87996853 98.53125 150.44140625 C98.53394336 148.05630841 98.53782447 145.67121163 98.54284668 143.28611755 C98.54875016 138.28333093 98.54015188 133.28082967 98.52148438 128.27807617 C98.49870712 121.86058334 98.51180543 115.44376004 98.53577423 109.02629185 C98.55021955 104.09953251 98.54563172 99.17293223 98.53526306 94.24616814 C98.53259165 91.87984069 98.53588001 89.51349887 98.54518127 87.14718819 C98.55532423 83.8406557 98.5398755 80.53521109 98.51757812 77.22875977 C98.52567505 76.24732498 98.53377197 75.2658902 98.54211426 74.25471497 C98.54450721 68.98521567 98.54450721 68.98521567 96.11941528 64.45552063 C93.74584684 62.82545886 91.38412249 61.38387475 88.8359375 60.0390625 C87.80952148 59.49233887 86.78310547 58.94561523 85.72558594 58.38232422 C84.61989258 57.80240723 83.51419922 57.22249023 82.375 56.625 C80.61568118 55.69022347 78.85636792 54.75543624 77.09741211 53.81997681 C75.27345813 52.8510859 73.44790058 51.88527164 71.62207031 50.91992188 C65.98208917 47.93469233 60.36687913 44.90340304 54.75 41.875 C53.67041016 41.29387451 52.59082031 40.71274902 51.47851562 40.11401367 C44.59929437 36.40921882 37.73239569 32.68252127 30.875 28.9375 C30.00230469 28.46135254 29.12960938 27.98520508 28.23046875 27.49462891 C24.40164496 25.40522121 20.57356597 23.31452228 16.74902344 21.21728516 C13.4180271 19.39115275 10.08420656 17.57026295 6.75 15.75 C5.18548096 14.88942993 5.18548096 14.88942993 3.58935547 14.01147461 C2.62658691 13.48690674 1.66381836 12.96233887 0.671875 12.421875 C-0.1830957 11.95362305 -1.03806641 11.48537109 -1.91894531 11.00292969 C-5.39208667 9.32910699 -6.811864 10.31325264 -10.0234375 12.09765625 Z " transform="translate(134,8)" style="fill: #383A3E;"/>
<path d="M0 0 C4.47915328 -0.02886338 8.95828291 -0.04675187 13.4375 -0.0625 C14.71689453 -0.07087891 15.99628906 -0.07925781 17.31445312 -0.08789062 C19.13686523 -0.09272461 19.13686523 -0.09272461 20.99609375 -0.09765625 C22.12200928 -0.10289307 23.2479248 -0.10812988 24.40795898 -0.11352539 C27 0 27 0 28 1 C28.11100763 3.46181486 28.15738695 5.89583685 28.16113281 8.35864258 C28.16858017 9.51500717 28.16858017 9.51500717 28.17617798 10.69473267 C28.19085332 13.26134115 28.19761491 15.82788758 28.203125 18.39453125 C28.20887761 20.18039451 28.21463533 21.96625775 28.22039795 23.75212097 C28.23092695 27.50914803 28.23675533 31.26615361 28.24023438 35.02319336 C28.24568484 39.80991203 28.26963005 44.59634128 28.29820633 49.38296986 C28.31695672 53.07987758 28.32204514 56.77671782 28.32357025 60.47366905 C28.32657582 62.23610685 28.33453251 63.99854407 28.34775543 65.76093483 C28.44844209 80.22874524 27.73786782 95.14747703 17.6015625 106.55859375 C8.44113633 114.80297731 -3.7223846 118.37419293 -15.8359375 118.2109375 C-28.42410191 117.37172654 -38.6143677 113.91515131 -47.375 104.6875 C-50.92694691 100.42228181 -55.3490307 94.86251185 -54.81982422 89.00610352 C-54 87 -54 87 -51.99047852 85.81152344 C-51.12865967 85.49731445 -50.26684082 85.18310547 -49.37890625 84.859375 C-48.44369141 84.51132813 -47.50847656 84.16328125 -46.54492188 83.8046875 C-45.56072266 83.45664063 -44.57652344 83.10859375 -43.5625 82.75 C-42.58216797 82.38648438 -41.60183594 82.02296875 -40.59179688 81.6484375 C-33.35837641 79 -33.35837641 79 -31 79 C-30.16180842 80.62249941 -29.3295884 82.24808497 -28.5 83.875 C-28.0359375 84.77992188 -27.571875 85.68484375 -27.09375 86.6171875 C-26 89 -26 89 -26 91 C-19.50583512 93.73438521 -13.42732959 93.31157542 -6.5625 92.6875 C-2.87569752 90.25960568 -2.66428296 87.71596591 -1.61117554 83.53695679 C-0.34775665 76.22537813 -0.51489195 68.82651033 -0.48828125 61.42578125 C-0.47140652 59.64787071 -0.45325259 57.8699719 -0.43388367 56.09208679 C-0.38668058 51.44800483 -0.35668016 46.80397042 -0.33044434 42.159729 C-0.30048778 37.4065207 -0.25400988 32.65347584 -0.20898438 27.90039062 C-0.12328973 18.60034644 -0.05579519 9.30026831 0 0 Z " transform="translate(134,72)" style="fill: #383A3E;"/>
</svg>
