<svg fill="#4DD0E1" xmlns="http://www.w3.org/2000/svg" width="16" height="16" viewBox="0 0 256 256">
<path d="M0 0 C1.49454712 0.8202063 1.49454712 0.8202063 3.01928711 1.65698242 C4.14681396 2.26872314 5.27434082 2.88046387 6.43603516 3.51074219 C7.63969671 4.1777446 8.84322547 4.8449867 10.04663086 5.51245117 C11.30367014 6.19953655 12.56124585 6.88564137 13.81933594 7.57080078 C16.35499646 8.95382744 18.88729342 10.34271701 21.41674805 11.73706055 C24.54878412 13.46284649 27.68994827 15.17112688 30.83569336 16.87182617 C43.56258533 23.75875217 56.19393513 30.81501168 68.80444336 37.91235352 C72.0702006 39.74833897 75.33948698 41.57792899 78.60913086 43.40698242 C80.71341859 44.58775629 82.8175897 45.76873799 84.92163086 46.94995117 C85.90510498 47.49901123 86.8885791 48.04807129 87.90185547 48.61376953 C88.80427979 49.12174072 89.7067041 49.62971191 90.63647461 50.15307617 C91.82744751 50.82064941 91.82744751 50.82064941 93.04248047 51.50170898 C94.98413086 52.69995117 94.98413086 52.69995117 96.98413086 54.69995117 C97.25536633 56.67843246 97.25536633 56.67843246 97.28520203 59.15203857 C97.30095779 60.0885022 97.31671356 61.02496582 97.33294678 61.98980713 C97.33989563 63.02047302 97.34684448 64.05113892 97.35400391 65.11303711 C97.36875259 66.19609131 97.38350128 67.27914551 97.3986969 68.39501953 C97.44334477 71.99144529 97.47147626 75.58770836 97.49584961 79.18432617 C97.50524881 80.4106501 97.51464802 81.63697403 97.52433205 82.90045929 C97.56703668 88.72141712 97.60083862 94.54230899 97.62196606 100.36338592 C97.64432444 106.41137643 97.68991832 112.45813741 97.77294922 118.50561523 C97.86057955 124.99199022 97.90426466 131.47723645 97.91590309 137.96417999 C97.92750385 140.43782589 97.95440136 142.91144883 97.99683189 145.384758 C98.05271596 148.84760566 98.05197954 152.30611654 98.03759766 155.76928711 C98.06681305 156.79185608 98.09602844 157.81442505 98.12612915 158.86798096 C98.0165831 165.67046163 98.0165831 165.67046163 95.04924965 168.62928009 C92.75212634 170.18707798 90.47162274 171.47345978 87.98413086 172.69995117 C86.66127536 173.43208851 85.33942545 174.16605072 84.01928711 174.90307617 C82.69732519 175.5897303 81.37302953 176.27190708 80.04663086 176.94995117 C73.99922227 180.09772384 67.99998505 183.31504104 62.04663086 186.63745117 C61.2930127 187.05784668 60.53939453 187.47824219 59.76293945 187.91137695 C58.24231996 188.76049504 56.72197337 189.61010204 55.2019043 190.46020508 C51.69488365 192.42064661 48.18358754 194.37336916 44.67163086 196.32495117 C43.96264648 196.71900146 43.25366211 197.11305176 42.52319336 197.51904297 C35.03819407 201.6756848 27.54264878 205.81322684 20.04663086 209.94995117 C19.4302475 210.29020325 18.81386414 210.63045532 18.17880249 210.98101807 C17.2726268 211.48118439 17.2726268 211.48118439 16.34814453 211.99145508 C15.75304581 212.32017609 15.15794708 212.64889709 14.54481506 212.98757935 C12.79683969 213.95039965 11.04505197 214.90628825 9.29321289 215.86206055 C7.1433477 217.05611287 5.0123482 218.28502444 2.90551758 219.5534668 C1.9607959 220.11227539 1.01607422 220.67108398 0.04272461 221.24682617 C-0.77010986 221.74537109 -1.58294434 222.24391602 -2.42041016 222.75756836 C-6.97396066 224.41091282 -10.70886036 223.26041354 -15.04760742 221.39990234 C-16.05033691 220.85309814 -17.05306641 220.30629395 -18.08618164 219.74291992 C-19.21999268 219.13053467 -20.35380371 218.51814941 -21.52197266 217.88720703 C-22.7284777 217.22099506 -23.93477215 216.55440158 -25.14086914 215.88745117 C-26.39040468 215.2064906 -27.64032769 214.52624057 -28.890625 213.84667969 C-38.10958302 208.81935338 -47.24760267 203.64945614 -56.33227539 198.38354492 C-64.62323256 193.59925488 -73.08397716 189.12054436 -81.52001953 184.59912109 C-110.84029427 168.87552604 -110.84029427 168.87552604 -113.01586914 166.69995117 C-113.12877001 165.25701022 -113.17321443 163.80864342 -113.18995667 162.36138916 C-113.20289261 161.42485504 -113.21582855 160.48832092 -113.22915649 159.52340698 C-113.24261612 157.96965866 -113.24261612 157.96965866 -113.25634766 156.38452148 C-113.26934402 155.30000702 -113.28234039 154.21549255 -113.29573059 153.09811401 C-113.41498832 142.41983748 -113.47354605 131.74082152 -113.52150685 121.06201673 C-113.55243739 114.32969564 -113.61383611 107.59850919 -113.70000893 100.86667562 C-113.7721039 95.03771812 -113.80045514 89.20914198 -113.81382561 83.37978363 C-113.82610353 80.89974147 -113.8522049 78.41972839 -113.89227486 75.93997955 C-113.94554239 72.46996647 -113.94876252 69.00329219 -113.93994141 65.53295898 C-113.96713257 64.50522369 -113.99432373 63.4774884 -114.02233887 62.41860962 C-113.93286175 55.60263343 -113.93286175 55.60263343 -111.26639843 52.97778225 C-109.22832305 51.68704519 -107.22267801 50.66709543 -105.01586914 49.69995117 C-104.13761475 49.18053955 -103.25936035 48.66112793 -102.35449219 48.12597656 C-101.58661377 47.68761475 -100.81873535 47.24925293 -100.02758789 46.79760742 C-99.16246582 46.30309082 -98.29734375 45.80857422 -97.40600586 45.29907227 C-96.51413574 44.7919873 -95.62226562 44.28490234 -94.70336914 43.76245117 C-93.7676709 43.22958496 -92.83197266 42.69671875 -91.86791992 42.14770508 C-84.28751817 37.83888686 -76.68057785 33.60465632 -68.94555664 29.57885742 C-57.08499768 23.39702105 -45.43128096 16.8970968 -33.80639648 10.28393555 C-29.46916098 7.82199469 -25.12072313 5.38056735 -20.76586914 2.94995117 C-20.02135498 2.53165039 -19.27684082 2.11334961 -18.50976562 1.68237305 C-11.68293669 -2.12076672 -7.43404044 -3.20458717 0 0 Z M-13.26977539 10.75463867 C-14.11411133 11.1989624 -14.95844727 11.64328613 -15.82836914 12.10107422 C-16.73586914 12.58745361 -17.64336914 13.07383301 -18.57836914 13.57495117 C-19.52583008 14.07744385 -20.47329102 14.57993652 -21.44946289 15.09765625 C-28.65089124 18.93186178 -35.79584918 22.86275996 -42.91430664 26.84838867 C-49.30899156 30.42868526 -55.72472087 33.9708241 -62.14086914 37.51245117 C-63.06434143 38.02249695 -63.06434143 38.02249695 -64.00646973 38.54284668 C-73.92881414 44.02161318 -83.8814111 49.44164696 -93.86791992 54.80273438 C-94.79846191 55.30377686 -95.72900391 55.80481934 -96.68774414 56.32104492 C-97.50339844 56.75860107 -98.31905273 57.19615723 -99.15942383 57.64697266 C-100.96936093 58.56471097 -100.96936093 58.56471097 -102.01586914 59.69995117 C-102.11123156 62.8660778 -102.14137551 66.01035745 -102.12939453 69.17675781 C-102.12954056 70.17176804 -102.12968658 71.16677826 -102.12983704 72.19194031 C-102.12913745 75.49801779 -102.12134293 78.80403972 -102.11352539 82.11010742 C-102.11166137 84.3955431 -102.11023739 86.68097918 -102.10923767 88.96641541 C-102.10541121 94.99493504 -102.09557984 101.02343076 -102.08453369 107.05194092 C-102.07432232 113.19827959 -102.06974064 119.3446221 -102.06469727 125.4909668 C-102.05395769 137.56063879 -102.03687974 149.630293 -102.01586914 161.69995117 C-101.32909592 162.07117599 -100.64232269 162.44240082 -99.93473816 162.82487488 C-96.78826962 164.52610426 -93.6423004 166.22825498 -90.49633789 167.93041992 C-89.41606323 168.51432495 -88.33578857 169.09822998 -87.22277832 169.6998291 C-80.90674248 173.11815956 -74.62242064 176.58184208 -68.37252808 180.11953735 C-58.49636581 185.70776787 -48.54573353 191.16319688 -38.59770203 196.62210083 C-34.37824233 198.94089652 -30.1786514 201.29250185 -25.98461914 203.65698242 C-23.82848015 204.85900448 -21.67223564 206.06083729 -19.51586914 207.26245117 C-18.52586914 207.82867187 -17.53586914 208.39489258 -16.51586914 208.97827148 C-15.13915039 209.73962402 -15.13915039 209.73962402 -13.73461914 210.51635742 C-12.54255859 211.1884021 -12.54255859 211.1884021 -11.32641602 211.87402344 C-7.47845038 213.24951665 -4.94777263 212.13295253 -1.34716797 210.45996094 C-0.39865967 209.94232178 0.54984863 209.42468262 1.52709961 208.89135742 C3.1229187 208.02631592 3.1229187 208.02631592 4.75097656 207.14379883 C6.44420044 206.21253174 6.44420044 206.21253174 8.17163086 205.26245117 C9.35650141 204.61661158 10.54164413 203.97127108 11.72705078 203.32641602 C15.15139435 201.46055682 18.5686379 199.58196814 21.98413086 197.69995117 C22.81203125 197.24378418 23.63993164 196.78761719 24.49291992 196.31762695 C28.01136617 194.37454576 31.52291489 192.41946793 35.03100586 190.45776367 C38.98989464 188.24702096 42.96199579 186.06075801 46.93725586 183.87963867 C68.19394457 173.88595588 68.19394457 173.88595588 86.98413086 160.69995117 C87.07948044 157.56435231 87.10963965 154.45081504 87.09765625 151.31494141 C87.09787529 149.83705643 87.09787529 149.83705643 87.09809875 148.32931519 C87.09739918 145.0557031 87.08960471 141.78214713 87.08178711 138.50854492 C87.07992309 136.24552949 87.07849911 133.98251366 87.07749939 131.71949768 C87.07367296 125.75016169 87.06384161 119.78084985 87.05279541 113.81152344 C87.04258397 107.72550788 87.03800235 101.63948844 87.03295898 95.5534668 C87.02221945 83.60228428 87.00514154 71.65111973 86.98413086 59.69995117 C86.3554479 59.35736236 85.72676495 59.01477354 85.07903099 58.66180325 C82.19748287 57.09136601 79.31614717 55.52053943 76.43481445 53.94970703 C75.44593735 53.41084618 74.45706024 52.87198532 73.43821716 52.31679535 C66.13982372 48.3373786 58.86615692 44.31684329 51.60913086 40.26245117 C41.88214381 34.8416787 32.11508403 29.50149148 22.3137207 24.21655273 C15.77052299 20.68333659 9.26552483 17.08987829 2.80175781 13.41333008 C-4.96300631 8.58357449 -4.96300631 8.58357449 -13.26977539 10.75463867 Z " transform="translate(135.015869140625,17.300048828125)" style="fill: #846ADD;"/>
<path d="M0 0 C1.09485214 -0.00700928 2.18970428 -0.01401855 3.31773376 -0.02124023 C6.93538809 -0.03883969 10.55225964 -0.02718979 14.16992188 -0.01367188 C16.68428701 -0.01636621 19.19865113 -0.02024813 21.7130127 -0.02526855 C26.98209617 -0.03116626 32.25097621 -0.02297328 37.52001953 -0.00390625 C43.60559026 0.0178617 49.69062491 0.01080987 55.77618265 -0.01121187 C61.63832113 -0.03157338 67.50025636 -0.02938989 73.3624115 -0.01768494 C75.8535113 -0.01501553 78.34462478 -0.01829486 80.83570862 -0.02760315 C84.31662297 -0.03775542 87.79650625 -0.02228443 91.27734375 0 C92.3081456 -0.00809692 93.33894745 -0.01619385 94.40098572 -0.02453613 C98.56080181 0.02482991 101.48080486 0.20882895 105.27806091 1.99095154 C108.03493745 5.73466674 107.83224256 8.91713905 107.76977539 13.46118164 C107.77693069 14.36402893 107.784086 15.26687622 107.79145813 16.19708252 C107.80836418 19.18073148 107.7889329 22.1628821 107.76757812 25.14648438 C107.76840657 27.2186648 107.77086504 29.29084516 107.77488708 31.36302185 C107.7777463 35.70502511 107.7630302 40.04651287 107.7355957 44.38842773 C107.70149173 49.95969391 107.70753716 55.53003942 107.72625828 61.10134983 C107.73681535 65.37956953 107.72790254 69.65757416 107.71287346 73.93577385 C107.70768313 75.9903188 107.70818373 78.04488613 107.71441841 80.09942818 C107.7198558 82.96790176 107.69954381 85.83504685 107.67211914 88.70336914 C107.67864502 89.55591782 107.6851709 90.40846649 107.69189453 91.28684998 C107.59778647 97.06196444 107.59778647 97.06196444 105.40775204 99.23529911 C102.8005088 100.70867733 101.29606994 100.89451602 98.31872559 100.89852905 C97.35137985 100.90698853 96.38403412 100.915448 95.38737488 100.92416382 C93.80537041 100.91505478 93.80537041 100.91505478 92.19140625 100.90576172 C90.51767693 100.91364716 90.51767693 100.91364716 88.81013489 100.92169189 C85.11742199 100.9349084 81.42513925 100.92614761 77.73242188 100.91601562 C75.16939206 100.91803588 72.6063628 100.9209469 70.04333496 100.92471313 C64.66994225 100.92913874 59.29671156 100.9229834 53.92333984 100.90869141 C47.71345207 100.89236506 41.50385979 100.89765369 35.29397917 100.91417062 C29.31706379 100.92943085 23.34029285 100.92780821 17.36335754 100.91902542 C14.821192 100.91702162 12.27901894 100.91948898 9.73686218 100.92646408 C6.1863496 100.93406754 2.6364075 100.92248904 -0.9140625 100.90576172 C-1.96873215 100.91183441 -3.02340179 100.9179071 -4.11003113 100.92416382 C-5.56104973 100.91147461 -5.56104973 100.91147461 -7.04138184 100.89852905 C-7.88054893 100.89739798 -8.71971603 100.8962669 -9.58431244 100.89510155 C-12.44547177 100.42072859 -13.80969565 99.55356621 -15.86132812 97.51757812 C-16.26829711 94.46174528 -16.41819286 91.76265599 -16.39477539 88.70336914 C-16.40339096 87.80227417 -16.41200653 86.9011792 -16.42088318 85.97277832 C-16.4436195 82.98872296 -16.43678993 80.00560095 -16.42773438 77.02148438 C-16.43296682 74.95026875 -16.4392419 72.87905552 -16.44651794 70.80784607 C-16.45693652 66.46414997 -16.4523401 62.12078116 -16.43774414 57.77709961 C-16.42056043 52.20693404 -16.44403923 46.63780035 -16.47923374 41.06774998 C-16.50118153 36.78949632 -16.49977248 32.51149051 -16.49146843 28.23319817 C-16.49064735 26.17946173 -16.49754046 24.12570738 -16.51223946 22.07202339 C-16.52963541 19.2010956 -16.51518391 16.33203389 -16.49243164 13.46118164 C-16.50412384 12.6106572 -16.51581604 11.76013275 -16.52786255 10.88383484 C-16.46631326 7.07199137 -16.30183938 5.11577274 -14.00071716 1.99095154 C-9.34145534 -0.19572632 -5.08918199 -0.0399754 0 0 Z M-5.86132812 11.51757812 C-5.94784423 12.93327936 -5.96837716 14.35317313 -5.95898438 15.77148438 C-5.95648682 16.54049072 -5.95398926 17.30949707 -5.95141602 18.10180664 C-5.94231201 19.08463623 -5.93320801 20.06746582 -5.92382812 21.08007812 C-5.90320313 24.19445312 -5.88257812 27.30882813 -5.86132812 30.51757812 C2.05867188 30.51757812 9.97867188 30.51757812 18.13867188 30.51757812 C19.00220652 26.19990488 19.272807 22.63417005 19.26367188 18.26757812 C19.26625 17.02492188 19.26882812 15.78226563 19.27148438 14.50195312 C19.48025295 11.63416899 19.48025295 11.63416899 18.13867188 10.51757812 C16.44308462 10.41825659 14.7434144 10.38677806 13.04492188 10.38476562 C12.01496094 10.38347656 10.985 10.3821875 9.92382812 10.38085938 C8.83972656 10.38472656 7.755625 10.38859375 6.63867188 10.39257812 C5.01251953 10.38677734 5.01251953 10.38677734 3.35351562 10.38085938 C2.32355469 10.38214844 1.29359375 10.3834375 0.23242188 10.38476562 C-1.19553711 10.38645752 -1.19553711 10.38645752 -2.65234375 10.38818359 C-4.8358495 10.27058356 -4.8358495 10.27058356 -5.86132812 11.51757812 Z M29.13867188 11.51757812 C29.13867188 17.78757812 29.13867188 24.05757812 29.13867188 30.51757812 C51.57867187 30.51757812 74.01867187 30.51757812 97.13867188 30.51757812 C98.99863892 19.54004777 98.99863892 19.54004777 96.13867188 10.51757812 C94.08854341 10.41818187 92.03495796 10.3895826 89.98242188 10.38818359 C88.66435547 10.38503143 87.34628906 10.38187927 85.98828125 10.37863159 C84.53841112 10.38042137 83.08854129 10.38247232 81.63867188 10.38476562 C80.16276025 10.38409255 78.68684874 10.3831225 77.2109375 10.38186646 C74.11392158 10.38038965 71.01693445 10.38254349 67.91992188 10.38720703 C63.94158639 10.39290432 59.96331836 10.38962522 55.98498535 10.38363457 C52.93619271 10.38002849 49.88741617 10.38116775 46.83862305 10.38376236 C45.37133781 10.3844315 43.90405113 10.38360365 42.43676758 10.38128281 C40.38948594 10.37875556 38.34219921 10.38328752 36.29492188 10.38818359 C35.12767578 10.38897919 33.96042969 10.38977478 32.7578125 10.39059448 C30.2122774 10.21996101 30.2122774 10.21996101 29.13867188 11.51757812 Z M-5.86132812 41.51757812 C-5.94784423 42.93327936 -5.96837716 44.35317313 -5.95898438 45.77148438 C-5.95576172 46.62548828 -5.95253906 47.47949219 -5.94921875 48.359375 C-5.94083984 49.25720703 -5.93246094 50.15503906 -5.92382812 51.08007812 C-5.91931641 51.98177734 -5.91480469 52.88347656 -5.91015625 53.8125 C-5.89833037 56.04759126 -5.88185033 58.28255249 -5.86132812 60.51757812 C-1.88217654 60.54644796 2.09694841 60.56433219 6.07617188 60.58007812 C7.78063477 60.59264648 7.78063477 60.59264648 9.51953125 60.60546875 C10.59912109 60.60869141 11.67871094 60.61191406 12.79101562 60.61523438 C13.79124756 60.62047119 14.79147949 60.62570801 15.82202148 60.63110352 C18.10074415 60.77938907 18.10074415 60.77938907 19.13867188 59.51757812 C19.23704397 58.18714188 19.2694578 56.85164468 19.27148438 55.51757812 C19.27277344 54.71320313 19.2740625 53.90882813 19.27539062 53.08007812 C19.26958984 51.81164062 19.26958984 51.81164062 19.26367188 50.51757812 C19.26753906 49.67195313 19.27140625 48.82632813 19.27539062 47.95507812 C19.27345703 46.74851562 19.27345703 46.74851562 19.27148438 45.51757812 C19.27035645 44.77507812 19.26922852 44.03257813 19.26806641 43.26757812 C19.32809403 41.48932001 19.32809403 41.48932001 18.13867188 40.51757812 C16.44308462 40.41825659 14.7434144 40.38677806 13.04492188 40.38476562 C12.01496094 40.38347656 10.985 40.3821875 9.92382812 40.38085938 C8.83972656 40.38472656 7.755625 40.38859375 6.63867188 40.39257812 C5.01251953 40.38677734 5.01251953 40.38677734 3.35351562 40.38085938 C2.32355469 40.38214844 1.29359375 40.3834375 0.23242188 40.38476562 C-1.19553711 40.38645752 -1.19553711 40.38645752 -2.65234375 40.38818359 C-4.8358495 40.27058356 -4.8358495 40.27058356 -5.86132812 41.51757812 Z M29.13867188 41.51757812 C29.13867188 47.78757813 29.13867188 54.05757812 29.13867188 60.51757812 C51.57867187 60.51757812 74.01867187 60.51757812 97.13867188 60.51757812 C98.99863892 49.54004777 98.99863892 49.54004777 96.13867188 40.51757812 C94.08854341 40.41818187 92.03495796 40.3895826 89.98242188 40.38818359 C88.66435547 40.38503143 87.34628906 40.38187927 85.98828125 40.37863159 C84.53841112 40.38042137 83.08854129 40.38247232 81.63867188 40.38476562 C80.16276025 40.38409255 78.68684874 40.3831225 77.2109375 40.38186646 C74.11392158 40.38038965 71.01693445 40.38254349 67.91992188 40.38720703 C63.94158639 40.39290432 59.96331836 40.38962522 55.98498535 40.38363457 C52.93619271 40.38002849 49.88741617 40.38116775 46.83862305 40.38376236 C45.37133781 40.3844315 43.90405113 40.38360365 42.43676758 40.38128281 C40.38948594 40.37875556 38.34219921 40.38328752 36.29492188 40.38818359 C35.12767578 40.38897919 33.96042969 40.38977478 32.7578125 40.39059448 C30.2122774 40.21996101 30.2122774 40.21996101 29.13867188 41.51757812 Z M-5.86132812 71.51757812 C-5.95992944 72.92106548 -5.99211749 74.3293829 -5.99414062 75.73632812 C-5.99542969 76.58582031 -5.99671875 77.4353125 -5.99804688 78.31054688 C-5.99417969 79.20386719 -5.9903125 80.0971875 -5.98632812 81.01757812 C-5.99019531 81.91089844 -5.9940625 82.80421875 -5.99804688 83.72460938 C-5.99675781 84.57410156 -5.99546875 85.42359375 -5.99414062 86.29882812 C-5.9930127 87.08322266 -5.99188477 87.86761719 -5.99072266 88.67578125 C-6.06240254 90.535108 -6.06240254 90.535108 -4.86132812 91.51757812 C-1.22233637 91.76914082 2.4295086 91.70280038 6.07617188 91.70507812 C7.10419922 91.71732422 8.13222656 91.72957031 9.19140625 91.7421875 C10.17302734 91.74412109 11.15464844 91.74605469 12.16601562 91.74804688 C13.52327759 91.75421021 13.52327759 91.75421021 14.90795898 91.76049805 C17.34285965 91.7309911 17.34285965 91.7309911 19.13867188 89.51757812 C19.43146927 87.59802612 19.43146927 87.59802612 19.36914062 85.41992188 C19.36720703 84.61876953 19.36527344 83.81761719 19.36328125 82.9921875 C19.35103516 82.15494141 19.33878906 81.31769531 19.32617188 80.45507812 C19.32552734 79.61396484 19.32488281 78.77285156 19.32421875 77.90625 C19.69174345 73.89241944 19.69174345 73.89241944 18.13867188 70.51757812 C16.44308462 70.41825659 14.7434144 70.38677806 13.04492188 70.38476562 C12.01496094 70.38347656 10.985 70.3821875 9.92382812 70.38085938 C8.83972656 70.38472656 7.755625 70.38859375 6.63867188 70.39257812 C5.01251953 70.38677734 5.01251953 70.38677734 3.35351562 70.38085938 C2.32355469 70.38214844 1.29359375 70.3834375 0.23242188 70.38476562 C-1.19553711 70.38645752 -1.19553711 70.38645752 -2.65234375 70.38818359 C-4.8358495 70.27058356 -4.8358495 70.27058356 -5.86132812 71.51757812 Z M29.13867188 71.51757812 C29.04007056 72.92106548 29.00788251 74.3293829 29.00585938 75.73632812 C29.00457031 76.58582031 29.00328125 77.4353125 29.00195312 78.31054688 C29.00582031 79.20386719 29.0096875 80.0971875 29.01367188 81.01757812 C29.00980469 81.91089844 29.0059375 82.80421875 29.00195312 83.72460938 C29.00324219 84.57410156 29.00453125 85.42359375 29.00585938 86.29882812 C29.0069873 87.08322266 29.00811523 87.86761719 29.00927734 88.67578125 C28.93759746 90.535108 28.93759746 90.535108 30.13867188 91.51757812 C32.18880034 91.61697438 34.24238579 91.64557365 36.29492188 91.64697266 C37.61298828 91.65012482 38.93105469 91.65327698 40.2890625 91.65652466 C41.73893263 91.65473488 43.18880246 91.65268393 44.63867188 91.65039062 C46.1145835 91.6510637 47.59049501 91.65203375 49.06640625 91.65328979 C52.16342217 91.6547666 55.2604093 91.65261276 58.35742188 91.64794922 C62.33575736 91.64225193 66.31402539 91.64553103 70.2923584 91.65152168 C73.34115104 91.65512776 76.38992758 91.6539885 79.4387207 91.65139389 C80.90600594 91.65072475 82.37329262 91.6515526 83.84057617 91.65387344 C85.88785781 91.65640069 87.93514454 91.65186873 89.98242188 91.64697266 C91.14966797 91.64617706 92.31691406 91.64538147 93.51953125 91.64456177 C96.06506635 91.81519524 96.06506635 91.81519524 97.13867188 90.51757812 C97.23727319 89.11409077 97.26946124 87.70577335 97.27148438 86.29882812 C97.27277344 85.44933594 97.2740625 84.59984375 97.27539062 83.72460938 C97.27152344 82.83128906 97.26765625 81.93796875 97.26367188 81.01757812 C97.26753906 80.12425781 97.27140625 79.2309375 97.27539062 78.31054688 C97.27410156 77.46105469 97.2728125 76.6115625 97.27148438 75.73632812 C97.26979248 74.55973633 97.26979248 74.55973633 97.26806641 73.359375 C97.33974629 71.50004825 97.33974629 71.50004825 96.13867188 70.51757812 C94.08854341 70.41818187 92.03495796 70.3895826 89.98242188 70.38818359 C88.66435547 70.38503143 87.34628906 70.38187927 85.98828125 70.37863159 C84.53841112 70.38042137 83.08854129 70.38247232 81.63867188 70.38476562 C80.16276025 70.38409255 78.68684874 70.3831225 77.2109375 70.38186646 C74.11392158 70.38038965 71.01693445 70.38254349 67.91992188 70.38720703 C63.94158639 70.39290432 59.96331836 70.38962522 55.98498535 70.38363457 C52.93619271 70.38002849 49.88741617 70.38116775 46.83862305 70.38376236 C45.37133781 70.3844315 43.90405113 70.38360365 42.43676758 70.38128281 C40.38948594 70.37875556 38.34219921 70.38328752 36.29492188 70.38818359 C35.12767578 70.38897919 33.96042969 70.38977478 32.7578125 70.39059448 C30.2122774 70.21996101 30.2122774 70.21996101 29.13867188 71.51757812 Z " transform="translate(81.861328125,81.482421875)" style="fill: #7A60D6;"/>
</svg>
