<svg fill="#CE93D8" xmlns="http://www.w3.org/2000/svg" width="16" height="16" viewBox="0 0 256 256">
<path d="M0 0 C1.00251801 -0.00701431 2.00503601 -0.01402863 3.03793335 -0.02125549 C4.6861483 -0.00978989 4.6861483 -0.00978989 6.36766052 0.00190735 C7.52556091 -0.00174332 8.6834613 -0.00539398 9.87644958 -0.00915527 C13.71408125 -0.01727909 17.55129315 -0.00363579 21.38890076 0.01094055 C24.04783727 0.0114589 26.70675773 0.01099468 29.36569214 0.00942993 C34.94175762 0.00854693 40.51770154 0.01962953 46.09373474 0.03804016 C52.54500647 0.05921832 58.99610022 0.06271553 65.44739968 0.0564782 C71.64908933 0.05078871 77.85071617 0.05642461 84.05239677 0.06765175 C86.69390039 0.07151168 89.33540939 0.0726487 91.97691536 0.0710659 C95.66195648 0.07069674 99.34672299 0.08327349 103.03172302 0.0995636 C104.13255722 0.09708618 105.23339142 0.09460876 106.36758423 0.09205627 C107.36728241 0.09914108 108.36698059 0.10622589 109.39697266 0.11352539 C110.70468297 0.1166047 110.70468297 0.1166047 112.03881168 0.11974621 C114.13499451 0.3742218 114.13499451 0.3742218 116.13499451 2.3742218 C116.38388348 4.25734806 116.38388348 4.25734806 116.38223267 6.59420776 C116.38642715 7.47899811 116.39062164 8.36378845 116.39494324 9.27539062 C116.38932373 10.24845657 116.38370422 11.22152252 116.37791443 12.22407532 C116.37981277 13.24688599 116.38171112 14.26969666 116.38366699 15.32350159 C116.38738288 18.71678747 116.37665966 22.10986108 116.36546326 25.50312805 C116.36427189 27.85199966 116.3638182 30.20087175 116.36407471 32.54974365 C116.36250848 37.47686232 116.35420761 42.40390848 116.34080505 47.33100891 C116.32380571 53.6622974 116.31999089 59.99350616 116.32075024 66.3248148 C116.32047897 71.17592131 116.31500487 76.02701021 116.30774879 80.87811089 C116.30455575 83.21342269 116.30259325 85.5487365 116.30185509 87.88405037 C116.29969877 91.14065612 116.29097021 94.39717547 116.28025818 97.65376282 C116.28071136 98.628853 116.28116455 99.60394318 116.28163147 100.60858154 C116.27736649 101.49055206 116.2731015 102.37252258 116.26870728 103.28121948 C116.26703143 104.05200616 116.26535559 104.82279284 116.26362896 105.61693668 C116.13499451 107.3742218 116.13499451 107.3742218 115.13499451 108.3742218 C113.57076166 108.47446988 112.00200942 108.50497906 110.43457031 108.50793457 C108.90967484 108.51433205 108.90967484 108.51433205 107.35397339 108.52085876 C106.22927139 108.52040558 105.1045694 108.51995239 103.94578552 108.51948547 C102.76867004 108.52284409 101.59155457 108.5262027 100.37876892 108.52966309 C97.14118382 108.53755864 93.90363712 108.54084202 90.66604352 108.54147887 C87.96711252 108.5424264 85.26818773 108.5461029 82.56925911 108.54965097 C76.20371656 108.55780299 69.83818816 108.56023453 63.47264099 108.55952454 C56.89759471 108.55892357 50.32263043 108.56947735 43.74760491 108.5852682 C38.1102289 108.59832667 32.47287976 108.60370915 26.83548874 108.60306913 C23.46516189 108.60281363 20.09490786 108.60569286 16.72459602 108.61624718 C12.96752649 108.62598972 9.21067063 108.62319179 5.45359802 108.61714172 C4.33092026 108.62276123 3.20824249 108.62838074 2.05154419 108.63417053 C0.52241898 108.6278788 0.52241898 108.6278788 -1.03759766 108.62145996 C-1.92675086 108.62200473 -2.81590406 108.6225495 -3.7320013 108.62311077 C-5.86500549 108.3742218 -5.86500549 108.3742218 -7.86500549 106.3742218 C-8.11948109 104.52791691 -8.11948109 104.52791691 -8.1257019 102.24362183 C-8.13278671 101.37855011 -8.13987152 100.51347839 -8.14717102 99.62219238 C-8.1446936 98.67097 -8.14221619 97.71974762 -8.1396637 96.73970032 C-8.14477463 95.73960937 -8.14988556 94.73951843 -8.15515137 93.7091217 C-8.16909566 90.39039693 -8.16808695 87.0718787 -8.16578674 83.75312805 C-8.16967103 81.45388715 -8.17400513 79.15464696 -8.17877197 76.85540771 C-8.18624461 72.03084489 -8.18593536 67.20635523 -8.18067932 62.38179016 C-8.17488349 56.18960687 -8.1918136 49.99772256 -8.21502399 43.80558872 C-8.22973357 39.05561564 -8.23063682 34.30571501 -8.22751427 29.55572319 C-8.22802888 27.2722966 -8.23329274 24.9888661 -8.24332619 22.7054615 C-8.25561935 19.51615422 -8.24894158 16.32743521 -8.23731995 13.13813782 C-8.24496368 12.18893967 -8.25260742 11.23974152 -8.26048279 10.26177979 C-8.24996132 8.95994247 -8.24996132 8.95994247 -8.23922729 7.63180542 C-8.23939504 6.87761102 -8.23956278 6.12341661 -8.2397356 5.34636784 C-7.34331705 0.62865702 -4.34860694 -0.00083634 0 0 Z M4.13499451 12.3742218 C4.13499451 24.5842218 4.13499451 36.7942218 4.13499451 49.3742218 C18.65499451 49.3742218 33.17499451 49.3742218 48.13499451 49.3742218 C48.13499451 37.1642218 48.13499451 24.9542218 48.13499451 12.3742218 C33.61499451 12.3742218 19.09499451 12.3742218 4.13499451 12.3742218 Z M60.13499451 12.3742218 C60.13499451 24.5842218 60.13499451 36.7942218 60.13499451 49.3742218 C74.65499451 49.3742218 89.17499451 49.3742218 104.13499451 49.3742218 C104.13499451 37.1642218 104.13499451 24.9542218 104.13499451 12.3742218 C89.61499451 12.3742218 75.09499451 12.3742218 60.13499451 12.3742218 Z M4.13499451 60.3742218 C4.13499451 72.5842218 4.13499451 84.7942218 4.13499451 97.3742218 C18.65499451 97.3742218 33.17499451 97.3742218 48.13499451 97.3742218 C48.13499451 85.1642218 48.13499451 72.9542218 48.13499451 60.3742218 C33.61499451 60.3742218 19.09499451 60.3742218 4.13499451 60.3742218 Z M60.13499451 60.3742218 C60.13499451 72.5842218 60.13499451 84.7942218 60.13499451 97.3742218 C74.65499451 97.3742218 89.17499451 97.3742218 104.13499451 97.3742218 C104.13499451 85.1642218 104.13499451 72.9542218 104.13499451 60.3742218 C89.61499451 60.3742218 75.09499451 60.3742218 60.13499451 60.3742218 Z " transform="translate(72.86500549316406,72.62577819824219)" style="fill: #7C64D5;"/>
<path d="M0 0 C2.78375239 1.27058935 5.45230488 2.69912012 8.125 4.1875 C9.65433461 5.01935769 11.1842843 5.85008557 12.71484375 6.6796875 C13.82448486 7.28441895 13.82448486 7.28441895 14.95654297 7.90136719 C17.50290859 9.27038096 20.08759596 10.54850007 22.6875 11.8125 C29.16037753 15.01828237 35.47448152 18.50311215 41.8059082 21.97705078 C49.02978993 25.93711233 56.28457593 29.83674556 63.55258179 33.7149353 C72.96028976 38.73551982 82.3374729 43.79549886 91.60546875 49.0703125 C94.30002713 50.60208677 97.00204467 52.11671852 99.7121582 53.62060547 C100.91918144 54.2905806 100.91918144 54.2905806 102.15058899 54.97409058 C102.76089462 55.31264069 103.37120026 55.6511908 104 56 C104.18693219 71.16827203 104.3279793 86.33649092 104.41449738 101.50565624 C104.45573869 108.5491659 104.51195594 115.59195966 104.60351562 122.63500977 C104.69181073 129.43018192 104.73825503 136.22460938 104.75901794 143.02031898 C104.77381681 145.61480745 104.80271587 148.20925449 104.84584045 150.80342674 C104.90379985 154.43389715 104.91191766 158.06128117 104.90820312 161.69213867 C104.93696533 162.7681987 104.96572754 163.84425873 104.99536133 164.95292664 C104.91629694 172.08001623 104.91629694 172.08001623 102.26075172 174.74624634 C100.21872919 176.04087017 98.21742702 177.04433594 96 178 C95.03497559 178.56541504 94.06995117 179.13083008 93.07568359 179.71337891 C92.19219238 180.21272949 91.30870117 180.71208008 90.3984375 181.2265625 C89.41359375 181.7834375 88.42875 182.3403125 87.4140625 182.9140625 C86.41117188 183.47867188 85.40828125 184.04328125 84.375 184.625 C83.364375 185.19734375 82.35375 185.7696875 81.3125 186.359375 C73.76445484 190.61877056 73.76445484 190.61877056 70.0078125 192.4921875 C65.06644572 194.96928825 60.30087522 197.7627121 55.5 200.5 C49.72097246 203.79499547 43.96492434 207.05133343 38 210 C35.44301591 211.41067633 32.91036262 212.86341467 30.375 214.3125 C24.6039091 217.58744661 18.78822398 220.68769329 12.8125 223.578125 C8.97852588 225.51641192 5.32067411 227.73651323 1.66796875 229.99609375 C-2.58901379 231.59791588 -5.95366222 230.92373944 -10.06762695 229.06665039 C-12.33354848 227.87356292 -14.54262418 226.61059683 -16.75 225.3125 C-18.34621443 224.39949525 -19.94256822 223.48673407 -21.5390625 222.57421875 C-22.30508789 222.13126465 -23.07111328 221.68831055 -23.86035156 221.23193359 C-26.59452808 219.65769184 -29.35456364 218.13438339 -32.125 216.625 C-32.97191406 216.16351563 -33.81882812 215.70203125 -34.69140625 215.2265625 C-36.79702158 214.10784302 -38.9191668 213.04407915 -41.0625 212 C-44.06472725 210.52629007 -46.89957875 208.87422512 -49.75 207.125 C-53.42069404 204.88430026 -57.13779901 202.89148818 -61 201 C-64.69905268 199.18802749 -68.25101137 197.29719093 -71.75 195.125 C-75.23333568 192.98183481 -78.77197469 191.07722345 -82.44992542 189.28711987 C-83.755139 188.64710007 -85.05392301 187.99376395 -86.34520245 187.32607746 C-90.14827639 185.3602412 -93.92180994 183.62539892 -97.92720032 182.1101532 C-103.28639649 179.87195785 -108.17697978 177.48069995 -112 173 C-115.37537893 164.69747746 -114.20570613 155.09243376 -113.85546875 146.33203125 C-113.81999548 143.72468384 -113.79296656 141.11720908 -113.77400208 138.50968933 C-113.71520819 132.36934412 -113.55972256 126.23551564 -113.36836177 120.09802693 C-113.15511256 113.10487724 -113.05131747 106.11139596 -112.95614851 99.11579859 C-112.75815905 84.74038197 -112.42453544 70.37042285 -112 56 C-110.96051208 55.43923515 -110.96051208 55.43923515 -109.90002441 54.86714172 C-106.73477961 53.15872885 -103.570508 51.4485211 -100.40625 49.73828125 C-99.31602539 49.15018677 -98.22580078 48.56209229 -97.10253906 47.95617676 C-91.84910176 45.11521512 -86.62205583 42.25950337 -81.5 39.1875 C-76.65596066 36.30915778 -71.66143592 33.80334116 -66.60766602 31.32202148 C-60.79932641 28.44863554 -55.11461937 25.37354555 -49.4375 22.25 C-40.63769706 17.40867946 -31.77375121 12.70804982 -22.85131836 8.09667969 C-21.95550049 7.63293945 -21.05968262 7.16919922 -20.13671875 6.69140625 C-19.27353027 6.24812988 -18.4103418 5.80485352 -17.52099609 5.34814453 C-15.83686404 4.44752694 -14.17719556 3.49963931 -12.54541016 2.50732422 C-5.25023254 -1.91487261 -5.25023254 -1.91487261 0 0 Z M-13.25 14 C-18.55035484 17.07295669 -23.86730221 20.00381747 -29.375 22.6875 C-39.91882649 27.86259572 -50.2026873 33.52709987 -60.52734375 39.12255859 C-64.02428125 41.01312731 -67.52674864 42.89302475 -71.03125 44.76953125 C-72.75142334 45.69161377 -72.75142334 45.69161377 -74.50634766 46.63232422 C-76.67710882 47.79558035 -78.84860298 48.95747018 -81.02099609 50.11767578 C-82.96978498 51.16374224 -84.9054544 52.23484256 -86.82330322 53.33660889 C-90 55 -90 55 -93.16439819 56.00979614 C-97.08675437 57.51372313 -99.21967904 58.81332905 -102 62 C-104.30532659 69.58086602 -103.3882285 78.05483153 -103.171875 85.87109375 C-103.14948267 88.2375915 -103.13240623 90.60414503 -103.12042236 92.97071838 C-103.07468666 99.18812704 -102.95689181 105.4021506 -102.82397461 111.6182251 C-102.70103151 117.96572064 -102.64637258 124.31376542 -102.5859375 130.66210938 C-102.45738814 143.10955718 -102.25269088 155.55449672 -102 168 C-101.29897156 168.3633696 -100.59794312 168.7267392 -99.87567139 169.10112 C-96.6405729 170.77869126 -93.40622103 172.45769724 -90.171875 174.13671875 C-89.06956543 174.70805542 -87.96725586 175.27939209 -86.83154297 175.86804199 C-78.11494762 180.39495472 -69.46124293 185.02830961 -60.859375 189.76953125 C-59.46041992 190.54031006 -59.46041992 190.54031006 -58.03320312 191.32666016 C-57.03224609 191.8788623 -56.03128906 192.43106445 -55 193 C-53.2607187 193.95918437 -51.52143629 194.91836672 -49.78211975 195.87748718 C-48.55755246 196.55319823 -47.33330154 197.22948292 -46.10935974 197.90632629 C-43.0017699 199.62422009 -39.89002902 201.33345648 -36.76782227 203.0246582 C-30.9948362 206.16258642 -25.33133925 209.37328837 -19.82421875 212.96875 C-11.4858169 218.77283881 -11.4858169 218.77283881 -1.86962891 220.90625 C2.61262831 219.71941723 6.16128971 217.17681825 9.86962891 214.4765625 C13.76158998 211.77904008 18.00451961 209.70580393 22.1875 207.5 C24.073967 206.47044453 25.95800065 205.43642052 27.83984375 204.3984375 C28.82968262 203.8528418 29.81952148 203.30724609 30.83935547 202.74511719 C34.20717344 200.88561133 37.57443758 199.02510553 40.94140625 197.1640625 C42.76312829 196.15732218 44.5848608 195.15060083 46.40661621 194.1439209 C47.63389175 193.46555066 48.86102435 192.78692177 50.0880127 192.10803223 C56.84463364 188.37020295 63.61230452 184.65572284 70.41796875 181.0078125 C71.01358612 180.68841705 71.60920349 180.36902161 72.22286987 180.03994751 C75.04666301 178.52699823 77.87286498 177.0187734 80.70214844 175.51611328 C81.70665039 174.97970215 82.71115234 174.44329102 83.74609375 173.890625 C85.05598267 173.19501465 85.05598267 173.19501465 86.39233398 172.48535156 C87.68312866 171.75010254 87.68312866 171.75010254 89 171 C90.02973434 170.51752808 91.05946869 170.03505615 92.1204071 169.53796387 C95.27230669 166.75999922 95.43345851 166.45402243 95.7215271 162.53277588 C95.73892472 160.65762518 95.72295496 158.78199197 95.68115234 156.90722656 C95.6820285 155.88251755 95.68290466 154.85780853 95.68380737 153.80204773 C95.67962631 150.41413207 95.63294667 147.02819486 95.5859375 143.640625 C95.57474729 141.29222699 95.56620628 138.94381497 95.56021118 136.59539795 C95.53729955 130.41364893 95.47835448 124.23274545 95.4119873 118.05133057 C95.35061611 111.74397216 95.3232071 105.43647715 95.29296875 99.12890625 C95.22861491 86.75223261 95.12620585 74.37618661 95 62 C81.31775485 54.61634954 67.63214238 47.2413238 53.87753296 39.99307251 C43.11745358 34.32123378 32.37834083 28.61399678 21.6875 22.8125 C20.72215332 22.28946289 19.75680664 21.76642578 18.76220703 21.22753906 C14.7582007 19.05484437 10.76080327 16.87264303 6.78515625 14.6484375 C6.17389893 14.30965576 5.5626416 13.97087402 4.93286133 13.62182617 C3.41512522 12.77917768 1.90254637 11.92725635 0.390625 11.07421875 C-5.08470611 8.6138984 -8.59818284 11.22561543 -13.25 14 Z " transform="translate(131,12)" style="fill: #8069D5;"/>
</svg>
