<svg fill="#81C784" xmlns="http://www.w3.org/2000/svg" width="16" height="16" viewBox="0 0 256 256">
<path d="M0 0 C0.86455811 0.43441406 1.72911621 0.86882813 2.61987305 1.31640625 C3.57047607 1.78288574 4.5210791 2.24936523 5.50048828 2.72998047 C7.07358765 3.54233154 7.07358765 3.54233154 8.6784668 4.37109375 C9.25519638 4.66852982 9.83192596 4.96596588 10.4261322 5.27241516 C12.30464763 6.24266674 14.18113141 7.21676578 16.05737305 8.19140625 C16.7036969 8.52621002 17.35002075 8.86101379 18.01593018 9.20596313 C27.28398367 14.00859867 36.48615826 18.91744695 45.62890625 23.95532227 C52.28321838 27.6142988 59.00039177 31.13929214 65.74487305 34.62890625 C72.51689814 38.13310374 79.16142921 41.72653465 85.69799805 45.65234375 C90.18650645 48.20863329 94.81577374 50.47378186 99.45556641 52.74121094 C104.52853051 55.22506371 104.52853051 55.22506371 105.61987305 56.31640625 C105.73290031 57.79738465 105.77723163 59.28366886 105.79396057 60.76885986 C105.81336449 62.21152473 105.81336449 62.21152473 105.8331604 63.68333435 C105.84213348 64.74721878 105.85110657 65.81110321 105.86035156 66.90722656 C105.87334793 68.02100174 105.8863443 69.13477692 105.8997345 70.28230286 C106.01152203 80.56176718 106.07228276 90.84192217 106.11650181 101.12189102 C106.1497428 108.72256332 106.20928563 116.32204358 106.30401284 123.92220426 C106.3761016 129.90818094 106.40445799 135.89359994 106.41782951 141.88002777 C106.43010859 144.42705319 106.45621251 146.97405023 106.49627876 149.5207901 C106.54953628 153.08417616 106.55276726 156.64431024 106.54394531 160.20800781 C106.57113647 161.26379532 106.59832764 162.31958282 106.62634277 163.40736389 C106.53687738 170.40394891 106.53687738 170.40394891 103.87928581 173.04836273 C101.83857214 174.34013381 99.82951155 175.34914478 97.61987305 176.31640625 C96.17741211 177.19425781 96.17741211 177.19425781 94.70581055 178.08984375 C88.33132774 181.85574858 81.84197935 185.23264038 75.19799805 188.49609375 C70.94312046 190.62353254 66.84792342 193.00874667 62.73852539 195.40161133 C58.05475966 198.11239839 53.25943038 200.51651766 48.40112305 202.89453125 C45.80507768 204.22172298 43.34676853 205.65573105 40.86987305 207.19140625 C36.13664348 210.09896156 31.22173846 212.56053387 26.22875977 214.98144531 C22.1817353 216.96578061 18.25053876 219.0761088 14.35424805 221.34375 C13.46398926 221.85655518 12.57373047 222.36936035 11.65649414 222.89770508 C9.90997169 223.91066247 8.17282863 224.94000399 6.4465332 225.98706055 C5.64521973 226.44894775 4.84390625 226.91083496 4.01831055 227.38671875 C3.31367676 227.80711426 2.60904297 228.22750977 1.88305664 228.66064453 C-2.18141311 229.83833232 -5.37084821 227.83042061 -8.98217773 225.99121094 C-9.8379541 225.49524414 -10.69373047 224.99927734 -11.57543945 224.48828125 C-12.53232666 223.93889893 -13.48921387 223.3895166 -14.47509766 222.82348633 C-15.97496216 221.95373169 -15.97496216 221.95373169 -17.50512695 221.06640625 C-24.39413055 217.11826902 -31.26877343 213.27418959 -38.4152832 209.80859375 C-42.99288261 207.50471631 -47.44280616 204.97864687 -51.91357422 202.4753418 C-58.29003822 198.90953443 -64.70289064 195.41477853 -71.13012695 191.94140625 C-72.13156738 191.3995166 -73.13300781 190.85762695 -74.16479492 190.29931641 C-78.29688286 188.06366441 -82.42950664 185.82902993 -86.56469727 183.59912109 C-89.62989342 181.94554087 -92.69269431 180.28759747 -95.75512695 178.62890625 C-96.69453125 178.12375488 -97.63393555 177.61860352 -98.60180664 177.09814453 C-99.46451172 176.63005371 -100.3272168 176.16196289 -101.21606445 175.6796875 C-102.35374268 175.06540894 -102.35374268 175.06540894 -103.5144043 174.4387207 C-105.38012695 173.31640625 -105.38012695 173.31640625 -107.38012695 171.31640625 C-107.62622261 169.27431297 -107.62622261 169.27431297 -107.62063599 166.71005249 C-107.62338531 165.73967545 -107.62613464 164.7692984 -107.62896729 163.76951599 C-107.62177673 162.70137161 -107.61458618 161.63322723 -107.60717773 160.53271484 C-107.60761581 158.84978584 -107.60761581 158.84978584 -107.60806274 157.13285828 C-107.60666511 153.41010914 -107.59108339 149.68755809 -107.57543945 145.96484375 C-107.57171087 143.38937489 -107.56886317 140.81390462 -107.56686401 138.23843384 C-107.55999792 132.14337472 -107.54422174 126.04839782 -107.52416503 119.95336974 C-107.5018281 113.01513413 -107.49081817 106.07689514 -107.48077416 99.13863254 C-107.45985608 84.86451865 -107.42466634 70.59046499 -107.38012695 56.31640625 C-105.16770233 55.0409952 -102.95399171 53.7679103 -100.73950195 52.49609375 C-100.11994629 52.13862061 -99.50039062 51.78114746 -98.86206055 51.4128418 C-95.17301664 49.29685275 -91.45528128 47.3052931 -87.63012695 45.44140625 C-82.55510537 42.95444348 -77.62133338 40.26534293 -72.69262695 37.50390625 C-64.61907283 32.98077564 -56.46686012 28.6264905 -48.27758789 24.31738281 C-39.51567158 19.69516757 -30.82809369 14.93240761 -22.13012695 10.19140625 C-21.2069165 9.68826904 -20.28370605 9.18513184 -19.33251953 8.66674805 C-17.98710083 7.93258667 -17.98710083 7.93258667 -16.61450195 7.18359375 C-15.73729492 6.71018555 -14.86008789 6.23677734 -13.95629883 5.74902344 C-12.24166186 4.79550849 -10.54922633 3.80091005 -8.88208008 2.76660156 C-8.1028418 2.29061523 -7.32360352 1.81462891 -6.52075195 1.32421875 C-5.84044922 0.88996582 -5.16014648 0.45571289 -4.45922852 0.00830078 C-2.38012695 -0.68359375 -2.38012695 -0.68359375 0 0 Z M-8.02856445 13.51953125 C-8.93920654 13.99865967 -9.84984863 14.47778809 -10.78808594 14.97143555 C-11.76720947 15.49777588 -12.74633301 16.02411621 -13.75512695 16.56640625 C-14.78387939 17.11143799 -15.81263184 17.65646973 -16.87255859 18.21801758 C-24.43434282 22.23696907 -31.95444785 26.33284197 -39.46020508 30.45532227 C-47.14829858 34.6703453 -54.88862746 38.78257508 -62.63793945 42.88345337 C-76.54276143 50.23003391 -76.54276143 50.23003391 -90.31762695 57.81640625 C-90.94910645 58.17178467 -91.58058594 58.52716309 -92.23120117 58.89331055 C-94.97076921 60.3769831 -94.97076921 60.3769831 -97.38012695 62.31640625 C-97.47543858 63.66981215 -97.50201415 65.02814609 -97.50038147 66.38490295 C-97.50175613 67.26134964 -97.5031308 68.13779633 -97.50454712 69.040802 C-97.50095184 70.00968353 -97.49735657 70.97856506 -97.49365234 71.97680664 C-97.49379837 72.99132401 -97.4939444 74.00584137 -97.49409485 75.05110168 C-97.49339525 78.42210998 -97.48560064 81.79306379 -97.4777832 85.1640625 C-97.47591919 87.49433868 -97.47449521 89.82461525 -97.47349548 92.15489197 C-97.46966897 98.3017789 -97.45983755 104.44864238 -97.4487915 110.59552002 C-97.43858024 116.86250491 -97.43399848 123.12949357 -97.42895508 129.39648438 C-97.4182154 141.70313533 -97.40113739 154.00976884 -97.38012695 166.31640625 C-94.51944791 167.90829701 -91.65832143 169.49938196 -88.79711914 171.09033203 C-87.59320023 171.76029961 -87.59320023 171.76029961 -86.36495972 172.44380188 C-79.81689737 176.08400073 -73.23524403 179.65567606 -66.63012695 183.19140625 C-58.5316092 187.53903157 -50.44468881 191.90611055 -42.38012695 196.31640625 C-34.03492377 200.874665 -25.68176178 205.41799297 -17.31762695 209.94140625 C-16.20452148 210.54597656 -15.09141602 211.15054688 -13.94458008 211.7734375 C-12.37933594 212.61841797 -12.37933594 212.61841797 -10.7824707 213.48046875 C-9.85942139 213.9801416 -8.93637207 214.47981445 -7.98535156 214.99462891 C-3.32581438 217.742949 -3.32581438 217.742949 1.76269531 217.67993164 C2.47997803 217.26219482 3.19726074 216.84445801 3.9362793 216.4140625 C4.76756348 215.94395752 5.59884766 215.47385254 6.45532227 214.98950195 C7.35524902 214.45800537 8.25517578 213.92650879 9.18237305 213.37890625 C11.17494862 212.24708727 13.16848376 211.1169564 15.1628418 209.98828125 C16.21648926 209.38564453 17.27013672 208.78300781 18.35571289 208.16210938 C23.85061192 205.05504605 29.42399502 202.09688377 34.99487305 199.12890625 C36.75719031 198.18553157 38.51950706 197.24215595 40.28178406 196.29870605 C46.18860649 193.13850392 52.10524458 189.99705652 58.02612305 186.86328125 C59.45141758 186.10832001 60.87671056 185.35335583 62.30200195 184.59838867 C65.01117946 183.16352336 67.72197952 181.73179267 70.43383789 180.30200195 C71.70163058 179.63112002 72.96937369 178.96014439 74.23706055 178.2890625 C75.32615723 177.71422119 76.41525391 177.13937988 77.53735352 176.54711914 C83.61466064 173.22644247 89.60698021 169.75234501 95.61987305 166.31640625 C95.61987305 131.99640625 95.61987305 97.67640625 95.61987305 62.31640625 C84.65757306 56.22623959 73.70348233 50.17386928 62.61987305 44.31640625 C61.26407336 43.59806419 59.90836289 42.87955372 58.55273438 42.16088867 C54.24307359 39.876948 49.93157196 37.59649631 45.61987305 35.31640625 C44.08779745 34.50604443 42.55573379 33.69566004 41.02368164 32.88525391 C40.25772675 32.48009552 39.49177185 32.07493713 38.7026062 31.65750122 C36.3969621 30.43781837 34.09142185 29.21793938 31.78588867 27.99804688 C28.87501146 26.4578819 25.96350418 24.91891828 23.05151367 23.38085938 C22.37516876 23.02321503 21.69882385 22.66557068 21.00198364 22.29708862 C19.6901834 21.60358096 18.37792014 20.91094828 17.06515503 20.2192688 C12.27600283 17.68846906 7.55425572 15.0492182 2.86523438 12.33666992 C-1.38092983 10.40726683 -4.17228051 11.47100138 -8.02856445 13.51953125 Z " transform="translate(129.380126953125,13.68359375)" style="fill: #7F68D4;"/>
<path d="M0 0 C2.3663085 1.11433205 4.64606494 2.26367817 6.94140625 3.5078125 C7.95013039 4.04455093 7.95013039 4.04455093 8.97923279 4.59213257 C11.17704059 5.76353964 13.36980188 6.94406014 15.5625 8.125 C17.08109986 8.93737324 18.59998296 9.74921723 20.11914062 10.56054688 C23.22333632 12.21961172 26.32550307 13.88238696 29.42626953 15.54785156 C33.74449652 17.86573934 38.07228644 20.1652486 42.40234375 22.4609375 C44.32423787 23.48205111 46.24582638 24.50373617 48.16720581 25.52581787 C49.38505886 26.17314133 50.6034197 26.81951039 51.82229614 27.46490479 C53.50839903 28.35850355 55.19177382 29.25724424 56.875 30.15625 C57.82117188 30.65962891 58.76734375 31.16300781 59.7421875 31.68164062 C62 33 62 33 64 35 C64.24050903 37.74612427 64.24050903 37.74612427 64.22705078 41.28564453 C64.22734283 41.92967224 64.22763489 42.57369995 64.22793579 43.23724365 C64.22654074 45.36923627 64.21097174 47.50088082 64.1953125 49.6328125 C64.19158298 51.10968841 64.18873572 52.58656678 64.18673706 54.06344604 C64.17909574 57.95317398 64.15944308 61.84275288 64.1373291 65.73242188 C64.11688135 69.70050032 64.10773764 73.66860282 64.09765625 77.63671875 C64.07619756 85.42454716 64.04205572 93.21225271 64 101 C53.59868935 106.82760673 43.17328739 112.56094484 32.5625 118 C22.86409265 122.98660056 22.86409265 122.98660056 13.22265625 128.08203125 C12.35374756 128.54673828 11.48483887 129.01144531 10.58959961 129.49023438 C8.99770488 130.34429102 7.4084651 131.2033234 5.82250977 132.06835938 C-1.40272582 135.93597085 -1.40272582 135.93597085 -5 136 C-7.41526909 135.07151716 -9.49396663 134.10217979 -11.75 132.875 C-12.43046387 132.51954102 -13.11092773 132.16408203 -13.81201172 131.79785156 C-15.35191506 130.99228055 -16.88867547 130.18068335 -18.42285156 129.36425781 C-21.21647493 127.88540527 -24.02446498 126.4368068 -26.8359375 124.9921875 C-37.40232209 119.55377809 -47.9193903 114.02357301 -58.375 108.375 C-59.30199707 107.87838867 -60.22899414 107.38177734 -61.18408203 106.87011719 C-62.46581299 106.17257324 -62.46581299 106.17257324 -63.7734375 105.4609375 C-64.89371338 104.85451416 -64.89371338 104.85451416 -66.03662109 104.23583984 C-68.13131445 102.91734472 -69.47777321 101.9610909 -71 100 C-71.41459656 97.20523071 -71.41459656 97.20523071 -71.4675293 93.77197266 C-71.49312424 92.48698883 -71.51871918 91.202005 -71.54508972 89.87808228 C-71.55631425 88.47342031 -71.56598587 87.06874519 -71.57421875 85.6640625 C-71.58894009 84.22301069 -71.60381967 82.78196048 -71.61885071 81.34091187 C-71.64584169 78.31967694 -71.65939012 75.29868809 -71.66577148 72.27734375 C-71.67664066 68.41045762 -71.73833698 64.5461818 -71.8124876 60.68006325 C-71.86092264 57.70308696 -71.87330017 54.72673772 -71.87583351 51.74940109 C-71.88305558 50.32436709 -71.9034971 48.89933519 -71.93753624 47.47468948 C-72.18241679 36.37744341 -72.18241679 36.37744341 -69.37345886 33.10517883 C-67.29620854 31.77779602 -65.30107703 30.8735205 -63 30 C-61.97253662 29.42113037 -60.94507324 28.84226074 -59.88647461 28.24584961 C-58.90171143 27.71999268 -57.91694824 27.19413574 -56.90234375 26.65234375 C-55.78174561 26.05268799 -54.66114746 25.45303223 -53.5065918 24.83520508 C-52.31695434 24.20252424 -51.12725576 23.56995833 -49.9375 22.9375 C-48.70020554 22.27707014 -47.46298319 21.61650515 -46.22583008 20.95581055 C-37.30518659 16.19817741 -28.35348303 11.50058438 -19.37280273 6.85717773 C-18.50083252 6.40544189 -17.6288623 5.95370605 -16.73046875 5.48828125 C-15.91626465 5.06885254 -15.10206055 4.64942383 -14.26318359 4.21728516 C-12.17178138 3.09239503 -10.18459831 1.8695589 -8.17578125 0.60546875 C-4.48240056 -1.26166466 -3.83986298 -1.15051946 0 0 Z M-14.63183594 15.2121582 C-15.83865478 15.95269493 -17.04469699 16.69449864 -18.25 17.4375 C-19.51301394 18.16164024 -20.77900596 18.88060979 -22.04785156 19.59448242 C-24.56009681 21.01814039 -27.05224708 22.46943649 -29.53125 23.95019531 C-32.5938837 25.77432592 -35.70079655 27.4967507 -38.84375 29.1796875 C-46.43518195 32.55095527 -46.43518195 32.55095527 -52 38 C-51.35788574 38.3309668 -50.71577148 38.66193359 -50.05419922 39.00292969 C-46.99310862 40.58267206 -43.9339594 42.16613484 -40.875 43.75 C-39.19325684 44.61842529 -39.19325684 44.61842529 -37.47753906 45.50439453 C-31.80913202 48.44548892 -26.17899138 51.43167951 -20.6171875 54.5703125 C-19.62734863 55.1262207 -18.63750977 55.68212891 -17.61767578 56.25488281 C-15.73670696 57.31755173 -13.86236936 58.39206334 -11.99560547 59.47949219 C-11.14627441 59.95805664 -10.29694336 60.43662109 -9.421875 60.9296875 C-8.68549805 61.35491699 -7.94912109 61.78014648 -7.19042969 62.21826172 C-4.27250473 63.2596344 -2.95354501 62.95178108 0 62 C2.5639933 60.78106112 5.0458863 59.52469175 7.5390625 58.17578125 C8.26056488 57.79189743 8.98206726 57.40801361 9.72543335 57.01249695 C12.02855865 55.78517707 14.32676701 54.54895224 16.625 53.3125 C18.14682595 52.50007109 19.66895867 51.68821654 21.19140625 50.87695312 C29.15195349 46.62932112 37.08957137 42.34030181 45 38 C42.29938515 34.82280606 38.83413849 33.13202764 35.19921875 31.234375 C34.52639359 30.87788879 33.85356842 30.52140259 33.16035461 30.15411377 C31.73187272 29.3985187 30.30199925 28.64554944 28.87084961 27.89501953 C26.02913361 26.40473126 23.19433248 24.90150508 20.35922241 23.3986969 C18.95966019 22.66350471 17.55565086 21.9367175 16.14736938 21.21836853 C12.7737851 19.49596674 9.51526502 17.72736749 6.33544922 15.66625977 C-1.61667237 10.70262627 -6.46550157 10.50834009 -14.63183594 15.2121582 Z M-59 46 C-59 62.5 -59 79 -59 96 C-51.74 99.63 -44.48 103.26 -37 107 C-32.958028 109.16176856 -28.93592494 111.32619654 -24.9375 113.5625 C-23.135568 114.56641527 -21.33223231 115.56781618 -19.52734375 116.56640625 C-18.77187256 116.98865479 -18.01640137 117.41090332 -17.23803711 117.84594727 C-14.89891463 119.05212507 -12.44356277 120.02257489 -10 121 C-10 104.83 -10 88.66 -10 72 C-26.20324514 63.09358049 -42.45972232 54.27013884 -59 46 Z M42.875 50.25 C41.14868916 51.16453769 39.42211456 52.07857765 37.6953125 52.9921875 C36.77524414 53.47913086 35.85517578 53.96607422 34.90722656 54.46777344 C28.89661029 57.63561251 22.86370013 60.76110624 16.83154297 63.88769531 C15.91260254 64.36561523 14.99366211 64.84353516 14.046875 65.3359375 C12.83789551 65.96314697 12.83789551 65.96314697 11.60449219 66.60302734 C8.36829764 68.33882648 5.18846897 70.17801773 2 72 C2 88.17 2 104.34 2 121 C7.02117241 119.358774 7.02117241 119.358774 11.64355469 117.19995117 C12.29153015 116.85586716 12.93950562 116.51178314 13.6071167 116.15727234 C14.28848694 115.78955215 14.96985718 115.42183197 15.671875 115.04296875 C16.39433411 114.6581282 17.11679321 114.27328766 17.86114502 113.87678528 C20.15978665 112.65137708 22.4550191 111.41974827 24.75 110.1875 C27.03130517 108.96713741 29.31332394 107.74813054 31.5960083 106.53034973 C33.01064413 105.77517963 34.42441544 105.01838658 35.83709717 104.25956726 C41.18008948 101.40003108 46.57286722 98.71356639 52 96 C52 79.5 52 63 52 46 C49.13700619 46 45.44369575 48.88265877 42.875 50.25 Z " transform="translate(131,62)" style="fill: #7B63D2;"/>
</svg>
